<svg id="Layer_1" data-name="Layer 1" xmlns="http://www.w3.org/2000/svg" viewBox="0 0 270 382"><defs><style>.cls-1{fill:#873f2b;}.cls-2{fill:#582a1a;}.cls-3{fill:#b2b2b2;}.cls-4{fill:#e59553;}.cls-5{fill:#fff;}.cls-6{fill:#f9c38a;}.cls-7{fill:#1a1a1a;}.cls-8{fill:#ccc;}.cls-9{fill:#d73d33;}.cls-10{fill:#fe4382;}.cls-11{fill:#fbcb43;}.cls-12{fill:#4dbfd9;}.cls-13{fill:#db1d66;}.cls-14{fill:#1ac;}</style></defs><title>Artboard 3</title><path class="cls-1" d="M194.84,337.05l.18,4.81s6.42,14,13.78,18.69c9.31,6,15.78,5,21.09,3.57s5.65-4.71,5.65-4.71v-4.2S204.6,332.72,194.84,337.05Z"/><path class="cls-2" d="M199,334.58s-5.13.7-3.86,3.81,9.62,19.66,21.07,22.86,19.5-.49,19.29-5.66c-.24-5.76-10.38-8.23-18.09-14.23S199,334.58,199,334.58Z"/><path class="cls-3" d="M197.33,313.45s1.55,9.4,1.15,13c-.46,4.24-1.66,9.29.8,11.8,4.9,5,4.9,10.52,8.87,13.56,9.55,7.32,15.82,8.25,20.22,4.89,10.64.05,4.73-8.09.76-10.95s-11.56-12.57-13.21-17.88c-1.34-4.36-.87-18.22-.87-18.22Z"/><path class="cls-2" d="M228.35,344.9c-1.78.59-2.76,2.74-3.32,4-1.75-1-5.42-2.6-9-1.72-2.46.61-5.88,3.5-7.26,6.2l1.76.9c1.11-2.17,4.09-4.72,6-5.19,4-1,8.4,2,8.45,2.08l1.09.76.41-1.27c.29-.93,2.19-3.69,3.86-4C230.63,345.87,229.34,344.57,228.35,344.9Z"/><path class="cls-1" d="M187.74,337.05l-.18,4.81s-6.41,14-13.78,18.69c-9.31,6-15.78,5-21.09,3.57s-5.65-4.71-5.65-4.71v-4.2S178,332.72,187.74,337.05Z"/><path class="cls-2" d="M183.63,334.58s5.13.7,3.86,3.81-9.62,19.66-21.07,22.86-19.5-.49-19.28-5.66c.23-5.76,10.37-8.23,18.08-14.23S183.63,334.58,183.63,334.58Z"/><path class="cls-3" d="M185.25,313.45s-1.54,9.4-1.15,13c.46,4.24,1.66,9.29-.8,11.8-4.9,5-4.9,10.52-8.87,13.56-9.55,7.32-15.82,8.25-20.22,4.89-10.64.05-4.73-8.09-.76-10.95s11.57-12.57,13.21-17.88c1.35-4.36.87-18.22.87-18.22Z"/><path class="cls-2" d="M154.23,344.9c1.78.59,2.76,2.74,3.32,4,1.75-1,5.42-2.6,9-1.72,2.46.61,5.88,3.5,7.26,6.2l-1.76.9c-1.1-2.17-4.09-4.72-6-5.19-4-1-8.4,2-8.45,2.08l-1.09.76-.41-1.27c-.29-.93-2.18-3.69-3.86-4C152,345.87,153.25,344.57,154.23,344.9Z"/><path class="cls-4" d="M198.88,88.22c-2.24-2.91-1.42-7.69-1-9.26s-18-.49-18-.49,2.47,7.64-1.72,9.36l-.32.14,10.5,18.91Z"/><path class="cls-5" d="M201.26,89.91a8.91,8.91,0,0,1-1.63-.85,5.93,5.93,0,0,1-.75-.84l-10.5,18.66L177.88,88c-.73.32-1.83.84-3.13,1.49l13.3,23.17Z"/><path class="cls-6" d="M215.54,55.18c-.44-3.63-2.8-3.28-4.3-2.65.22-5,.36-9.09.36-9.09-2.24-20.1-17.33-16-23-16s-20.36-4.08-22.59,16c0,0,.13,4.11.36,9.12-1.5-.64-3.93-1.08-4.38,2.62-.6,4.93,1.92,8.93,5.71,9.1a47.73,47.73,0,0,0,.69,6c1,4,2.93,7.22,6.16,9.12s10.27,4.57,14.62,4.57c4.6,0,11.54-3,14.59-4.77,3.24-1.91,5.18-5.18,6.16-9.12a47.19,47.19,0,0,0,.7-6C214.3,63.85,216.13,60.07,215.54,55.18Z"/><path class="cls-7" d="M181.94,54.57a9.49,9.49,0,0,0-4.65-1.07c-2,.11-4.07.91-5,2.79-.47,1,.37,1.29,1,.67,3-3.21,7.36-1.29,8-1.08C182.55,56.29,182.87,55.1,181.94,54.57Z"/><path class="cls-7" d="M195.64,54.57a9.45,9.45,0,0,1,4.64-1.07c2.05.11,4.08.91,5,2.79.47,1-.38,1.29-1,.67-3-3.21-7.35-1.29-8-1.08C195,56.29,194.71,55.1,195.64,54.57Z"/><path class="cls-7" d="M182.2,52.87c-.91-1.45-3-2-4.49-2a7,7,0,0,0-4.32,1.57c-1,1-.21,1.12.35.74a6.39,6.39,0,0,1,3.31-1.28,6.63,6.63,0,0,1,4.79,1.42C182.14,53.52,182.51,53.37,182.2,52.87Z"/><path class="cls-7" d="M195.58,52.87c.91-1.45,3-2,4.49-2a7,7,0,0,1,4.31,1.57c1,1,.22,1.12-.34.74a6.43,6.43,0,0,0-3.32-1.28,6.6,6.6,0,0,0-4.78,1.42C195.64,53.52,195.27,53.37,195.58,52.87Z"/><path class="cls-7" d="M181.28,39.75c-2,1-4.15,2.16-6,3.37a18,18,0,0,0-3.91,2.76c-.65.71,0,1.14.49.86,1.52-.8,6.83-3.77,8-4.48a24.78,24.78,0,0,0,2.33-1.55C183.16,40,182.6,39.05,181.28,39.75Z"/><path class="cls-7" d="M195.36,39.75c2,1,4.15,2.16,6,3.37a18,18,0,0,1,3.91,2.76c.65.71,0,1.14-.49.86-1.52-.8-6.83-3.77-8-4.48a23.55,23.55,0,0,1-2.33-1.55C193.48,40,194,39.05,195.36,39.75Z"/><path class="cls-4" d="M167.19,61.13l-.74-6.1s-1.91-.92-2.09,1.54S165.53,60.27,167.19,61.13Z"/><path class="cls-4" d="M211,60.93l.33-6a1.63,1.63,0,0,1,2.36,1.59C213.85,59,212.63,60.07,211,60.93Z"/><path class="cls-4" d="M191.75,58c-.22-.58-1.17-1.61-1.07.52.13,2.65.61,5.14,0,7.78-.16.63-.18,1.24.86.81C196,65.23,192.8,60.67,191.75,58Z"/><path class="cls-4" d="M196.85,71.46c-5.3,2.53-10.93,1.59-15.09.23-.42-.14-.8.61-.37.81,6.25,2.93,11.57,2.18,15.88-.23C197.73,72,197.32,71.24,196.85,71.46Z"/><path class="cls-4" d="M192.94,76.78a14.25,14.25,0,0,1-6.32.09c-.84-.2-1.13.29-.43.68a8.1,8.1,0,0,0,6.87,0C193.69,77.17,193.7,76.64,192.94,76.78Z"/><path class="cls-7" d="M168,57.22s-2.46-29.57,16.63-25.81c1.08.21,4,1,4,1s2.74-.84,5.25-1.39C199.51,29.74,210,35.35,210,52.35c0,2.35,0,4.06.07,5.25a2,2,0,0,0,1.08-.49c.27-2.19.37-4.64.37-4.64a3.94,3.94,0,0,1,2-.28c3-6.33,4.14-21.9-5.7-29.53-12.32-9.55-30.8-5.54-38.32,1.48-10.64,9.94-5.36,26.76-5.36,28a2.51,2.51,0,0,1,2.1.68c.06,1.23.12,3.53.55,4A3.12,3.12,0,0,0,168,57.22Z"/><ellipse class="cls-7" cx="188.3" cy="19.25" rx="10.43" ry="11.25"/><path class="cls-8" d="M146.33,217.87V322.72h84.43v-106c-6.5,2.31-19.87,5.78-42.71,6.43C171.92,223.64,155.65,220.26,146.33,217.87Z"/><path class="cls-3" d="M146.33,197.23v20.64c9.32,2.39,25.59,5.77,41.72,5.31,22.84-.65,36.21-4.12,42.71-6.43V199.53Z"/><path class="cls-8" d="M158.73,142.53c-1.74.05-6.4-.49-11.82,1.23,2.43-5.48,7.85-7.29,9.09-13.73a41.57,41.57,0,0,0,.27-13.13c-.51-6.92-.25-8.62-3.45-14,0,0,6.41,1.48,7.15,9.61.4,4.47.73,13.39.95,20.53.88,1.66,1.92,3.12,3.23,3.62a23.54,23.54,0,0,0,6.33.52l8-14.94c-8.88-16-12.85-23.53-14.63-27.16-5.9,3.09-11.56,6.13-12.77,6.83-4.69,2.72-9.37,21.19-11.09,40.41-1.2,13.37-.91,53.2,2,61.85,3.48,10.45,27.63,11.47,39.18,11.57V141.15C175.48,142.38,166.4,142.29,158.73,142.53Z"/><path class="cls-8" d="M236.84,137.11c-1.08-11.21-2.22-31.05-8.38-35.73-1.48-1.12-7.4-3.54-13.5-5.95l-15.69,34.8c9.25-3.21,10.57,1.74,15.39-.51,3.7-1.73,2.57-12.91,3-17.25a13.78,13.78,0,0,1,7.89-11.09c-3.21,5.42-6.16,23.16-.26,30.56a30.54,30.54,0,0,1,4.44,7.39s-9.11.68-13.15-1.82c-2-1.21-7.64-4.51-12.22-4.1-5.15.47-15.71,5.67-21.73,7.39.34,8.34,1.31,31.42,1.85,37,.52,5.45,5.76,28.37,7.94,37.72,11-.37,24.94-1.62,34.6-5.53,10.35-4.19,12.32-8.87,12.32-21.68C239.3,175.79,238.56,155.1,236.84,137.11Z"/><path class="cls-8" d="M193.89,132.55,211.29,94c-4.12-1.62-7.93-3.11-10-4.07L188.83,111.3l-13.76,25.62C181,136.46,188.22,135.18,193.89,132.55Z"/><path class="cls-8" d="M185.77,108.66l-11-19.2c-2.05,1-4.67,2.34-7.42,3.77,2.42,4.83,8.57,16.12,13.39,24.84Z"/><path class="cls-3" d="M170.48,137.14a23.54,23.54,0,0,1-6.33-.52c-1.31-.5-2.35-2-3.23-3.62-.22-7.14-.55-16.06-.95-20.53-.74-8.13-7.15-9.61-7.15-9.61,3.2,5.42,2.94,7.12,3.45,14A41.57,41.57,0,0,1,156,130c-1.24,6.44-6.66,8.25-9.09,13.73,5.42-1.72,10.08-1.18,11.82-1.23,7.89-.25,17.28-.13,22.92-1.48,4.51,5.54,16.83-5.67,22.26-6.16a26.06,26.06,0,0,1,12.63,2.62c4,2.5,13.15,1.82,13.15,1.82a30.54,30.54,0,0,0-4.44-7.39c-5.9-7.4-2.95-25.14.26-30.56a13.78,13.78,0,0,0-7.89,11.09c-.39,4.34.74,15.52-3,17.25-4.82,2.25-6.14-2.7-15.39.51L215,95.43,211.29,94l-17.4,38.57c-5.67,2.63-12.87,3.91-18.82,4.37l13.76-25.62-.78,1.33-2.28-4-5.05,9.41c-4.82-8.72-11-20-13.39-24.84L163.87,95c1.78,3.63,5.75,11.15,14.63,27.16Z"/><path class="cls-3" d="M220.17,141.79s4.43,1,1,3.94-17.24,8.63-30.3,8.87-8.63,2-8.63,2l-.74-7.39S212.53,140.07,220.17,141.79Z"/><path class="cls-6" d="M181.73,152.63s6.28-2.83,16.75-2.46c5.69.2,20.45-3.94,23.78-7.52,2.51-2.69-.37-3.82-9.85-7.51-8-3.13-10.48-.86-18.48,2.22-7.81,3-12,3.69-12,4.43S181.73,152.63,181.73,152.63Z"/><path class="cls-3" d="M182.59,140.8l-.94.25-.49.1V215.7h2c2.64,0,5.8,0,9.25-.14-2.18-9.35-7.42-32.27-7.94-37.72C183.9,172.22,182.93,149.14,182.59,140.8Z"/><path class="cls-4" d="M86.57,117.43l-16.51,2.26v4c2.64,2.6,9.24,7.86,16.51,4.36Z"/><path class="cls-6" d="M86.57,128c-7.27,3.5-13.87-1.76-16.51-4.36v13c.77,2.6,2.89,6.84,8.46,5.68,6-1.24,7.61-4.74,8-6.37Z"/><path class="cls-6" d="M102.58,93.59c-1.08-1.69-2.53-1.46-3.52-1.37,0-5.17-.09-11.35-.09-11.35L69.9,66.36,57.56,80.87s-.09,6-.08,11.19c-1-.11-2.42-.52-3.52,1.2-1.26,2-1.78,8.52,4.19,10.84,1,4.69,3.18,10.05,6.19,12.73s10.16,6.09,13.23,6.61a8,8,0,0,0,2.43,0c2.64-.47,9.17-4.18,12.2-6.66,3.35-2.74,5.34-8.27,6.2-12.9A7.55,7.55,0,0,0,102.58,93.59Z"/><path class="cls-7" d="M72.07,75.44S69.61,85.91,58,92.19a4.77,4.77,0,0,0-2.38-.25c-5.88-9.41-4.28-23,2.91-30.06,5.42-5.29,11.53-6.5,19.34-6.77,8.52-.3,16.75,2.14,22.43,7.64,8,7.76,5.49,17.85,1.64,30a2.66,2.66,0,0,0-2.88-.32c-8.87-.09-19-7.81-22-17.74-.66,7.63,6.94,15.35,6.94,15.35S73.8,87.51,72.07,75.44Z"/><path class="cls-7" d="M73.55,97.18c-3.61-3-8.45-3.2-11.15,1.11-.39.63.23,1.22.67.62,2.5-3.39,6.84-3.38,9.87-.7C73.6,98.79,74.22,97.74,73.55,97.18Z"/><path class="cls-7" d="M72.55,85.85a18.22,18.22,0,0,0-10.68,5.08c-.52.55-.5,1.51.57.69a22.56,22.56,0,0,1,10-4.46C73.93,86.85,74,85.78,72.55,85.85Z"/><path class="cls-7" d="M68.87,92.68a6.47,6.47,0,0,0-4.56,1.73c-.49.46.07.62.26.5a7.08,7.08,0,0,1,4.21-1.37,5.76,5.76,0,0,1,3.1.9c.5.37.84-.16.16-.71A6.08,6.08,0,0,0,68.87,92.68Z"/><path class="cls-7" d="M83.26,97.18c3.61-3,8.45-3.2,11.15,1.11.4.63-.23,1.22-.67.62-2.5-3.39-6.83-3.38-9.87-.7C83.21,98.79,82.6,97.74,83.26,97.18Z"/><path class="cls-7" d="M84.27,85.85a18.52,18.52,0,0,1,9.07,3.64,15.53,15.53,0,0,1,1.6,1.44c.52.55-1.69-.14-2.23-.49a22.75,22.75,0,0,0-8.38-3.28C82.88,86.85,82.82,85.78,84.27,85.85Z"/><path class="cls-7" d="M87.94,92.68a6.45,6.45,0,0,1,4.56,1.73c.49.46-.07.62-.25.5A7.13,7.13,0,0,0,88,93.54a5.76,5.76,0,0,0-3.1.9c-.5.37-.84-.16-.16-.71A6.08,6.08,0,0,1,87.94,92.68Z"/><path class="cls-4" d="M81.68,106.42a5.4,5.4,0,0,0-1-2.22c-.63-.73-1.48-1.72-1.11.8a6.83,6.83,0,0,1-.25,3.37c-.13.45.22.71.86.39C81.25,108.2,81.91,107.7,81.68,106.42Z"/><path class="cls-4" d="M57.91,101l-.74-6.1s-1.91-.92-2.1,1.54S56.24,100.14,57.91,101Z"/><path class="cls-4" d="M98.67,101l.74-6.1s1.91-.92,2.09,1.54S100.33,100.14,98.67,101Z"/><path class="cls-9" d="M83.08,114.71a2.88,2.88,0,0,0-.23-.34,2.43,2.43,0,0,0-3.91-.19c-1.24-1.71-3.76-.77-4.35.73l-.83-.27c-.12,0-.31,0-.31.19,0,1.13,2.06,3,5.64,3a5.29,5.29,0,0,0,5-2.83C84.31,114.41,84,114,83.08,114.71Z"/><path class="cls-7" d="M98.37,49.07a9.67,9.67,0,0,0-8.83-3.24,6.58,6.58,0,0,0-2.2.67c0-4.7,3.52-8,9.12-3.6.48-3.31-4.08-5-6.74-4.52a7.28,7.28,0,0,0-5.81,5.9A13.41,13.41,0,0,0,80.19,40c-4.41-3.38-15.12-3.87-17.82,2.24,3.73-2.75,6.69-3.06,11.12-.16a5.21,5.21,0,0,1,1.2,7.29,17,17,0,0,0-2.21-1.66c-4-2.52-8.81-2.16-12.8.09s-5.32,7-5.23,11.25c.08,3.61,1.92,9.13,6.19,9.22A.78.78,0,0,0,61,66.79a5.58,5.58,0,0,1-.58-.35h0l.24-.29A1.4,1.4,0,0,0,61,64.79c-1.22-3.17-2.07-7.06-.2-10.18a5.77,5.77,0,0,1,7.2-2c1.94.86,2.56,3.06,3.28,4.86a.68.68,0,0,0,.44,1.16c1.93.19,3.88-.48,5.82-.55a1.2,1.2,0,0,0,1.14-.81l0-.09a.86.86,0,0,0,0-.57v0a4.81,4.81,0,0,0,1.54-.34l-.12,1.35a2.11,2.11,0,0,0-1.07.47.69.69,0,0,0,0,1c.91.86,2.29.63,3.48.76a18.15,18.15,0,0,0,2.67.16,2.52,2.52,0,0,0,.9.57,1.32,1.32,0,0,0,1.4-2.12c-1.22-1.33-1.19-4-.41-5.42,1.89-3.52,4.71-1.68,5.52-1.12a4,4,0,0,1,.57,5.89c-.47.54-1.26.79-1.77,1.34-.1.1,0,.31.11.3h.14a.5.5,0,0,0,0,.34,6,6,0,0,0,1.25,1.54,18.45,18.45,0,0,0,1.71,1.92,1,1,0,0,0,1.2-.11.79.79,0,0,0,.26-.86,7.52,7.52,0,0,0,4.21-4C101.69,54.86,100.59,51.78,98.37,49.07Z"/><circle class="cls-10" cx="89.57" cy="56.34" r="6.28"/><path class="cls-10" d="M84.76,57.57a5,5,0,1,1-5.05-5A5,5,0,0,1,84.76,57.57Z"/><circle class="cls-10" cx="97.45" cy="62.25" r="5.05"/><path class="cls-11" d="M92.59,56.15A3.21,3.21,0,1,1,89.38,53,3.21,3.21,0,0,1,92.59,56.15Z"/><path class="cls-11" d="M76.63,60.1a2,2,0,1,1-2-2A2,2,0,0,1,76.63,60.1Z"/><path class="cls-11" d="M104.29,65.83a2,2,0,1,1-2-2A2,2,0,0,1,104.29,65.83Z"/><path class="cls-5" d="M100.9,62.5A2.47,2.47,0,1,1,98.44,60,2.46,2.46,0,0,1,100.9,62.5Z"/><path class="cls-5" d="M81.19,64a3.33,3.33,0,1,1,3.33-3.33A3.34,3.34,0,0,1,81.19,64Zm0-4.68a1.36,1.36,0,1,0,1.35,1.35A1.36,1.36,0,0,0,81.19,59.3Z"/><path class="cls-10" d="M83,292.34a34.48,34.48,0,0,1,25.27-33.21c-.15-13.79-.46-27.48-1.13-31.59-1.3-8-3.86-53.64-4.55-64.29-.25-3.84,1.6-12.95,6.15-19.11,0,0-2.34,13.92-2.09,20.57.13,3.45,1.85,32.28,2.59,45.71.33,6,1,28.78,1.54,48.09a34.47,34.47,0,0,1,6.71-.66c.39,0,.77,0,1.15,0a70.79,70.79,0,0,0,.82-10.4c0-18.81-3.93-81.52-7.29-98.43a10.32,10.32,0,0,0-3.82-6.73c-4.07-3.28-11.35-7.7-16.35-10.61L81,171.61l-9.36-1-9.75-38c-4.72,2.45-10.44,5.43-14.21,7.43-1.69.9-4.25,1.84-5.74,5.6-3.82,9.6-9.31,34.93-9.72,42.68-.15,2.92-.07,11.25.53,21.45a24,24,0,0,1,4.31,1c.21,18.28,1,32.44,2.86,42-.36.19-.75.33-1.13.5,2.08,7.19,4.77,12.33,8.21,13.36,0,17.24-2,68.49-2.46,72.93,0,0-22.18,6.9-22.67,13.3-.21,2.69,5.84,4.34,13.51,5.23-3.32-3.25,3.06-3.29,12.61-6.71,6.9-2.46,7.88-4.43,8.38-15.76.76-17.48,4.47-46.47,5.91-56.18,0,0,3.85,61.32,10.75,67.23,2,1.71,3.61,3.2,6.4,4,6.86,1.89,15.74,1.32,17.84,2.72s5.36,3.35,4.7,5.43l8.6.48c9.86.49,22.18-1,21.68-4.93S112,343.1,110.06,342.6c-.3-3.52-.6-9.79-.86-16.8A34.47,34.47,0,0,1,83,292.34ZM66.94,228a17,17,0,1,1,17,17A17,17,0,0,1,66.94,228Z"/><circle class="cls-11" cx="83.94" cy="228.03" r="17"/><path class="cls-11" d="M118.6,257.9c-.38,0-.76,0-1.15,0a34.47,34.47,0,0,0-6.71.66c.09,3.1.17,6.09.25,8.92a25,25,0,0,1,5.84-.71C117.53,263.88,118.15,260.93,118.6,257.9Z"/><path class="cls-11" d="M91.83,291.73a25,25,0,0,1,16.47-23.49c0-3,0-6-.07-9.11a34.46,34.46,0,0,0,1,66.67c-.12-3.37-.24-6.9-.34-10.39A25,25,0,0,1,91.83,291.73Z"/><path class="cls-10" d="M116.83,266.72a25,25,0,0,0-5.84.71c.18,6.58.33,12.25.43,15.94A127.32,127.32,0,0,0,116.83,266.72Z"/><path class="cls-10" d="M108.34,290.35c0-4,0-12.56,0-22.11a25,25,0,0,0,.56,47.17C108.48,302.6,108.25,290.53,108.34,290.35Z"/><path class="cls-11" d="M98.89,353.12c-2.56-1.16-13.3-.1-21-2.85-2-.73-3.79-2.48-5.23-3.72-6.9-5.92-10.35-67-10.35-67-1.44,9.71-5.15,38.7-5.91,56.18C55.85,347,54.87,349,48,351.47c-9.55,3.42-15.93,3.46-12.61,6.71,10.6,1.24,54,0,66.59.7C102.61,356.8,104.31,355.58,98.89,353.12Z"/><path class="cls-12" d="M83.57,171.49l10-38.93c-3.14-1.83-7-3.9-7-3.9s.25,7.47-8.46,7.47c-7.65,0-8.21-5-8-7.72l-8.19,4.24,9.75,38Z"/><polygon class="cls-5" points="70.42 169.15 60.82 133.17 62.61 132.28 72.33 168.65 70.42 169.15"/><polygon class="cls-5" points="85.88 168.41 83.97 167.91 93.41 132.46 95.16 133.57 85.88 168.41"/><polygon class="cls-13" points="63.49 273.86 46.94 273.86 47.02 262.69 55.85 198.71 63.49 198.71 63.49 273.86"/><path class="cls-13" d="M106.61,164.71c-.25-6.65,2.09-20.57,2.09-20.57-4.55,6.16-6.4,15.27-6.15,19.11.69,10.65,1.1,54.61,1.76,62.73,1.31,16.26,4.06,53.41,4,64.37.5-1,1.67-3.49,3.08-7-.41-15.17-1.72-63.73-2.22-73C108.46,197,106.74,168.16,106.61,164.71Z"/><path class="cls-13" d="M46.24,142.29s7.15,11.09,7.89,22.91a37.26,37.26,0,0,1-.13,6.9S42.55,181,39.1,180c1-4,6.67-5.17,9.36-10.35C51.91,163,45,151.65,46.24,142.29Z"/><path class="cls-14" d="M64.48,192.22c4.19,2.22,8.09,2.55,11.41.25,4-2.79,6.57-2.13,10,.25a9.2,9.2,0,0,0,9.86-.25c3.35-2.57,5.84-2,8.38-.32V166H53.06v31.56l2.79-3.88S60.29,190,64.48,192.22Z"/><path class="cls-12" d="M104.15,176.78V168.5c-2.54-1.66-5-2.25-8.38.32a9.19,9.19,0,0,1-9.86.24c-3.45-2.38-6-3-10-.24-3.32,2.3-7.22,2-11.41-.25s-7-1-9.61,1.19a4.86,4.86,0,0,0-1.81,4.16v2.86Z"/><path class="cls-14" d="M104.15,182.82v-8.28c-2.54-1.66-5-2.26-8.38.31a9.2,9.2,0,0,1-9.86.25c-3.45-2.38-6-3-10-.25-3.32,2.31-7.22,2-11.41-.24s-8.63,1.48-8.63,1.48L53.06,180v2.86Z"/><path class="cls-12" d="M104.15,188.36v-8.28c-2.54-1.65-5-2.25-8.38.32a9.19,9.19,0,0,1-9.86.24c-3.45-2.38-6-3-10-.24-3.32,2.3-7.22,2-11.41-.25s-8.63,1.48-8.63,1.48l-2.79,3.87v2.86Z"/><path class="cls-14" d="M104.15,194.4v-8.28c-2.54-1.66-5-2.26-8.38.31a9.2,9.2,0,0,1-9.86.25c-3.45-2.38-6-3-10-.25-3.32,2.31-7.22,2-11.41-.24s-8.63,1.48-8.63,1.48l-2.79,3.87v2.86Z"/><path class="cls-12" d="M104.15,200.44v-8.29c-2.54-1.65-5-2.25-8.38.32a9.2,9.2,0,0,1-9.86.25c-3.45-2.38-6-3-10-.25-3.32,2.3-7.22,2-11.41-.25s-8.63,1.48-8.63,1.48l-2.79,3.88v2.86Z"/><path class="cls-6" d="M90.84,166.56c-3.58-2.13-11.39-1.13-11.87-1.07a9.15,9.15,0,0,0,1.29-2c.82-1.69.4-3.36-1.47-1.76,0,0-6.31,3.21-9.51,5.05-3,1.72-6.5,3.12-9.59,4.53a51.19,51.19,0,0,0-.53,9.67l1.21-.44c3.53-1.31,11.33-2,16.92-3.16C90.14,174.65,96,169.64,90.84,166.56Z"/><rect class="cls-13" x="58.07" y="197.97" width="47.31" height="5.91"/><path class="cls-10" d="M57.08,170.87c-13.24,4.37-19.95,10.84-19.95,10.84q-.23,16-.09,29.14a22.89,22.89,0,0,1,2.86,42,45.06,45.06,0,0,0,2.4,8.68c1.14,2.72,2.87,4.61,5.13,5.3C52.77,268.48,59.8,268,59.8,268V170.13S57.74,170.65,57.08,170.87Z"/><path class="cls-11" d="M37,210.85a24,24,0,0,0-4.31-1c.07,1.2.15,2.44.23,3.69A19.53,19.53,0,0,1,37.1,215c.25,14.07.9,25.53,2.16,34.08h0c-.46.29-.92.58-1.4.84.29,1.2.59,2.38.91,3.49.38-.17.77-.31,1.13-.5a22.89,22.89,0,0,0-2.86-42Z"/><path class="cls-10" d="M37.1,215A19.53,19.53,0,0,0,33,213.5c.81,12,2.32,25.78,4.9,36.37.48-.26.94-.55,1.4-.84A19.57,19.57,0,0,0,37.1,215Z"/><path class="cls-5" d="M86.6,128.64c-.69,4.53-3.61,6.5-8.49,6.5-5.41,0-7.48-4.56-8.08-6.75-.59.36-1.15.6-1.69.87,1,3.37,3.91,7.85,9.77,7.85,4,0,9-1.22,10.34-7.45Z"/><path class="cls-5" d="M101.17,355.87c.38.67.17,1.69-.35,3a12.62,12.62,0,0,0,2.09.09,5.28,5.28,0,0,0,0-4c-1.58-2.82-6.43-3.17-12.58-3.62a66.09,66.09,0,0,1-12.51-1.74C68.26,346.87,62.26,279,62.26,279s-1.52,7.6-2.71,17.89c-2.25,19.36-5,47.86-5.86,50.35S51,350,47.36,350.51a34.15,34.15,0,0,0-7.1,1.51c-4.34,1.5-6.24,2.7-6.76,4.29a2.47,2.47,0,0,0,0,1.63c.46.12,2,.27,2.19.31a1.76,1.76,0,0,1-.28-1.33c.42-1.27,4.27-2.6,5.53-3a33.35,33.35,0,0,1,6.72-1.43c3.56-.47,6.63-.88,7.93-4.6S60.21,310.6,62,291.73c1.51,20.32,5.57,57,15.23,59.71a67.31,67.31,0,0,0,12.9,1.8C95.28,353.62,100.11,354,101.17,355.87Z"/><path class="cls-11" d="M83.45,268a9.12,9.12,0,1,1,9.11-9.12A9.13,9.13,0,0,1,83.45,268Zm0-16.26a7.15,7.15,0,1,0,7.14,7.14A7.15,7.15,0,0,0,83.45,251.69Z"/><path class="cls-11" d="M46.49,209.55a9.12,9.12,0,1,1,9.12-9.11A9.13,9.13,0,0,1,46.49,209.55Zm0-16.26a7.15,7.15,0,1,0,7.15,7.15A7.16,7.16,0,0,0,46.49,193.29Z"/><path class="cls-11" d="M90.84,327.57a14,14,0,1,1,14-14A14.06,14.06,0,0,1,90.84,327.57Zm0-26.11a12.07,12.07,0,1,0,12.07,12.07A12.08,12.08,0,0,0,90.84,301.46Z"/><path class="cls-10" d="M95.11,228a11.34,11.34,0,1,1-11.33-11.33A11.33,11.33,0,0,1,95.11,228Z"/><path class="cls-5" d="M71.79,248.65a2.47,2.47,0,1,1-2.47-2.47A2.47,2.47,0,0,1,71.79,248.65Z"/><circle class="cls-5" cx="49.12" cy="191.65" r="2.46"/><path class="cls-5" d="M116.79,249.47a2.46,2.46,0,1,1-2.46-2.46A2.46,2.46,0,0,1,116.79,249.47Z"/><path class="cls-5" d="M86.83,291.68a6,6,0,1,1-6-6A6,6,0,0,1,86.83,291.68Z"/><path class="cls-5" d="M55.05,255.71a4.62,4.62,0,1,1-4.62-4.62A4.62,4.62,0,0,1,55.05,255.71Z"/><path class="cls-5" d="M100.86,288.56a2.47,2.47,0,1,1-2.46-2.46A2.47,2.47,0,0,1,100.86,288.56Z"/><path class="cls-5" d="M90.52,338a4.78,4.78,0,1,1-4.77-4.78A4.78,4.78,0,0,1,90.52,338Z"/></svg>