<svg xmlns="http://www.w3.org/2000/svg" viewBox="0 0 582.47 348.67"><defs><style>.cls-1{fill:#fff;}.cls-2{fill:#2b0000;}.cls-3{font-size:21px;fill:#374785;font-family:Elephant-Regular, Elephant;letter-spacing:0.08em;}.cls-4{letter-spacing:0.06em;}.cls-5{letter-spacing:0.08em;}.cls-6{opacity:0.1;}.cls-7{opacity:0.13;}.cls-8{opacity:0.15;}.cls-9{opacity:0.25;}.cls-10{opacity:0.2;}.cls-11{opacity:0.5;}.cls-12{opacity:0.6;}.cls-13{opacity:0.7;}.cls-14{opacity:0.4;}.cls-15{opacity:0.3;}.cls-16{opacity:0.9;}.cls-17{opacity:0.35;}</style></defs><title>cloud</title><g id="spacbabll"><g id="Layer_100" data-name="Layer 100"><path class="cls-1" d="M530.82,239.65s41.27-17,31.43-48.53-31.43-43.19-31.43-43.19,10.8-43.41-23.89-72.8-57.27-34.45-91.24-24.75-34,7.28-34,7.28S370.56,6.22,313.78,15.44s-54.36,42.22-54.36,42.22S212.83,14.85,159,44.26s-55.29,65.33-55.29,65.33-65.55-6.31-72.34,54.35,40.76,56.78,40.76,56.78-9.7,66.49,40.29,75.23,48-9.71,48-9.71,18,48.33,88.81,55.71,64.06-9.17,66.49-10.11S338,321.12,338,321.12s37.86,13.65,54.84,6.86,30.58-18.44,30.58-18.44,33.62,9.74,62.6-4S531.42,260,530.82,239.65Z"/></g><g id="Layer_95" data-name="Layer 95"><path class="cls-2" d="M525.28,153a34.11,34.11,0,0,1,21.86,11.62,27.56,27.56,0,0,1,6.55,25.69.49.49,0,0,0,.94.25,32.4,32.4,0,0,0,.92-14.09c-.7-5-2-9.95-5-14.14A31,31,0,0,0,528,149.57a76.21,76.21,0,0,0,2.17-14.75,44,44,0,0,0-.43-8.11c-.49-2.92-1.3-5.75-1.94-8.63,0-.17-.3-.1-.27.08,1,5.21.68,11.05.21,16.32s-1.32,11-3.55,15.87C523.77,151.28,524,152.85,525.28,153Z"/><path class="cls-2" d="M389.15,308a47,47,0,0,0,13.72-3.34c8.62-3.54,17.13-9.18,21.77-17.5a1.37,1.37,0,0,0-2.14-1.65c-6.47,6.22-13.09,12-21.38,15.73a68.87,68.87,0,0,1-12.61,4.12c-4.43,1-9.08,1.92-13.64,1.42-.1,0-.1.15,0,.17C379.64,307.55,384.32,308.4,389.15,308Z"/><path class="cls-2" d="M126.13,272a65.39,65.39,0,0,1-6.69-4.34,57.55,57.55,0,0,1-11.25-11,56.28,56.28,0,0,1-11.82-31.57,97.27,97.27,0,0,1,0-9.81c.17-3.42.14-7.08,1-10.4.11-.38-.44-.51-.58-.16-1.23,3-2.75,5.74-3.61,8.87a40.88,40.88,0,0,0-1.3,9.28,55.21,55.21,0,0,0,23.27,46.33,51.23,51.23,0,0,0,8.37,4.83,33.23,33.23,0,0,0,8.93,3.05c.93.13,1.67-1.1.69-1.63C130.91,274.2,128.43,273.27,126.13,272Z"/><path class="cls-2" d="M334.35,308.3a154.38,154.38,0,0,1-47.9,12.64,141.64,141.64,0,0,1-49-4.36,170.57,170.57,0,0,1-26.6-9.68.32.32,0,0,0-.31.55c14,9.45,30.65,14.61,47.32,16.72a127.56,127.56,0,0,0,50.8-3.77,103.09,103.09,0,0,0,26.11-11.34A.44.44,0,0,0,334.35,308.3Z"/><path class="cls-2" d="M473.81,285.83a60.05,60.05,0,0,0,29.46-11.54,54.86,54.86,0,0,0,19.21-27.2c2-6.19,2.08-12.51,1.81-19a.18.18,0,0,0-.35,0,62.6,62.6,0,0,1-4.15,15.65,72.79,72.79,0,0,1-7.22,14.45A64.45,64.45,0,0,1,490.32,279a59.35,59.35,0,0,1-16.6,6.18C473.37,285.27,473.44,285.87,473.81,285.83Z"/><path class="cls-2" d="M575.34,173.85a36.34,36.34,0,0,0-3.24-8.53c-3.84-7.08-10.07-12.52-16.72-16.88-.33-.22-.7-.38-1-.59a35.94,35.94,0,0,0-3.42-1.95c-2.14-1.13-4.33-2.18-6.52-3.1-.55-.23-1.1-.43-1.64-.6-.24-.1-.49-.17-.73-.26,3.64-14.47,2-31.15-2.61-45.09a89.39,89.39,0,0,0-26-39.59,92,92,0,0,0-41.52-20.69c-17.2-3.52-34.32-1.24-51.08,3.45-7.19,2-15.88,5-22.91,9.71a17.62,17.62,0,0,0-2.38-5.92A32.54,32.54,0,0,0,390.32,37c-.39-.41-.83-.75-1.25-1.12C383.34,25,373,17.54,361.8,12.92c-24.46-10.13-55.47-10.53-77.15,6.22-8,6.2-15.07,14.91-18.37,24.73-17.8-18.52-47.85-22.67-72.08-18.21-26.59,4.9-54.86,19.61-70.48,42.46-1.37,1.39-2.7,2.82-4,4.32a68.72,68.72,0,0,0-9.24,14c-1.19,2.45-2.27,5-3.26,7.51a30.16,30.16,0,0,0-1.82,5.51c-19.35-4.3-42.51,7.61-54.77,21.83a61.73,61.73,0,0,0-14.22,48.63,63.47,63.47,0,0,0,1.37,9.35,65,65,0,0,0,8.34,20.13A60.81,60.81,0,0,0,74.06,223.3c-.18.9-.36,1.79-.48,2.77a60.68,60.68,0,0,0,35.27,62.62,57.63,57.63,0,0,0,10.41,3.51,61.37,61.37,0,0,0,18.88,3,60,60,0,0,0,22-4.12,36.52,36.52,0,0,0,3.84,2.55c.22.13.47.23.7.36,4.85,12.4,19.23,21,30.82,26.53a87.24,87.24,0,0,0,29.55,14,150.41,150.41,0,0,0,15,3,122.76,122.76,0,0,0,13.58,3.17,124.44,124.44,0,0,0,35.36,1.5,109.39,109.39,0,0,0,30.53-7.9c10-4.25,18.7-10.14,27.11-17,1,.63,2.07,1.21,3.08,1.76a65.33,65.33,0,0,0,12.74,5.21,61.51,61.51,0,0,0,17.88,2.36,109.12,109.12,0,0,0,21.08-.13c14.3-1.72,25.39-10.18,35.87-19.37a18.62,18.62,0,0,0,3.06,1.83,31.63,31.63,0,0,0,7.07,2.24,72.1,72.1,0,0,0,16,1.86,78.73,78.73,0,0,0,31.23-6.4c18.49-8,34.26-23.36,43.29-41.28a88.71,88.71,0,0,0,6-15.26,65.37,65.37,0,0,0,2.84-13.69c6.35-2,13.41-9.46,16.28-12.87a67.59,67.59,0,0,0,13.34-26.17C578.47,189.48,578.64,181.24,575.34,173.85Zm-145.56,127a3.75,3.75,0,0,0-.51-.38s.06-.11.09-.15l.68.42Zm-86.72,6.51a2.64,2.64,0,0,0-2.6,2.6c0,.21-.12.43-.16.65-1.18,1.27-2.41,2.49-3.69,3.64-.46.39-.89.82-1.37,1.2l-.77.62a82.54,82.54,0,0,1-17.57,10.23c-13,5.23-27.6,7.17-41.28,7.2-26.47.06-55.48-6.28-76.75-22.84a78.72,78.72,0,0,1-14.39-14.33c-4.11-5.44-7.12-12-11.83-16.95,0,0-.05,0-.07-.05a4.05,4.05,0,0,0-6.05-1.77c-18.55,11.89-45,10.81-61.81-3.9-16.31-14.27-22.29-39.29-13.78-59.3,1-2.48-.13-5.41-3.14-5.47C64.42,208.45,45.34,187,44,164.49a52.57,52.57,0,0,1,7-29.38,64.82,64.82,0,0,0-4.91,18.8c-.87,8.53.3,17,4.51,24.53A41.74,41.74,0,0,0,67.12,194.6a51.68,51.68,0,0,0,27.55,5.83.43.43,0,0,0,0-.86c-8.2-.9-15.91-2.75-23.24-6.59a42.79,42.79,0,0,1-16.07-14.32c-8.47-13-6.48-30-.66-43.68a77.7,77.7,0,0,1,8.21-14.28,58.83,58.83,0,0,1,17.31-10.58c9.66-3.8,23.71-6.5,33-.29a8.5,8.5,0,0,0,3.47,2.78c3.2,1.42,7-2.47,4-5.23-.44-.4-.89-.77-1.34-1.15-2.5-3.11.57-11.62,1.4-14.43a68.37,68.37,0,0,1,8-17.46c6.84-10.79,16.82-19.12,27.73-25.59,22.18-13.14,49.18-20.32,74.7-14.12,12.54,3,23.35,9.41,33.31,17.35a.09.09,0,0,0,0,.05c-.4,3.91,5.54,4.63,6.81,1.22a2.39,2.39,0,0,0,.64-2c2.64-9.07,6.71-16.77,13.85-23.33a55.74,55.74,0,0,1,28.5-13.44c11.55-2,23.6-.79,34.85,2.27,10.75,2.92,21.25,7.77,28.74,16.24,7.87,8.89,11.34,20.45,6.5,31.65a.62.62,0,0,0,.69.89c.24,0,.43-.13.66-.19a0,0,0,0,0,0,0c-.08.3.32.57.54.31l.63-.67a9.07,9.07,0,0,0,5.41-5.39,40.54,40.54,0,0,1,8.53-5.89,76.46,76.46,0,0,1,18.7-6.18c14.81-3.17,30.84-5.43,45.91-2.94,28.11,4.65,53,23.49,63.39,50.24a89,89,0,0,1,5.64,23c.87,8.43,0,16.49-1,24.85-.33,2.77,2.08,4.15,4.39,4a10.43,10.43,0,0,0,3.29,2.6q4.2,2.05,8.42,4.06c1.3,1,2.62,2,3.87,3.08,4.9,4.12,9.47,8.7,12.16,14.61a29.88,29.88,0,0,1,2.47,11.54,50.4,50.4,0,0,1-6.59,25c-4.93,8.59-16.59,20.84-27.67,17.54-2-.58-4.52,1.51-3.64,3.65,7.54,18.26-1.47,38.48-15,51.31-13.8,13-32.61,20.09-51.44,20.94a87.52,87.52,0,0,1-16.34-.75,74,74,0,0,1-7.65-1.55c-2.55-.65-7.26-1.42-8.85-3.69-.94-1.33-3.07-2-4.31-.55-5,5.84-10,11.27-16.63,15.37a59,59,0,0,1-21.15,7.88,55.55,55.55,0,0,1-23.58-1.22,54.64,54.64,0,0,1-11.46-4.38C350.29,310.32,347,307.61,343.06,307.35Z"/><path class="cls-2" d="M41,99.33c1.54-1.38,3.11-2.75,4.71-4.07s3.29-3.56,5.2-4.57c.73-.39.09-1.42-.63-1.09a19.72,19.72,0,0,1-3.85.89,15.68,15.68,0,0,0-2.7,1.08,43.25,43.25,0,0,0-5.82,3.19,50.61,50.61,0,0,0-10.24,9,62.14,62.14,0,0,0-7.6,11,50.4,50.4,0,0,0-2.78,6c-.06.17-.11.35-.17.52a47.32,47.32,0,0,1,3.31-17A54,54,0,0,1,33.49,84.67c.31-.3,0-.92-.44-.76C28,85.79,22.86,87.36,18.08,90a75.21,75.21,0,0,0-11,7.4,41.93,41.93,0,0,1,9.13-15.27.58.58,0,0,0-.82-.82A39.77,39.77,0,0,0,4.6,99.67a.84.84,0,0,0,1.4.81,77.06,77.06,0,0,1,12.82-9.23,66.73,66.73,0,0,1,12.49-5.84A44.27,44.27,0,0,0,18.8,103.08a50.27,50.27,0,0,0-3,11.77c-.56,4.35-.2,8.57-.15,12.93a1.17,1.17,0,0,0,2.17.59c4.36-7.12,8.72-14.33,14.42-20.49C35,104.87,37.93,102.07,41,99.33Z"/><path class="cls-2" d="M515.69,47.14A86.44,86.44,0,0,1,527.6,57.68a87.34,87.34,0,0,1,9.75,12.51c1.37,2.15,2.61,4.37,3.8,6.62,1.28,2.41,2.31,5.11,3.88,7.33.85,1.19,2.7.25,2.23-1a23.51,23.51,0,0,0-1.94-6.1c-.11-.54-.22-1.08-.34-1.58-.56-2.32-1.12-4.65-1.67-7-1-4.3-1.74-8.68-2.87-13a33.27,33.27,0,0,0-2.38-6.49,45.74,45.74,0,0,1,6.53,7.88c.36.55,1.22.06.88-.51A39.09,39.09,0,0,0,535,44.81a11.88,11.88,0,0,0-4.43-2.89s0,0,0,0h0l-.14-.07c-.65-.22-1,.76-.46,1.1a42,42,0,0,1,5.15,3.6c2.68,3.21,4,7.73,5,11.69s1.8,7.88,2.58,11.84c.19,1,.39,2,.58,3-.87-1.51-1.79-3-2.66-4.35a80.86,80.86,0,0,0-10.35-13.16A84.51,84.51,0,0,0,517.74,45c-4.49-3.09-9.74-6.16-15.09-7.36a.42.42,0,0,0-.32.76C506.69,41.46,511.39,44,515.69,47.14Z"/><path class="cls-2" d="M528.19,299.07C520.6,305,513.05,311,505.08,316.39c-7.24,4.91-16.4,12.85-25.78,11.08a.77.77,0,0,0-.41,1.48c9.27,3.91,19.07-3.75,26.22-8.89A189.34,189.34,0,0,0,527,302c-3.72,9.27-10.11,16.6-18.18,22.59-.42.32-.05,1,.43.73,9.56-5.49,16.54-15.31,20-25.63C529.51,299,528.65,298.71,528.19,299.07Z"/><path class="cls-2" d="M504.91,328.42a0,0,0,0,0,0,.05c3,.08,6,.16,9.05.14a.17.17,0,0,0,0-.33C510.94,328.26,507.93,328.34,504.91,328.42Z"/><text class="cls-3"><tspan x="127.31" y="150.62">Hallo ! Mein Name ist Rebecca </tspan><tspan x="127.31" y="182.62">ich werde die folgenden F</tspan><tspan class="cls-4" x="431.7" y="182.62">r</tspan><tspan class="cls-5" x="443.76" y="182.62">agen </tspan><tspan x="127.31" y="214.62">präsentieren und beantworten.</tspan></text></g></g><g id="girl"><g id="Layer_88" data-name="Layer 88"><path class="cls-2" d="M201.55,306.41c1.12-.76,2.36-1.37,3.5-2.1s2.31-1.49,3.5-2.17a74.84,74.84,0,0,1,7.36-3.75c1.05-.45.28-2.31-.79-1.87a41,41,0,0,0-7.52,4,37.53,37.53,0,0,0-3.29,2.46,20.05,20.05,0,0,0-1.59,1.47c-.5.54-.91,1.14-1.4,1.68-.14.15,0,.44.23.3Z"/><path class="cls-2" d="M218,307.55c2-1.12,3.94-2.19,5.89-3.32s3.82-2.36,5.66-3.69a.5.5,0,0,0-.51-.87A66.62,66.62,0,0,0,223.2,303c-1.9,1.22-3.75,2.5-5.64,3.73a.45.45,0,0,0,.45.78Z"/><path class="cls-2" d="M226.13,314.05c3.79-1.92,7.64-3.68,11.43-5.6.69-.35.08-1.39-.61-1-3.77,1.94-7.45,4-11.22,5.95-.46.23,0,.92.4.69Z"/><path class="cls-2" d="M248.11,313.34c.86-.47,1.71-1,2.6-1.38s1.86-.84,2.78-1.3c1.79-.88,3.55-1.83,5.32-2.76.87-.46.09-1.81-.78-1.33-1.73,1-3.48,2-5.19,3-.84.51-1.66,1.05-2.49,1.58s-1.77,1-2.66,1.49c-.47.26-.05,1,.42.72Z"/><path class="cls-2" d="M261.06,314.07c1-.53,1.91-1.05,2.89-1.53s1.95-1,2.91-1.51c.7-.38.07-1.48-.63-1.07-.94.55-1.86,1.13-2.77,1.73s-1.85,1.16-2.8,1.71a.39.39,0,0,0,.4.67Z"/><path class="cls-2" d="M281.4,314.15,292,309.29c.66-.3.09-1.28-.57-1l-10.54,4.89c-.64.29-.09,1.23.55.94Z"/><path class="cls-2" d="M355.2,304.28c4.71-2.82,9.37-5.66,13.87-8.8.61-.43.07-1.41-.59-1-4.71,2.82-9.22,5.91-13.72,9.07-.44.31,0,1,.44.74Z"/><path class="cls-2" d="M377.81,301.65q5.34-3.56,10.72-7c.6-.38,0-1.35-.55-.94q-5.18,3.84-10.38,7.6c-.22.16,0,.52.21.37Z"/><path class="cls-2" d="M398.84,293.41a.84.84,0,0,0,0-1.68.84.84,0,0,0,0,1.68Z"/><path class="cls-2" d="M453.59,284.64a13.49,13.49,0,0,0,3.89-1.62,37.1,37.1,0,0,0,3.63-2.18,40.56,40.56,0,0,0,6.51-5.55,1.11,1.11,0,0,0-1.57-1.57c-2,1.82-4.18,3.52-6.37,5.14-1.07.8-2.17,1.57-3.28,2.32a24.4,24.4,0,0,0-3.43,2.39.64.64,0,0,0,.62,1.07Z"/><path class="cls-2" d="M468.91,280a27.92,27.92,0,0,0,4.9-2.72,33.63,33.63,0,0,0,4.31-3.68.86.86,0,0,0-1.22-1.22c-1.3,1.27-2.66,2.49-4,3.65s-2.78,2.35-4.25,3.43a.31.31,0,0,0,.31.54Z"/><path class="cls-2" d="M482.07,275.14l4.95-4a.72.72,0,0,0,0-1,.73.73,0,0,0-1,0l-4.79,4.14a.61.61,0,0,0,0,.86.62.62,0,0,0,.85,0Z"/><path class="cls-2" d="M131,271.58q2.49-1.11,5-2.18c1.67-.72,3.3-1.51,4.94-2.32.91-.44.11-1.83-.8-1.36-1.61.84-3.21,1.67-4.77,2.6s-3.13,1.83-4.71,2.72c-.35.21,0,.7.32.54Z"/><path class="cls-2" d="M142.41,275.72c4.38-2.62,8.86-5.09,13.08-8,.67-.45.07-1.51-.63-1.09-4.4,2.6-8.55,5.61-12.79,8.45-.36.25,0,.82.34.59Z"/><path class="cls-2" d="M264.2,46.1c-5-10.66-15.64-17-26.53-20.27-12.43-3.76-25.62-3.94-38.45-2.7a153,153,0,0,0-43.9,11,113.39,113.39,0,0,0-20.13,10.38A58.4,58.4,0,0,0,120.4,59.27a101.05,101.05,0,0,0-11,20.71,143.91,143.91,0,0,0-7.6,25.38c-.43,2.11,2.81,3,3.24.89,2.87-14.09,7.64-28.25,15-40.66a59.3,59.3,0,0,1,12.63-15.35c5.52-4.66,12.15-8,18.68-11a150.78,150.78,0,0,1,41.84-12.2c12.59-1.77,25.72-2.22,38.23.41S255.54,36.13,263,46.79a.68.68,0,0,0,1.18-.69Z"/><path class="cls-2" d="M105.87,104.31c-6.6-1.39-13.6-1.09-20.24-.09A79.77,79.77,0,0,0,65.78,110a77.39,77.39,0,0,0-31.42,24.7c-7.89,10.67-12.61,23.88-12,37.23.61,12.61,5.73,25.21,15,33.89a51,51,0,0,0,20,11.13,80.11,80.11,0,0,0,11.57,2.54,67.37,67.37,0,0,0,11.86.95c2-.07,2.63-3.31.49-3.62-6.67-.94-13.31-1.31-19.87-3A52.45,52.45,0,0,1,44,206c-9.87-7-15.85-18.56-17.47-30.42C23,149.86,40.42,125.38,62.54,114a78.48,78.48,0,0,1,20.88-7.23c7.41-1.44,14.81-1.52,22.33-1.5a.47.47,0,0,0,.12-.93Z"/><path class="cls-2" d="M265.27,46a47.55,47.55,0,0,1,5-6c1.63-1.78,3.32-3.48,5.05-5.15a79.45,79.45,0,0,1,11.33-9.11,88.8,88.8,0,0,1,56.85-14.1C354.06,12.64,365,16,373.22,22.92a40.79,40.79,0,0,1,10.33,12.87,35.23,35.23,0,0,1,3.59,15.92c0,2.79,4,2.7,4.26,0,.94-10.5-4.52-21.19-11.68-28.54-8-8.16-18.82-12.86-30-14.72a89.3,89.3,0,0,0-61.31,12.48,75,75,0,0,0-13.55,10.84,54.37,54.37,0,0,0-5.41,6.42c-1.74,2.42-3.05,5-4.6,7.55-.15.23.22.44.37.21Z"/><path class="cls-2" d="M382.72,55.14c7.08-3.31,13.78-7.39,20.9-10.65a90.75,90.75,0,0,1,21.92-7.27c15.23-2.64,31.42,0,45.95,4.82,26.18,8.68,49.46,26.85,59.76,53,5.74,14.54,7.35,30.64,3.49,45.87-.61,2.42,3.14,3.45,3.74,1,7-28.5-3.9-59-24.53-79.17a105.54,105.54,0,0,0-36.19-22.9c-14.56-5.58-30.9-8.84-46.51-7.42a73.87,73.87,0,0,0-26.37,7.64,128.11,128.11,0,0,0-22.64,14.43c-.38.3.1.8.48.63Z"/><path class="cls-2" d="M423.93,305.81c2.58,1.16,5,2.52,7.66,3.56a61.26,61.26,0,0,0,8.35,2.63,79.92,79.92,0,0,0,17,2.13,90.4,90.4,0,0,0,33.86-5.95c20.92-8,38.08-23.93,48.44-43.72a96.93,96.93,0,0,0,10.57-35.32c.19-1.88-2.7-1.83-2.92,0A97.3,97.3,0,0,1,520,285a87.43,87.43,0,0,1-58.56,25.87,94.81,94.81,0,0,1-18.59-1.07c-3.05-.47-6.08-1.12-9.09-1.82a55.48,55.48,0,0,1-9.49-2.76c-.42-.18-.79.43-.37.62Z"/><path class="cls-2" d="M76.06,251.89a65.19,65.19,0,0,0,21.4,37.32,48.36,48.36,0,0,0,19.45,10.6,68.51,68.51,0,0,0,21.68,1.92,121.77,121.77,0,0,0,25.25-3.91c2.57-.71,1.45-4.34-1.08-3.92-7.11,1.17-14.08,2.85-21.28,3.55a75.1,75.1,0,0,1-20.64-.46,47.69,47.69,0,0,1-19.62-8.16A69.12,69.12,0,0,1,86.06,273.5a53.87,53.87,0,0,1-9.78-21.67c0-.15-.25-.09-.22.06Z"/></g></g></svg>