<svg id="Layer_1" data-name="Layer 1" xmlns="http://www.w3.org/2000/svg" viewBox="0 0 501 468"><defs><style>.cls-1{fill:#00b25a;}.cls-2{fill:#f47b20;}.cls-3{fill:#77278b;}.cls-4{fill:#565656;}.cls-5{fill:#e31b23;}.cls-6{fill:#fd0;}.cls-7{fill:#0067b1;}.cls-8{fill:#fcb034;}.cls-9{font-size:21.08px;fill:#a8d0e6;}.cls-15,.cls-18,.cls-9{font-family:MyriadPro-Regular, Myriad Pro;}.cls-10{fill:#f05133;}.cls-11{fill:#009fc2;}.cls-12{fill:#ad208e;}.cls-13{fill:#492f92;}.cls-14{fill:#7bc143;}.cls-15,.cls-18{font-size:20px;}.cls-15{fill:#24305e;}.cls-16{letter-spacing:-0.02em;}.cls-17{letter-spacing:0em;}.cls-18{fill:#fff;}.cls-19{letter-spacing:0.01em;}.cls-20{letter-spacing:0em;}</style></defs><title>Artboard 1</title><polygon class="cls-1" points="86.77 325.76 247.6 45.16 84.68 139.21 86.77 325.76"/><polygon class="cls-2" points="252.63 45.15 413.46 325.76 415.55 139.21 252.63 45.15"/><polygon class="cls-3" points="409.81 332.04 90.42 332.04 250.12 425.71 409.81 332.04"/><polygon class="cls-4" points="249.66 233.2 249.56 233.36 249.56 233.36 249.56 233.36 249.2 233.97 250.11 233.97 249.66 233.2"/><polygon class="cls-5" points="331.01 187.28 251.46 234.73 251.46 329.36 412.43 329.36 331.01 187.28"/><polygon class="cls-6" points="250.24 232.2 250.11 232.41 329.67 184.96 250.12 46.15 170.33 185.36 250.24 232.2"/><polygon class="cls-7" points="169 187.68 87.8 329.36 248.78 329.36 248.78 234.46 169 187.68"/><path class="cls-8" d="M301.26,49a192.25,192.25,0,0,1,84.05,48.58l26.5-26.5A229.74,229.74,0,0,0,311,12.83Z"/><path class="cls-2" d="M387.21,99.52a192.34,192.34,0,0,1,48.58,84.05l36.21-9.7A229.8,229.8,0,0,0,413.71,73Z"/><path class="cls-6" d="M191.86,12.13l9.7,36.21a194,194,0,0,1,97.11,0l9.7-36.2a231.49,231.49,0,0,0-116.51,0Z"/><text class="cls-9" transform="matrix(0.78, -0.54, 0.57, 0.82, 113.36, 46.45)">T</text><text class="cls-9" transform="matrix(0.8, -0.51, 0.54, 0.84, 120.21, 41.65)">e</text><text class="cls-9" transform="translate(128.55 36.34) rotate(-30.55) scale(0.95 1)">r</text><text class="cls-9" transform="translate(134.2 33.02) rotate(-29.09) scale(0.95 1)">i</text><text class="cls-9" transform="translate(138.19 30.78) rotate(-27.66) scale(0.95 1)">t</text><text class="cls-9" transform="translate(143.93 27.74) rotate(-25.58) scale(0.95 1)">ä</text><text class="cls-9" transform="translate(152.52 23.65) rotate(-23.5) scale(0.95 1)">r</text><text class="cls-9" transform="matrix(-0.09, -0.94, 1, -0.1, 19.26, 258.46)">T</text><text class="cls-9" transform="matrix(-0.06, -0.95, 1, -0.06, 18.4, 250.14)">e</text><text class="cls-9" transform="translate(17.82 240.27) rotate(-91.41) scale(0.95 1)">r</text><text class="cls-9" transform="translate(17.67 233.72) rotate(-89.95) scale(0.95 1)">i</text><text class="cls-9" transform="matrix(0.02, -0.95, 1, 0.03, 17.66, 229.15)">t</text><text class="cls-9" transform="translate(17.8 222.64) rotate(-86.44) scale(0.95 1)">ä</text><text class="cls-9" transform="translate(18.42 213.16) rotate(-84.36) scale(0.95 1)">r</text><path class="cls-10" d="M472.7,176.46l-36.21,9.7a193.83,193.83,0,0,1,0,97.11L472.7,293a231.49,231.49,0,0,0,0-116.51Z"/><path class="cls-11" d="M27.53,293l36.21-9.71a193.79,193.79,0,0,1,0-97.1l-36.21-9.7a231.49,231.49,0,0,0,0,116.51Z"/><path class="cls-12" d="M385.31,371.8a192.26,192.26,0,0,1-84.05,48.59L311,456.6a229.74,229.74,0,0,0,100.85-58.29Z"/><path class="cls-7" d="M113,369.91a192.32,192.32,0,0,1-48.58-84.06l-36.21,9.7A229.78,229.78,0,0,0,86.52,396.41Z"/><path class="cls-3" d="M308.37,457.29l-9.7-36.2a193.79,193.79,0,0,1-97.1,0l-9.71,36.2a231.49,231.49,0,0,0,116.51,0Z"/><path class="cls-13" d="M199,420.39a192.24,192.24,0,0,1-84.06-48.59l-26.5,26.5a229.7,229.7,0,0,0,100.86,58.3Z"/><path class="cls-5" d="M435.79,285.85a192.32,192.32,0,0,1-48.58,84.06l26.5,26.5A229.78,229.78,0,0,0,472,295.55Z"/><path class="cls-14" d="M114.92,97.62A192.22,192.22,0,0,1,199,49l-9.7-36.21A229.68,229.68,0,0,0,88.42,71.12Z"/><path class="cls-1" d="M64.44,183.57a192.34,192.34,0,0,1,48.58-84L86.52,73A229.83,229.83,0,0,0,28.23,173.87Z"/><text class="cls-9" transform="translate(154.25 446.21) rotate(-154.84) scale(0.95 1)">T</text><text class="cls-9" transform="matrix(-0.84, -0.44, 0.46, -0.89, 146.66, 442.68)">e</text><text class="cls-9" transform="matrix(-0.83, -0.47, 0.49, -0.87, 137.89, 438.12)">r</text><text class="cls-9" transform="translate(132.19 434.88) rotate(-149.09) scale(0.95 1)">i</text><text class="cls-9" transform="matrix(-0.8, -0.51, 0.53, -0.84, 128.26, 432.55)">t</text><text class="cls-9" transform="translate(122.75 429.09) rotate(-145.57) scale(0.95 1)">ä</text><text class="cls-9" transform="translate(114.92 423.7) rotate(-143.5) scale(0.95 1)">r</text><text class="cls-9" transform="matrix(0.08, 0.95, -1, 0.08, 481.51, 210.92)">T</text><text class="cls-9" transform="matrix(0.04, 0.95, -1, 0.05, 482.25, 219.26)">e</text><text class="cls-9" transform="translate(482.68 229.14) rotate(89.46) scale(0.95 1)">r</text><text class="cls-9" transform="translate(482.73 235.69) rotate(90.91) scale(0.95 1)">i</text><text class="cls-9" transform="translate(482.67 240.26) rotate(92.34) scale(0.95 1)">t</text><text class="cls-9" transform="matrix(-0.07, 0.95, -1, -0.08, 482.43, 246.76)">ä</text><text class="cls-9" transform="translate(481.67 256.24) rotate(96.51) scale(0.95 1)">r</text><text class="cls-9" transform="translate(345.19 22.84) rotate(25.21) scale(0.95 1)">T</text><text class="cls-9" transform="matrix(0.84, 0.44, -0.46, 0.89, 352.78, 26.37)">e</text><text class="cls-9" transform="translate(361.54 30.95) rotate(29.51) scale(0.95 1)">r</text><text class="cls-9" transform="translate(367.24 34.19) rotate(30.97) scale(0.95 1)">i</text><text class="cls-9" transform="matrix(0.8, 0.51, -0.54, 0.84, 371.17, 36.53)">t</text><text class="cls-9" transform="matrix(0.78, 0.54, -0.57, 0.82, 376.67, 39.99)">ä</text><text class="cls-9" transform="translate(384.49 45.39) rotate(36.56) scale(0.95 1)">r</text><text class="cls-9" transform="matrix(-0.78, 0.53, -0.56, -0.83, 385.98, 423.91)">T</text><text class="cls-9" transform="matrix(-0.8, 0.5, -0.53, -0.85, 379.08, 428.65)">e</text><text class="cls-9" transform="matrix(-0.82, 0.47, -0.5, -0.87, 370.69, 433.88)">r</text><text class="cls-9" transform="matrix(-0.83, 0.45, -0.48, -0.88, 365.01, 437.15)">i</text><text class="cls-9" transform="matrix(-0.84, 0.43, -0.46, -0.89, 361, 439.34)">t</text><text class="cls-9" transform="matrix(-0.86, 0.4, -0.42, -0.91, 355.23, 442.33)">ä</text><text class="cls-9" transform="translate(346.6 446.33) rotate(157.06) scale(0.95 1)">r</text><text class="cls-15" transform="translate(223 162.64)"><tspan class="cls-16">P</tspan><tspan class="cls-17" x="10.32" y="0">r</tspan><tspan x="16.94" y="0">imär</tspan></text><text class="cls-15" transform="translate(288 281.64)"><tspan class="cls-16">P</tspan><tspan class="cls-17" x="10.32" y="0">r</tspan><tspan x="16.94" y="0">imär</tspan></text><text class="cls-15" transform="translate(157 281.64)"><tspan class="cls-16">P</tspan><tspan class="cls-17" x="10.32" y="0">r</tspan><tspan x="16.94" y="0">imär</tspan></text><text class="cls-18" transform="translate(94 162.64)"><tspan class="cls-19">S</tspan><tspan class="cls-20" x="9.98" y="0">e</tspan><tspan class="cls-17" x="20" y="0">k</tspan><tspan x="29.46" y="0">undär</tspan></text><text class="cls-18" transform="translate(328 162.64)"><tspan class="cls-19">S</tspan><tspan class="cls-20" x="9.98" y="0">e</tspan><tspan class="cls-17" x="20" y="0">k</tspan><tspan x="29.46" y="0">undär</tspan></text><text class="cls-18" transform="translate(211 372.64)"><tspan class="cls-19">S</tspan><tspan class="cls-20" x="9.98" y="0">e</tspan><tspan class="cls-17" x="20" y="0">k</tspan><tspan x="29.46" y="0">undär</tspan></text></svg>