<svg id="Layer_1" data-name="Layer 1" xmlns="http://www.w3.org/2000/svg" viewBox="0 0 743 282"><defs><style>.cls-1,.cls-11{opacity:0.8;}.cls-10,.cls-11,.cls-12,.cls-13,.cls-2,.cls-3,.cls-4,.cls-5,.cls-6,.cls-7,.cls-8,.cls-9{fill:none;stroke-miterlimit:10;}.cls-2{stroke:#00b25a;}.cls-11,.cls-2,.cls-9{stroke-width:3px;}.cls-3{stroke:#e31b23;}.cls-10,.cls-3,.cls-8{stroke-width:5px;}.cls-4{stroke:#009fc2;}.cls-12,.cls-13,.cls-4,.cls-5,.cls-6,.cls-7{stroke-width:2px;}.cls-5{stroke:#7bc143;}.cls-6{stroke:#f05133;}.cls-7{stroke:#ad208e;}.cls-8{stroke:#0067b1;}.cls-9{stroke:#77278b;}.cls-10{stroke:#fd0;}.cls-11{stroke:#f47b20;}.cls-12{stroke:#492f92;}.cls-13{stroke:#fcb034;}.cls-14,.cls-16{fill:#f5be37;}.cls-15,.cls-17{fill:#f76c6c;}.cls-16,.cls-17{font-size:40px;font-family:MicrosoftSansSerif, Microsoft Sans Serif;}</style></defs><title>colorwheel</title><g class="cls-1"><ellipse class="cls-2" cx="348.22" cy="219.46" rx="14.3" ry="14.4"/></g><g class="cls-1"><ellipse class="cls-2" cx="348.22" cy="232.46" rx="14.3" ry="14.4"/></g><g class="cls-1"><ellipse class="cls-3" cx="348.22" cy="53.54" rx="14.3" ry="14.4"/></g><g class="cls-1"><ellipse class="cls-4" cx="303.33" cy="209.94" rx="14.3" ry="14.4"/></g><g class="cls-1"><ellipse class="cls-4" cx="312.33" cy="198.94" rx="14.3" ry="14.4"/></g><g class="cls-1"><ellipse class="cls-4" cx="294.33" cy="220.94" rx="14.3" ry="14.4"/></g><g class="cls-1"><ellipse class="cls-5" cx="393.26" cy="209.94" rx="14.3" ry="14.4"/></g><g class="cls-1"><ellipse class="cls-5" cx="384.26" cy="198.94" rx="14.3" ry="14.4"/></g><g class="cls-1"><ellipse class="cls-5" cx="402.26" cy="221.94" rx="14.3" ry="14.4"/></g><g class="cls-1"><ellipse class="cls-6" cx="393.43" cy="65.27" rx="14.3" ry="14.4"/></g><g class="cls-1"><ellipse class="cls-6" cx="402.43" cy="54.27" rx="14.3" ry="14.4"/></g><g class="cls-1"><ellipse class="cls-6" cx="384.43" cy="76.27" rx="14.3" ry="14.4"/></g><g class="cls-1"><ellipse class="cls-7" cx="303.33" cy="66.27" rx="14.25" ry="14.23"/></g><g class="cls-1"><ellipse class="cls-7" cx="294.33" cy="55.27" rx="14.25" ry="14.23"/></g><g class="cls-1"><ellipse class="cls-7" cx="312.33" cy="76.27" rx="14.25" ry="14.23"/></g><g class="cls-1"><ellipse class="cls-8" cx="275.22" cy="176.15" rx="14.3" ry="14.4"/></g><g class="cls-1"><ellipse class="cls-9" cx="277.5" cy="96.73" rx="14.3" ry="14.4"/></g><g class="cls-1"><ellipse class="cls-9" cx="265.5" cy="88.73" rx="14.3" ry="14.4"/></g><g class="cls-1"><ellipse class="cls-10" cx="420.48" cy="176.15" rx="14.3" ry="14.4"/></g><g class="cls-1"><ellipse class="cls-11" cx="420.72" cy="95.73" rx="14.3" ry="14.4"/></g><g class="cls-1"><ellipse class="cls-11" cx="432.72" cy="87.73" rx="14.3" ry="14.4"/></g><g class="cls-1"><ellipse class="cls-12" cx="264.56" cy="136.45" rx="14.3" ry="14.4"/></g><g class="cls-1"><ellipse class="cls-12" cx="248.56" cy="136.45" rx="14.3" ry="14.4"/></g><g class="cls-1"><ellipse class="cls-12" cx="277.56" cy="136.45" rx="14.3" ry="14.4"/></g><g class="cls-1"><ellipse class="cls-13" cx="434.91" cy="136.79" rx="14.3" ry="14.4"/></g><g class="cls-1"><ellipse class="cls-13" cx="419.91" cy="135.79" rx="14.3" ry="14.4"/></g><g class="cls-1"><ellipse class="cls-13" cx="448.91" cy="137.79" rx="14.3" ry="14.4"/></g><path class="cls-14" d="M335,10a254.27,254.27,0,0,0-36.5,10.48,129.19,129.19,0,0,0-33.81,15.84c-10.24,7-19.23,15.87-25.46,26.54a76.55,76.55,0,0,0-7.46,16.88c-1.87,5.92-3.12,12.09-4.68,18.36s-3.64,12.65-7.08,18.42a53.13,53.13,0,0,1-13.34,14.79,67.65,67.65,0,0,1-17.39,9.39l-4.67,1.54c-.39.12-.78.26-1.17.37l-1.19.3-2.38.59c-3.15.88-6.37,1.33-9.57,1.92-.8.16-1.61.26-2.41.34l-2.42.27c-1.61.17-3.22.37-4.83.52-3.23.15-6.45.39-9.68.47s-6.45,0-9.67,0c-1.6-.07-3.21-.16-4.82-.21s-3.21-.08-4.81-.25A312.86,312.86,0,0,1,94,139c12.71,1.25,25.37,2.37,38,2.53,1.58,0,3.15.11,4.72.21s3.14.16,4.71.25c3.14.06,6.28,0,9.42,0s6.26-.31,9.39-.45c1.56-.15,3.1-.34,4.66-.51l2.32-.26a19.93,19.93,0,0,0,2.32-.33c3.06-.56,6.15-1,9.13-1.82l2.26-.56,1.13-.28c.37-.11.73-.24,1.1-.36l4.4-1.44a63.07,63.07,0,0,0,16.07-8.66A48.47,48.47,0,0,0,215.71,114a63.38,63.38,0,0,0,6.53-17.1c1.52-6.07,2.79-12.4,4.75-18.63a82.08,82.08,0,0,1,7.94-17.94c6.64-11.36,16.2-20.8,27-28.12A136.87,136.87,0,0,1,297,15.67,196.53,196.53,0,0,1,335,10Z"/><path class="cls-15" d="M555,138a254.27,254.27,0,0,0-36.5,10.48,129.19,129.19,0,0,0-33.81,15.84c-10.24,7-19.23,15.87-25.46,26.54a76.55,76.55,0,0,0-7.46,16.88c-1.87,5.92-3.12,12.09-4.68,18.36s-3.64,12.65-7.08,18.42a53.13,53.13,0,0,1-13.34,14.79,67.65,67.65,0,0,1-17.39,9.39l-4.67,1.54c-.39.12-.78.26-1.17.37l-1.19.3-2.38.59c-3.15.88-6.37,1.33-9.57,1.92-.8.16-1.61.26-2.41.34l-2.42.27c-1.61.17-3.22.37-4.83.52-3.23.15-6.45.39-9.68.47s-6.45,0-9.67,0c-1.6-.07-3.21-.16-4.82-.21s-3.21-.08-4.81-.25A312.86,312.86,0,0,1,314,267c12.71,1.25,25.37,2.37,38,2.53,1.58,0,3.15.11,4.72.21s3.14.16,4.71.25c3.14.06,6.28,0,9.42,0s6.26-.31,9.39-.45c1.56-.15,3.1-.34,4.66-.51l2.32-.26a19.93,19.93,0,0,0,2.32-.33c3.06-.56,6.15-1,9.13-1.82l2.26-.56,1.13-.28c.37-.11.73-.24,1.1-.36l4.4-1.44a63.07,63.07,0,0,0,16.07-8.66A48.47,48.47,0,0,0,435.71,242a63.38,63.38,0,0,0,6.53-17.1c1.52-6.07,2.79-12.4,4.75-18.63a82.08,82.08,0,0,1,7.94-17.94c6.64-11.36,16.2-20.8,27-28.12A136.87,136.87,0,0,1,517,143.67,196.53,196.53,0,0,1,555,138Z"/><text class="cls-16" transform="translate(7.95 149.94)">Farb</text><text class="cls-17" transform="translate(558.95 149.94)">Harmonie</text></svg>