<svg id="Layer_1" data-name="Layer 1" xmlns="http://www.w3.org/2000/svg" viewBox="0 0 260 260"><defs><style>.cls-1{fill:#f39200;}.cls-2{fill:#e30613;}.cls-3{fill:#ffed00;}.cls-4{fill:#e50051;}.cls-5{fill:#95c11f;}.cls-6{fill:#e6007e;}.cls-7{fill:#009640;}.cls-8{fill:#951b81;}.cls-9{fill:#009a93;}.cls-10{fill:#009fe3;}.cls-11{fill:#312783;}.cls-12{fill:#0069b4;}</style></defs><title>color</title><path class="cls-1" d="M244.73,99.71a118.69,118.69,0,0,1,0,60.58l-27.63-7.41a90.2,90.2,0,0,0,0-45.76Z"/><path class="cls-2" d="M244.5,98.87l-27.63,7.4A90.09,90.09,0,0,0,194,66.67l20.22-20.22A118.7,118.7,0,0,1,244.5,98.87Z"/><path class="cls-3" d="M216.87,153.73l27.63,7.4a118.7,118.7,0,0,1-30.33,52.42L194,193.33A90.09,90.09,0,0,0,216.87,153.73Z"/><path class="cls-4" d="M213.55,45.83,193.33,66.05a90.09,90.09,0,0,0-39.6-22.92l7.4-27.63A118.79,118.79,0,0,1,213.55,45.83Z"/><path class="cls-5" d="M193.33,194l20.22,20.22a118.79,118.79,0,0,1-52.42,30.33l-7.4-27.63A90.09,90.09,0,0,0,193.33,194Z"/><path class="cls-6" d="M160.29,15.27,152.88,42.9a90.2,90.2,0,0,0-45.76,0L99.71,15.27a118.69,118.69,0,0,1,60.58,0Z"/><path class="cls-7" d="M152.88,217.1l7.41,27.63a118.69,118.69,0,0,1-60.58,0l7.41-27.63a90.2,90.2,0,0,0,45.76,0Z"/><path class="cls-8" d="M98.87,15.5l7.4,27.63a90.09,90.09,0,0,0-39.6,22.92L46.45,45.83A118.7,118.7,0,0,1,98.87,15.5Z"/><path class="cls-9" d="M106.27,216.87l-7.4,27.63a118.79,118.79,0,0,1-52.42-30.33L66.67,194A90.09,90.09,0,0,0,106.27,216.87Z"/><path class="cls-10" d="M66.05,193.33,45.83,213.55A118.79,118.79,0,0,1,15.5,161.13l27.63-7.4A90.09,90.09,0,0,0,66.05,193.33Z"/><path class="cls-11" d="M45.83,46.45,66.05,66.67a90.09,90.09,0,0,0-22.92,39.6L15.5,98.87A118.79,118.79,0,0,1,45.83,46.45Z"/><path class="cls-12" d="M15.27,99.71l27.63,7.41a90.2,90.2,0,0,0,0,45.76l-27.63,7.41a118.69,118.69,0,0,1,0-60.58Z"/></svg>