<svg id="Layer_1" data-name="Layer 1" xmlns="http://www.w3.org/2000/svg" viewBox="0 0 1009 571"><defs><style>.cls-1,.cls-4{fill:#143d59;}.cls-2,.cls-3{fill:#f4b41a;}.cls-3{stroke:#f4b41a;}.cls-3,.cls-4{stroke-miterlimit:10;stroke-width:20px;}.cls-4{stroke:#143d59;}</style></defs><title>Artboard 1</title><path class="cls-1" d="M496.5,561C344.35,561,221,437.65,221,285.5S344.35,10,496.5,10"/><path class="cls-2" d="M496.5,562l-6.8.53-6.83.45c-4.56.14-9.13.16-13.72.24-1.15,0-2.29-.05-3.44-.1l-3.43-.16-6.89-.34c-.57,0-1.15,0-1.72-.1l-1.71-.17-3.44-.34-6.88-.69-1.73-.17-1.71-.25-3.42-.52c-2.29-.33-4.57-.74-6.85-1.11s-4.54-.9-6.81-1.37l-6.8-1.47c-2.29-.45-4.5-1.13-6.76-1.71l-6.74-1.82c-2.27-.56-4.45-1.36-6.68-2l-6.66-2.16a282.13,282.13,0,0,1-50.79-24c-2.05-1.18-4-2.51-6-3.76s-4-2.56-5.94-3.86c-3.87-2.69-7.66-5.52-11.5-8.28s-7.39-5.9-11.1-8.85c-3.58-3.1-7.08-6.29-10.63-9.45l-10.14-10c-3.21-3.49-6.47-7-9.65-10.5s-6.11-7.3-9.08-11-5.76-7.59-8.52-11.48a279.21,279.21,0,0,1-28-49.95,285,285,0,0,1-17.29-54.79,283.33,283.33,0,0,1,0-114.41l.33-1.77.42-1.75.84-3.5,1.7-7c.51-2.34,1.28-4.62,1.93-6.93l2-6.9c.64-2.31,1.51-4.55,2.28-6.82l2.38-6.79c.74-2.28,1.72-4.47,2.62-6.69l2.76-6.63a278,278,0,0,1,28-50c2.76-3.89,5.68-7.66,8.52-11.48s6-7.38,9.08-11,6.44-7,9.65-10.5l10.14-10c3.53-3.17,7.05-6.35,10.63-9.45s7.37-6,11.09-8.85,7.63-5.59,11.5-8.28c2-1.31,4-2.58,5.94-3.85s3.94-2.59,6-3.76a280.07,280.07,0,0,1,50.78-24C422.79,10.18,460.27,5.25,496.5,9v2a274.5,274.5,0,0,0,0,549Z"/><path class="cls-2" d="M496.5,10C648.65,10,772,133.35,772,285.5S648.65,561,496.5,561"/><path class="cls-1" d="M496.5,9l6.8-.53L510.13,8c4.56-.14,9.13-.16,13.72-.24,1.15,0,2.29,0,3.44.1l3.43.16,6.89.34c.57,0,1.15,0,1.72.1l1.71.17,3.44.34,6.88.69,1.73.17,1.71.25,3.42.52c2.29.33,4.57.74,6.85,1.11s4.54.9,6.81,1.37l6.8,1.47c2.29.45,4.5,1.13,6.76,1.71l6.74,1.82c2.27.56,4.45,1.36,6.68,2l6.66,2.16a282.13,282.13,0,0,1,50.79,24c2.05,1.18,4,2.51,6,3.76s4,2.56,5.94,3.86c3.87,2.69,7.66,5.52,11.5,8.28,3.72,2.91,7.39,5.9,11.1,8.85,3.58,3.1,7.08,6.29,10.63,9.45l10.14,10c3.21,3.49,6.47,7,9.65,10.5s6.11,7.3,9.08,11,5.76,7.59,8.52,11.48a279.21,279.21,0,0,1,28,50,285,285,0,0,1,17.29,54.79,283.33,283.33,0,0,1,0,114.41l-.33,1.77-.42,1.75-.84,3.5-1.7,7c-.51,2.34-1.28,4.62-1.93,6.93l-2,6.9c-.64,2.31-1.51,4.55-2.28,6.82l-2.38,6.79c-.74,2.28-1.72,4.47-2.62,6.69l-2.76,6.63a278,278,0,0,1-28,49.95c-2.76,3.89-5.68,7.66-8.52,11.48s-6,7.38-9.08,11-6.44,7-9.65,10.5l-10.14,10c-3.53,3.17-7,6.35-10.63,9.45-3.7,2.95-7.37,5.95-11.09,8.85s-7.63,5.59-11.5,8.28c-2,1.31-4,2.58-5.94,3.85s-3.94,2.59-6,3.76a280.07,280.07,0,0,1-50.78,24c-35.29,12.17-72.77,17.1-109,13.35v-2a274.5,274.5,0,0,0,0-549Z"/><path class="cls-3" d="M496.32,85c-111,0-201,90-201,201s90,201,201,201"/><path class="cls-1" d="M496.5,168a117.5,117.5,0,0,0,0,235"/><path class="cls-4" d="M496.32,85c111,0,201,90,201,201s-90,201-201,201"/><path class="cls-2" d="M496.37,403a117.5,117.5,0,0,0,0-235"/><path class="cls-1" d="M0,486c111,0,201-90,201-201S111,84,0,84"/><path class="cls-2" d="M0,485l4.89-.83,4.86-.74c3.23-.62,6.43-1.31,9.61-2s6.32-1.5,9.46-2.24,6.21-1.8,9.29-2.69a218.91,218.91,0,0,0,35.23-14.46A206.59,206.59,0,0,0,132,417l6-6.94,5.63-7.21c1.74-2.5,3.58-4.92,5.31-7.41s3.36-5.06,5-7.64a197.69,197.69,0,0,0,16.06-32.4,189.35,189.35,0,0,0,9.8-34.6A189,189,0,0,0,183,285a188.94,188.94,0,0,0-3.29-35.77c-.19-1.49-.59-2.94-.88-4.41l-.93-4.4c-.28-1.48-.73-2.91-1.1-4.36l-1.15-4.35c-.35-1.46-.87-2.87-1.31-4.31L173,223.11c-.95-2.85-2-5.65-3-8.49a199.09,199.09,0,0,0-16.06-32.42c-1.6-2.57-3.31-5.08-4.95-7.63s-3.58-4.91-5.31-7.42L138,159.94,132,153a206.3,206.3,0,0,0-58.64-45.12A219.74,219.74,0,0,0,38.12,93.43c-3.09-.88-6.17-1.87-9.3-2.68s-6.28-1.53-9.46-2.24S13,87.18,9.75,86.57l-4.86-.75L0,85V83A202.47,202.47,0,0,1,77.5,97.91a202.9,202.9,0,0,1,65.81,43.79,203.29,203.29,0,0,1,44.1,65.67A203.16,203.16,0,0,1,203,285a203.11,203.11,0,0,1-15.58,77.63,203.36,203.36,0,0,1-44.11,65.68A203.22,203.22,0,0,1,77.5,472.1,202.65,202.65,0,0,1,0,487Z"/><path class="cls-2" d="M1.8,403l2.84-.77,2.82-.7c1.86-.53,3.7-1.11,5.51-1.65s3.61-1.2,5.39-1.8l5.25-2a132.59,132.59,0,0,0,19.58-9.69,123.61,123.61,0,0,0,31.54-27l3.16-4,2.94-4.1c.91-1.42,1.89-2.78,2.8-4.18s1.75-2.85,2.58-4.29a114.59,114.59,0,0,0,8.34-18,107,107,0,0,0,5-18.94,104,104,0,0,0,1.71-19.47A105,105,0,0,0,99.62,267c-.25-1.61-.62-3.2-.92-4.81s-.78-3.17-1.16-4.76-.94-3.13-1.39-4.71l-1.56-4.67a117,117,0,0,0-8.34-18c-.83-1.44-1.73-2.85-2.59-4.28s-1.89-2.76-2.79-4.19l-3-4.1-3.16-4a123.37,123.37,0,0,0-31.56-27,133,133,0,0,0-19.58-9.67l-5.26-2c-1.78-.59-3.57-1.22-5.39-1.79S9.31,172,7.45,171.46l-2.81-.69L1.8,170v-2a118.81,118.81,0,0,1,45.54,8.56,119.07,119.07,0,0,1,38.72,25.68,119.53,119.53,0,0,1,26,38.59,119.5,119.5,0,0,1,9.24,45.67,119.31,119.31,0,0,1-9.24,45.67,119.37,119.37,0,0,1-26,38.59,119.07,119.07,0,0,1-38.72,25.68A118.81,118.81,0,0,1,1.8,405Z"/><path class="cls-2" d="M1009,486c-111,0-201-90-201-201S898,84,1009,84"/><path class="cls-1" d="M1009,487l-5,.58-5,.5c-3.33.21-6.69.33-10.07.5s-6.73-.11-10.12-.16-6.75-.45-10.16-.67a184.71,184.71,0,0,1-40.18-8.39,198.39,198.39,0,0,1-71.78-42.07l-7.61-7.36c-2.42-2.57-4.87-5.12-7.27-7.73s-4.59-5.39-6.83-8.14-4.33-5.62-6.42-8.5a204.9,204.9,0,0,1-21.12-37.07,211.71,211.71,0,0,1-13.06-40.82,208.87,208.87,0,0,1,0-85.34c.3-1.76.81-3.48,1.21-5.23l1.28-5.21c.39-1.75,1-3.45,1.46-5.17l1.54-5.14c.48-1.72,1.14-3.39,1.72-5.08l1.79-5.05c.56-1.7,1.3-3.33,2-5l2.09-4.94a204,204,0,0,1,21.12-37.07c2.08-2.88,4.28-5.67,6.42-8.49s4.52-5.46,6.83-8.14,4.84-5.16,7.26-7.73l7.62-7.36a198.48,198.48,0,0,1,71.76-42.06,184.52,184.52,0,0,1,40.17-8.4c3.4-.23,6.77-.56,10.15-.68s6.76-.21,10.12-.17,6.74.29,10.08.5l5,.5,5,.57v2a200,200,0,0,0,0,400Z"/><path class="cls-1" d="M1007.2,405l-2.92.63-3,.55c-2,.29-4,.54-6,.81s-4,.26-6.07.39-4,0-6.11,0a105.8,105.8,0,0,1-24.51-3.67,115.15,115.15,0,0,1-44.69-24l-4.8-4.38c-1.52-1.53-3.07-3.06-4.58-4.63s-2.9-3.25-4.31-4.91-2.74-3.4-4.06-5.15A122.23,122.23,0,0,1,882.81,338a127.85,127.85,0,0,1-8.31-25.15,125.4,125.4,0,0,1,0-52.75c.46-2.17,1.06-4.31,1.6-6.45s1.27-4.24,1.91-6.36,1.48-4.16,2.22-6.24c.36-1.05.82-2.05,1.26-3.07l1.33-3a121.6,121.6,0,0,1,13.4-22.63c1.32-1.74,2.71-3.44,4.06-5.14s2.84-3.31,4.31-4.91,3.06-3.09,4.58-4.63l4.79-4.38a115.37,115.37,0,0,1,44.68-24,105.12,105.12,0,0,1,24.5-3.68c2.05,0,4.08-.1,6.11,0s4.05.19,6.06.38,4,.51,6,.8l2.95.55,2.92.62v2a116.51,116.51,0,0,0,0,233Z"/></svg>