<svg xmlns="http://www.w3.org/2000/svg" viewBox="0 0 648.81 650.43"><defs><style>.cls-1{fill:#60a2a2;}.cls-2{fill:#e0dbc0;}.cls-3{fill:#433930;}.cls-4{fill:#abd5cb;}</style></defs><title>eye</title><g id="Object"><circle class="cls-1" cx="324.39" cy="326.01" r="317.65"/><path class="cls-2" d="M50.09,369.64a34.79,34.79,0,0,1-2.57-48.31c41.87-48.25,144-148.07,275.27-152.77C455.53,163.8,569.05,270.8,615.05,321.31a34.81,34.81,0,0,1-2.1,49C563.12,416.4,443.69,514.74,331.88,514.74,219.53,514.74,99.48,415.43,50.09,369.64Z"/><circle class="cls-3" cx="325.6" cy="341.57" r="144.2" transform="translate(-146.16 330.28) rotate(-45)"/><circle class="cls-4" cx="289.13" cy="332.11" r="74.03" transform="translate(-37.77 37.11) rotate(-6.89)"/><circle class="cls-2" cx="360.4" cy="305.65" r="22.57" transform="translate(-23.9 30.65) rotate(-4.71)"/></g></svg>