<svg id="Layer_1" data-name="Layer 1" xmlns="http://www.w3.org/2000/svg" viewBox="0 0 921 524"><defs><style>.cls-1,.cls-3{fill:none;}.cls-1,.cls-2,.cls-3{stroke:#24305e;stroke-miterlimit:10;}.cls-1{stroke-width:6.94px;}.cls-14,.cls-2,.cls-4,.cls-5{fill:#24305e;}.cls-2{stroke-width:7px;}.cls-3{stroke-width:6.94px;}.cls-14,.cls-4{font-size:30px;font-family:MyriadPro-Regular, Myriad Pro;}.cls-6{fill:#0067b1;}.cls-7{fill:#7bc143;}.cls-8{fill:#f63;}.cls-9{letter-spacing:-0.05em;}.cls-10{letter-spacing:0em;}.cls-11{letter-spacing:0em;}.cls-12{letter-spacing:0em;}.cls-13{letter-spacing:0em;}.cls-14{letter-spacing:0em;}.cls-15{letter-spacing:0em;}</style></defs><title>harmonie</title><line class="cls-1" x1="69.15" y1="444.5" x2="69.15" y2="484"/><line class="cls-2" x1="461.86" y1="255.4" x2="461.86" y2="347.4"/><line class="cls-2" x1="195.01" y1="373.5" x2="195.01" y2="445.5"/><line class="cls-2" x1="727.97" y1="372.5" x2="727.97" y2="445.5"/><line class="cls-1" x1="192.5" y1="442" x2="65.67" y2="442"/><line class="cls-1" x1="325.09" y1="442" x2="196.5" y2="442"/><line class="cls-1" x1="725.5" y1="442" x2="594.92" y2="442"/><line class="cls-1" x1="854.34" y1="442" x2="730.5" y2="442"/><line class="cls-1" x1="321.6" y1="443" x2="321.6" y2="481"/><line class="cls-1" x1="598.38" y1="443" x2="598.38" y2="481"/><line class="cls-1" x1="850.83" y1="443" x2="850.83" y2="481"/><line class="cls-3" x1="325.2" y1="345" x2="599.2" y2="345"/><text class="cls-4" transform="translate(791.65 510)">Objektiv</text><path class="cls-5" d="M461,83H698.3A36.7,36.7,0,0,0,735,46.31h0a37.1,37.1,0,0,0-37.1-37.1H461Z"/><path class="cls-6" d="M465,77.9H697.43a31.5,31.5,0,0,0,31.5-31.49h0a31.5,31.5,0,0,0-31.5-31.49H465Z"/><path class="cls-5" d="M462,83H226.9A36.9,36.9,0,0,1,190,46.11h0a36.9,36.9,0,0,1,36.9-36.9H462Z"/><rect class="cls-5" x="327" y="182.1" width="270" height="73.79"/><rect class="cls-7" x="332.37" y="187.89" width="259.26" height="63"/><path class="cls-8" d="M458,77.89H227.82a31.5,31.5,0,0,1-31.5-31.5h0a31.5,31.5,0,0,1,31.5-31.5H458Z"/><path class="cls-8" d="M325.28,373.94H66.74a.71.71,0,0,1-.72-.71V310.85H325.28Z"/><path class="cls-6" d="M598.68,373.94H856.89a1,1,0,0,0,1-1v-62H598.68Z"/><text class="cls-4" transform="translate(561 59.46) scale(0.95 1)"><tspan class="cls-9">F</tspan><tspan x="13.26" y="0">a</tspan><tspan class="cls-10" x="27.72" y="0">r</tspan><tspan x="37.65" y="0">be</tspan></text><text class="cls-4" transform="translate(294 58.46) scale(0.95 1)"><tspan class="cls-9">F</tspan><tspan x="13.26" y="0">a</tspan><tspan class="cls-10" x="27.72" y="0">r</tspan><tspan x="37.65" y="0">be</tspan></text><text class="cls-4" transform="translate(401 229.46) scale(0.95 1)">Ha<tspan class="cls-11" x="34.02" y="0">r</tspan><tspan class="cls-12" x="43.95" y="0">monie</tspan></text><text class="cls-4" transform="translate(147 354.46) scale(0.95 1)"><tspan class="cls-13">G</tspan><tspan x="19.53" y="0">efühle</tspan></text><text class="cls-4" transform="translate(652 354.46) scale(0.95 1)"><tspan class="cls-10">B</tspan><tspan x="16.38" y="0">edeutungen</tspan></text><text class="cls-14" transform="translate(6 510.46) scale(0.95 1)">A<tspan class="cls-15" x="18.27" y="0">ngenehm</tspan></text><text class="cls-4" transform="translate(241 510.46) scale(0.95 1)">Unangenehm</text><text class="cls-4" transform="translate(543 510.46) scale(0.95 1)">Subjektiv</text><line class="cls-2" x1="461.5" y1="82.5" x2="461.5" y2="184.5"/></svg>