<svg id="Layer_1" data-name="Layer 1" xmlns="http://www.w3.org/2000/svg" viewBox="0 0 270 417"><defs><style>.cls-1{fill:#ba5a19;}.cls-2{fill:#d37733;}.cls-3{fill:#96281b;}.cls-4{fill:#fff;}.cls-5{fill:#582a1a;}.cls-6{fill:#b2b2b2;}.cls-7{fill:#fbd099;}.cls-8{fill:#fbcb43;}.cls-9{fill:#c6221e;}.cls-10{fill:#a61d4b;}.cls-11{fill:#e87e04;}.cls-12{fill:#ce6905;}.cls-13{fill:#f5b400;}</style></defs><title>Artboard 2</title><polygon class="cls-1" points="179.5 74.47 179.5 88.65 194.08 174.75 208.76 89.24 208.76 72.99 179.5 74.47"/><path class="cls-2" d="M217.7,29.34c-6-11.63-18.47-8.24-23-6.5-4.57-1.74-17-5.13-23,6.5,0,0-.15,8.85.33,18.53.45,9.15,1.47,19.05,3.71,23a23.53,23.53,0,0,0,17.68,12c.25,0,2.38,0,2.61,0a23.56,23.56,0,0,0,17.72-12C218.28,62.77,217.7,29.34,217.7,29.34Z"/><path class="cls-3" d="M189.13,37.15c-2.91.63-11.27,2.75-13,3.45a1.1,1.1,0,0,0,.65,2.09c1.7-.32,10.34-2.83,13-3.4C191.17,39,190.63,36.82,189.13,37.15Z"/><path class="cls-3" d="M201,37.15c2.91.63,11.26,2.75,13,3.45a1.1,1.1,0,0,1-.65,2.09c-1.7-.32-10.35-2.83-13-3.4C199,39,199.51,36.82,201,37.15Z"/><path class="cls-1" d="M196.78,55.29c-.21-.45-1.3-.68-1.19.3s.33,2.25.52,3.32a6.74,6.74,0,0,1-.3,4.07c-.37,1.22.75,1.22,1.36.88C201.14,61.62,197.54,56.88,196.78,55.29Z"/><path class="cls-1" d="M203.25,68.84c-5.84,1.38-10.31,1.47-15.92-.29-1.16-.36-1.81.77-.51,1.37a19.34,19.34,0,0,0,16.71.22C204.77,69.54,204,68.66,203.25,68.84Z"/><path class="cls-4" d="M177.54,49.59a1.34,1.34,0,0,0,.33,2,9,9,0,0,0,7.4,1.55c2.82-.74,5.31-5.18,1.61-6.39S180.16,45.89,177.54,49.59Z"/><path class="cls-3" d="M186.61,49.84A2.65,2.65,0,1,1,184,47.19,2.64,2.64,0,0,1,186.61,49.84Z"/><path class="cls-4" d="M185.27,49.3a1.08,1.08,0,1,1-1.08-1.07A1.08,1.08,0,0,1,185.27,49.3Z"/><path class="cls-3" d="M187.78,46.32a8,8,0,0,0-6.8-.44,10.31,10.31,0,0,0-4,3.41c-1.07,1.52.53,1.65,1,1,3-3.92,6.53-3.85,9.39-2.83C188.21,47.72,188.49,46.66,187.78,46.32Z"/><path class="cls-4" d="M211.73,49.59a1.35,1.35,0,0,1-.33,2,9,9,0,0,1-7.4,1.55c-2.83-.74-5.32-5.18-1.62-6.39S209.11,45.89,211.73,49.59Z"/><path class="cls-3" d="M202.5,49.84a2.65,2.65,0,1,0,2.65-2.65A2.65,2.65,0,0,0,202.5,49.84Z"/><path class="cls-4" d="M203.85,49.3a1.08,1.08,0,1,0,1.08-1.07A1.08,1.08,0,0,0,203.85,49.3Z"/><path class="cls-3" d="M201.34,46.32a8,8,0,0,1,6.8-.44,10.31,10.31,0,0,1,4,3.41c1.07,1.52-.53,1.65-1,1-3-3.92-6.53-3.85-9.39-2.83C200.91,47.72,200.63,46.66,201.34,46.32Z"/><path class="cls-1" d="M198.92,73.89a25,25,0,0,1-7.34,0c-1.23-.36-1.44.57-.15,1.19a10.52,10.52,0,0,0,7.49-.11C199.93,74.46,199.86,73.67,198.92,73.89Z"/><path class="cls-2" d="M173.59,48.26s-8.2-5.74-6.7,6.31c1,7.88,9.07,10.64,10.25,6.3Z"/><path class="cls-2" d="M216.52,48.26s8.3-4.73,6.7,6.31c-1.42,9.75-9.06,10.64-10.25,6.3Z"/><path class="cls-1" d="M172.21,51.41l.4,7.29s-4.93-1.37-3.35-7.09C170,48.93,172.21,51.41,172.21,51.41Z"/><path class="cls-1" d="M217.22,51.41l-.4,7.29s4.93-1.37,3.35-7.09C219.43,48.93,217.22,51.41,217.22,51.41Z"/><path class="cls-5" d="M217.77,15.26c-6.05-5.26-12.46-6-22.31-6.2-5.88-.12-16.35-.6-23.84,5.91-5.74,5-4.33,29.75-3.15,32.11a5.66,5.66,0,0,1,2.86.39l.88,5.72,1.48.59L173.3,39.2l2.16-3.55s-.59-4.92,1.19-7.29c1.24-1.65,11.49-.49,18.94-.48s15.91-.88,17.16.78C214.52,31,213.93,36,213.93,36l2.17,3.55-.4,14.57,1.48-.59.89-5.71a5.63,5.63,0,0,1,2.86-.39C222.11,45,223.52,20.25,217.77,15.26Z"/><path class="cls-1" d="M164.92,382.41c2.37,3.55,14.19-3.15,20.49-6.5a45,45,0,0,1-2.36-8.87l-17.73.59s-4.14,6.5-7.1,8.87l-.75.62C159.87,378.23,163.43,380.16,164.92,382.41Z"/><path class="cls-6" d="M150.54,397.19c9.26-.2,23.64-9.46,23.64-9.46l.59,4.14,10.45-2.17s2.36-9.06.19-13.79c-6.3,3.35-16.55,8.86-19.9,5.91a37.27,37.27,0,0,0-8-4.7c-3.57,3-12.82,8.51-18,13.17C133.2,396,144.52,397.31,150.54,397.19Z"/><path class="cls-1" d="M224.86,382.41c-2.36,3.55-14.18-3.15-20.49-6.5a44.6,44.6,0,0,0,2.37-8.87l17.73.59s4.14,6.5,7.09,8.87l.76.62C229.91,378.23,226.36,380.16,224.86,382.41Z"/><path class="cls-6" d="M239.25,397.19c-9.26-.2-23.65-9.46-23.65-9.46l-.59,4.14-10.44-2.17s-2.36-9.06-.2-13.79c6.31,3.35,16.55,8.86,19.9,5.91a37.34,37.34,0,0,1,8-4.7c3.57,3,12.81,8.51,18,13.17C256.58,396,245.27,397.31,239.25,397.19Z"/><path class="cls-7" d="M154.06,316.4s-.07,24.24,4.65,31c2.86,4.11.94,3.28-1.53,6.37s2.12,3.71,3.55,6.36-2.9,4.28-2,7.55,23.35,4.59,26.32,3.21c3.75-1.74-1.86-7,1.34-8,6.88-2.29,5-7.14,2.24-10-2.36-2.46,3.57-1.72,3.53-8.67,0-5.51,1.48-28.34,1.48-28.34Z"/><path class="cls-7" d="M235.49,316.28s.06,24.24-4.66,31c-2.86,4.11-.93,3.27,1.54,6.37s-2.12,3.7-3.55,6.36,2.9,4.27,2,7.55-23.35,4.58-26.32,3.21c-3.75-1.75,1.86-7-1.34-8.05-6.89-2.28-5-7.14-2.25-10,2.37-2.45-3.56-1.72-3.53-8.66,0-5.52-1.48-28.35-1.48-28.35Z"/><path class="cls-1" d="M135.67,223.38s1.22,15.76,3.32,27.67c.93,5.26,3.51,9.63,5.08-.35a81.42,81.42,0,0,0,.51-15.56c-.16-4.23,2.08-3.36,3-1.08,1.75,4.38,3.84,4,5.6,3.85,2.45-.17-1.57-4.72-2.28-10-.47-3.6-.87-11.56-.87-11.56Z"/><path class="cls-1" d="M252.47,224.36s-1.23,15.77-3.33,27.68c-.92,5.25-3.5,9.63-5.08-.35a82.24,82.24,0,0,1-.5-15.57c.15-4.23-2.09-3.36-3-1.07-1.75,4.38-3.85,4-5.61,3.85-2.45-.18,1.58-4.73,2.28-10,.48-3.6.88-11.56.88-11.56Z"/><path class="cls-8" d="M193.1,131.8c13.4,0,12.41-40.19,12.41-40.19h6.66V83.33H201.83s-2.43,22-2.82,30.74c-.59,13-8.66,17.41-10.64.59-1.18-10-1.77-31.33-1.77-31.33H176.25v8.28h4.44S179.7,131.8,193.1,131.8Z"/><path class="cls-9" d="M182.8,132.82a12.23,12.23,0,0,0,9.31,4.1c15.36,0,20.84-11.77,20.88-44.9l-.82-.26v-.15h-6.66s1,40.19-12.41,40.19-12.41-40.19-12.41-40.19h-4.44v.15l-2.3.73C173.76,97.36,173.29,122.71,182.8,132.82Z"/><path class="cls-8" d="M181.08,134.44a14.67,14.67,0,0,0,11,4.85c17,0,23.1-12.23,23.24-46.52L213,92c0,33.13-5.52,44.9-20.88,44.9a12.23,12.23,0,0,1-9.31-4.1c-9.51-10.11-9-35.46-8.85-40.33l-2.4.77C171.33,100,171.29,124,181.08,134.44Z"/><path class="cls-8" d="M153.5,222.43s-.3-2.76-.59-6.11l-19.81,8.8c.61,3.3,1.09,5.58,1.09,5.58Z"/><path class="cls-8" d="M234.93,222.43l19.31,8.27s.64-2.15,1.5-5.32l-20.23-9C235.22,219.71,234.93,222.43,234.93,222.43Z"/><path class="cls-9" d="M256.93,140.07c-1.93-8.59-6.3-20.29-8.86-27.78-1.61-4.68-5.75-10.63-9-11.82-2.51-.91-17.17-5.6-23.72-7.7-.14,34.29-6.27,46.52-23.24,46.52a14.67,14.67,0,0,1-11-4.85c-9.79-10.4-9.75-34.47-9.53-41.18-7.07,2.26-19.86,6.37-22.19,7.21-3.25,1.19-7.26,8.32-8.87,13-2.56,7.48-6.33,17.41-8.27,26-6.31,28-2.56,58.91-1.77,68,.47,5.44,1.72,12.71,2.65,17.66l19.81-8.8c-.3-3.35-.6-7.29-.6-9.65,0-4.73-7.48-40.59,4.73-65.81,1.58,24.83,3.75,39.89,2.37,50.83-1.12,8.83-2,19-2.72,29.77,0,.72-.09,1.44-.13,2.16-2.92,45.87-2.67,100.47-2.67,100.47h81.57s1-53.46-2.73-100c-.16-2.07-.34-4.13-.52-6.17-.84-9.29-1.89-18.19-3.19-26.19-1.77-10.89.53-26.79,2.1-51.62,12.22,25.22,5,61.87,5,66.6,0,2.38-.3,6.36-.6,9.72l20.23,9c1.68-6.12,4.22-16.09,4.74-22.06C261.27,194.25,263.24,168.05,256.93,140.07Z"/><path class="cls-8" d="M162.56,314.37a2,2,0,1,1-2-2A2,2,0,0,1,162.56,314.37Z"/><circle class="cls-8" cx="195.66" cy="314.37" r="1.97"/><circle class="cls-8" cx="230.33" cy="314.37" r="1.97"/><circle class="cls-8" cx="178.32" cy="300.65" r="1.97"/><path class="cls-8" d="M217.33,300.65a2,2,0,1,1-2-2A2,2,0,0,1,217.33,300.65Z"/><path class="cls-8" d="M162.56,287.05a2,2,0,1,1-2-2A2,2,0,0,1,162.56,287.05Z"/><circle class="cls-8" cx="195.66" cy="287.05" r="1.97"/><circle class="cls-8" cx="230.33" cy="287.05" r="1.97"/><circle class="cls-8" cx="178.32" cy="273.33" r="1.97"/><path class="cls-8" d="M217.33,273.33a2,2,0,1,1-2-2A2,2,0,0,1,217.33,273.33Z"/><path class="cls-8" d="M162.56,258a2,2,0,1,1-2-2A2,2,0,0,1,162.56,258Z"/><circle class="cls-8" cx="195.66" cy="258.02" r="1.97"/><circle class="cls-8" cx="230.33" cy="258.02" r="1.97"/><circle class="cls-8" cx="178.32" cy="244.3" r="1.97"/><path class="cls-8" d="M217.33,244.3a2,2,0,1,1-2-2A2,2,0,0,1,217.33,244.3Z"/><path class="cls-8" d="M162.56,228.34a2,2,0,1,1-2-2A2,2,0,0,1,162.56,228.34Z"/><path class="cls-8" d="M197.63,228.34a2,2,0,1,1-2-2A2,2,0,0,1,197.63,228.34Z"/><path class="cls-8" d="M232.3,228.34a2,2,0,1,1-2-2A2,2,0,0,1,232.3,228.34Z"/><circle class="cls-8" cx="163.74" cy="197.6" r="1.97"/><circle class="cls-8" cx="195.66" cy="197.6" r="1.97"/><circle class="cls-8" cx="225.21" cy="197.6" r="1.97"/><circle class="cls-8" cx="163.74" cy="164.31" r="1.97"/><circle class="cls-8" cx="195.66" cy="164.31" r="1.97"/><circle class="cls-8" cx="225.21" cy="164.31" r="1.97"/><circle class="cls-8" cx="163.74" cy="123.52" r="1.97"/><circle class="cls-8" cx="225.21" cy="123.52" r="1.97"/><path class="cls-8" d="M142.46,123.52a2,2,0,1,1-2-2A2,2,0,0,1,142.46,123.52Z"/><circle class="cls-8" cx="246.88" cy="123.52" r="1.97"/><path class="cls-8" d="M180.29,214.61a2,2,0,1,1-2-2A2,2,0,0,1,180.29,214.61Z"/><path class="cls-8" d="M217.33,214.61a2,2,0,1,1-2-2A2,2,0,0,1,217.33,214.61Z"/><circle class="cls-8" cx="178.32" cy="180.86" r="1.97"/><path class="cls-8" d="M217.33,180.86a2,2,0,1,1-2-2A2,2,0,0,1,217.33,180.86Z"/><path class="cls-8" d="M180.29,144.8a2,2,0,1,1-2-2A2,2,0,0,1,180.29,144.8Z"/><path class="cls-8" d="M151.33,144.8a2,2,0,1,1-2-2A2,2,0,0,1,151.33,144.8Z"/><path class="cls-8" d="M155.47,107.27a2,2,0,1,1-2-2A2,2,0,0,1,155.47,107.27Z"/><path class="cls-8" d="M237,107.27a2,2,0,1,1-2-2A2,2,0,0,1,237,107.27Z"/><path class="cls-8" d="M135.37,162.24a2,2,0,1,1-2-2A2,2,0,0,1,135.37,162.24Z"/><path class="cls-8" d="M146,181.15a2,2,0,1,1-2-2A2,2,0,0,1,146,181.15Z"/><path class="cls-8" d="M135.37,198.29a2,2,0,1,1-2-2A2,2,0,0,1,135.37,198.29Z"/><path class="cls-8" d="M146,214.84a2,2,0,1,1-2-2A2,2,0,0,1,146,214.84Z"/><path class="cls-8" d="M217.33,144.8a2,2,0,1,1-2-2A2,2,0,0,1,217.33,144.8Z"/><path class="cls-8" d="M240.38,144.8a2,2,0,1,1-2-2A2,2,0,0,1,240.38,144.8Z"/><circle class="cls-8" cx="254.77" cy="161.94" r="1.97"/><path class="cls-8" d="M245,182a2,2,0,1,1-2-2A2,2,0,0,1,245,182Z"/><path class="cls-8" d="M258.51,196.23a2,2,0,1,1-2-2A2,2,0,0,1,258.51,196.23Z"/><path class="cls-8" d="M246.79,216.32a2,2,0,1,1-2-2A2,2,0,0,1,246.79,216.32Z"/><path class="cls-5" d="M87.91,96.48c4.37-4.5-4.6-13.78-10.43-9.25-5.22-4.67-11.79-7-16.46-.77-4.7-2.45-9.89-2.07-10.64,3.71,0,0,0,0-.07,0C46,89.75,43.1,91.37,43,96a4.72,4.72,0,0,0,3.39,4.61c-2,2.2-2.8,5.1-1.23,7.93,1.11,2,3.72,2,5.69,1.22,1.42,5,9.64,7.1,13.35,3.44,3.23,2.25,11.09,1.66,12.45-3,5.11,3.5,8.33-1.61,8.09-5C89.08,104.79,91.43,99.52,87.91,96.48Z"/><path class="cls-1" d="M56.51,100.83s1.61,11.82-3.76,13.7c-4,1.39,9.67,21.22,9.67,21.22l7.25-.54L78.8,114.8s-6.44-3.76-4.3-14.24C76.23,92.14,56.51,100.83,56.51,100.83Z"/><path class="cls-2" d="M95.62,73.52a3.52,3.52,0,0,0-4.06-2c1-10.33,1-25.77-25-25.77-5.5,0-28.76-.38-25.29,25.84a3.8,3.8,0,0,0-4.21,2c-1.62,3.09,0,10.74,5.1,11.28.59.06,1.06.09,1.45.11A33.54,33.54,0,0,0,55.72,101.5c8.78,6.44,17.08,3.82,21.94,0A34.11,34.11,0,0,0,88.87,84.91c.42,0,.95,0,1.65-.11C95.62,84.26,97.23,76.61,95.62,73.52Z"/><path class="cls-1" d="M41.15,74.77s-3.64-1.25-2.08,3.9c1.34,4.43,3.63,2.75,3.63,2.75Z"/><path class="cls-1" d="M91.38,74.77,90,81.15a3.43,3.43,0,0,0,3.49-2.89C94.06,75.91,93.19,74.3,91.38,74.77Z"/><path class="cls-4" d="M48.63,74a6,6,0,0,0,5.24,3.62c4.52.06,5.55-2.44,5.53-3s-1.28-1.33-2.71-1.78S51.14,71.78,48.63,74Z"/><path class="cls-4" d="M83.57,74a6,6,0,0,1-5.24,3.62c-4.52.06-5.55-2.44-5.53-3s1.28-1.33,2.71-1.78S81.06,71.78,83.57,74Z"/><path class="cls-3" d="M59.66,74.28a8.66,8.66,0,0,0-12-.44c.54.33,1,.74,1.55,1.14,4.43-3.22,7-2.37,10.24-.3C59.63,74.83,59.86,74.49,59.66,74.28Z"/><circle class="cls-3" cx="53.92" cy="74.83" r="2.43"/><path class="cls-4" d="M55.18,74a.93.93,0,1,1-1.85,0,.93.93,0,0,1,1.85,0Z"/><path class="cls-3" d="M72.46,74.28a8.67,8.67,0,0,1,12.06-.44c-.54.33-1,.74-1.55,1.14-4.43-3.22-7-2.37-10.24-.3C72.5,74.83,72.27,74.49,72.46,74.28Z"/><path class="cls-3" d="M75.78,74.83a2.43,2.43,0,1,0,2.43-2.43A2.34,2.34,0,0,0,75.78,74.83Z"/><path class="cls-4" d="M77,74a.93.93,0,1,0,.92-.92A.93.93,0,0,0,77,74Z"/><path class="cls-3" d="M53.61,64.19c-3.07-.28-6.59.49-8.44,3-.35.49.09,1.18.68.73,3.89-2.92,6.66-2.62,8.37-2.32a12.54,12.54,0,0,1,6.42,3.44c.41.43.68.09.28-.55A9.39,9.39,0,0,0,53.61,64.19Z"/><path class="cls-3" d="M78.58,64.19c3.06-.28,6.58.49,8.43,3,.35.49-.08,1.18-.68.73C82.45,65,79.67,65.34,78,65.64a12.47,12.47,0,0,0-6.41,3.44c-.42.43-.69.09-.29-.55A9.41,9.41,0,0,1,78.58,64.19Z"/><path class="cls-1" d="M69.89,86.06c-.17-1-1.79-4.77-2.26-6.11-.4-1.16-.79-.83-.76-.09,0,1.25.27,3,.45,4.3a9.68,9.68,0,0,1-.27,4.47c-.27,1.08.37,1,.75.85C69.47,88.81,70.23,87.87,69.89,86.06Z"/><path class="cls-5" d="M91.34,44.61c-8.6-17.55-36-21.67-47.63-3.41-8.8,13.81-4,30.39-4,30.39l2.46.3s-.67-23.33,23.34-23.16c25.79.17,25.32,20.89,25.25,22.74,1.36,0,1.83.09,2.57.15C93.37,71.62,96.8,55.77,91.34,44.61Z"/><path class="cls-8" d="M69.61,49.44A3.58,3.58,0,1,1,66,45.86,3.58,3.58,0,0,1,69.61,49.44Z"/><circle class="cls-8" cx="66.03" cy="56.96" r="2.78"/><circle class="cls-8" cx="66.03" cy="63.41" r="2.06"/><path class="cls-8" d="M46.25,37.81a5.53,5.53,0,0,0-.88,1.08C47.23,46.22,62.76,49,63.49,49.08L63.67,48C63.49,48,46.71,45.12,46.25,37.81Z"/><path class="cls-8" d="M86.27,37.6v0C85.91,45,69,48,68.82,48L69,49.08c.74-.13,16.77-3,18.26-10.52C87,38.3,86.34,37.66,86.27,37.6Z"/><path class="cls-8" d="M56.24,31c-.25.12-1.05.42-1.05.43.59,6.58,8.6,16.91,9,17.36l.85-.67C64.9,48,56.53,37.21,56.24,31Z"/><path class="cls-8" d="M76.61,31.36C76.05,37.61,68,48,67.9,48.12l.85.67c.34-.44,8-10.4,9-17C77.32,31.65,77.07,31.53,76.61,31.36Z"/><path class="cls-9" d="M73.46,93c-.84.11-1.64.62-2.51.46-.58-.1-1.13-.3-1.71-.41a2.52,2.52,0,0,0-2.63,1.24A2.5,2.5,0,0,0,64,93c-.58.11-1.13.31-1.71.41-.87.16-1.67-.35-2.51-.46-.58-.09-.72.67-.34,1a4.72,4.72,0,0,0,2.35,1,5.52,5.52,0,0,0,4.82,2.41h0A5.52,5.52,0,0,0,71.45,95a4.72,4.72,0,0,0,2.35-1C74.18,93.63,74,92.87,73.46,93Z"/><path class="cls-10" d="M50.06,383.4c5.91-.72,5.37-4.84,5.37-4.84s2,5.2,7.17,5c4.68-.16,3.94-5.37,3.94-5.37s3.76,6.44,9.31,5.19c4.47-1,2.5-5.73,2.5-5.73a19.1,19.1,0,0,0,15.05,5c4.55-.53,9.23-1.2,12.78-1.74-2.33-30.88-7.11-99.56-4.91-116.08,2.87-21.49-57.3-16.48-57.3-16.48l-9.31,54.44s3.58,20.77,2.87,35.1c-.41,8.19-3.17,24.83-5.45,37.57C36.83,378.49,46,383.89,50.06,383.4Z"/><path class="cls-8" d="M46.84,401A10.39,10.39,0,0,0,54,398.62c3,2.51,5.54,3.68,9.13,3,3.05-.53,3.23-2.5,4.12-4.29,1.71,2.26,3.92,4.47,7.7,4.47,2.87,0,4.3-.71,5.91-4.12,13.07,5,26.5-1.61,26.5-1.61s-.48-5.88-1.18-15.17c-3.55.54-8.23,1.21-12.78,1.74a19.1,19.1,0,0,1-15.05-5s2,4.72-2.5,5.73c-5.55,1.25-9.31-5.19-9.31-5.19s.74,5.21-3.94,5.37c-5.2.18-7.17-5-7.17-5s.54,4.12-5.37,4.84c-4,.49-13.23-4.91-18-7.91-1.71,9.52-3.15,16.86-3.15,16.86S39.68,399.51,46.84,401Z"/><path class="cls-11" d="M60.27,166.22l.48,114.52c6.8-7.75,12.9-15.33,15.46-20.18,7.16-13.61,7.87-91.68,7.87-91.68A60.73,60.73,0,0,0,60.27,166.22Z"/><path class="cls-11" d="M52.21,197.26c.27-9.67-1.61-12.09-6.71-13.7-2.77-.87-7.65-.4-10.37,0-2.57,11.83-7.13,34.92-6.91,48.38.29,18.9,1.6,37.31,2.9,51.43L52.64,261.6C52.36,235.62,52.05,202.94,52.21,197.26Z"/><path class="cls-12" d="M36.81,176s-.69,2.9-1.68,7.49c2.72-.37,7.6-.84,10.37,0,5.1,1.61,7,4,6.71,13.7-.16,5.68.15,38.36.43,64.34L56,258.23l1.78,25.88q1.52-1.68,3-3.37l-.48-114.52A40.5,40.5,0,0,0,36.81,176Z"/><path class="cls-10" d="M86.79,113.54c-1-.14-2-.27-2.86-.37-4.77,4.08-13.81,11.76-19.85,16.55-6.92,5.47-23.29,18.74-29.28,23.61l-.14,2.88c4-3.25,23.13-18.78,30.75-24.81C72.17,126.05,82.67,117.08,86.79,113.54Z"/><path class="cls-10" d="M84,158.58a73.19,73.19,0,0,0,34.33-10.8c-.31-.57-.65-1.21-1-1.9a72.11,72.11,0,0,1-33.41,10.56Z"/><path class="cls-8" d="M32.77,299.54c.69,6.12,1.18,9.73,1.18,9.73s9.11-9.12,19-19.87c0-2.77-.07-6.53-.12-10.9Z"/><path class="cls-8" d="M52.64,261.6,31.12,283.34c.46,5.1.93,9.62,1.34,13.41l20.33-21.32C52.74,271.2,52.69,266.54,52.64,261.6Z"/><path class="cls-13" d="M56.86,271.16,56,258.23l-3.33,3.37c0,4.94.1,9.6.15,13.83Z"/><path class="cls-13" d="M52.83,278.5c.05,4.37.09,8.13.12,10.9,1.6-1.73,3.2-3.5,4.8-5.29l-.69-10.05Z"/><polygon class="cls-10" points="58.9 272.13 57.34 270.65 56.86 271.16 57.06 274.06 58.9 272.13"/><path class="cls-10" d="M52.79,275.43,32.46,296.75c.11,1,.21,1.91.31,2.79l20.06-21C52.81,277.51,52.8,276.48,52.79,275.43Z"/><path class="cls-10" d="M52.83,278.5l4.23-4.44-.2-2.9-4.07,4.27C52.8,276.48,52.81,277.51,52.83,278.5Z"/><path class="cls-11" d="M64.08,129.72c6-4.79,15.08-12.47,19.85-16.55-2.8-.35-4.86-.52-4.86-.52L60.58,128,38.2,146.23a11.74,11.74,0,0,0,1.48,3.14C47.16,143.31,58.59,134.06,64.08,129.72Z"/><path class="cls-11" d="M88.74,151.2a8.83,8.83,0,0,0,9-7.39c.36-1.79-1.07-8.24-2.86-13.25s2.64-12,2.64-12a53.49,53.49,0,0,0,7.74,27.4c.8,1.33,2,3,3,4.62a67.43,67.43,0,0,0,9-4.7c-5-9.23-15.86-28.38-19.92-30a53.49,53.49,0,0,0-10.55-2.33c-4.12,3.54-14.62,12.51-21.38,17.86C59.94,135.73,48.55,145,41.07,151a12.36,12.36,0,0,0,6.44,2.87C54,155.09,81.94,151.2,88.74,151.2Z"/><path class="cls-11" d="M118.29,147.78a67,67,0,0,1-9,4.72c1.13,2.41,1.23,4.53-1.94,5.28-6.09,1.43-40.82,3.58-40.82,3.58l-16.47,2.4,29,.46s12.36,0,21-2.15,19.88-11.28,19.88-11.28S119.3,149.65,118.29,147.78Z"/><path class="cls-10" d="M84,158.58a73,73,0,0,0,25.34-6.08,18.51,18.51,0,0,0-1.06-1.92,71.09,71.09,0,0,1-24.39,5.86Z"/><path class="cls-12" d="M34.8,153.33l4.88-4a11.74,11.74,0,0,1-1.48-3.14L35,148.82Z"/><path class="cls-12" d="M107.36,157.78c3.17-.75,3.07-2.87,1.94-5.28A73,73,0,0,1,84,158.58l-.11-2.14a71.09,71.09,0,0,0,24.39-5.86c-1-1.65-2.23-3.29-3-4.62a53.49,53.49,0,0,1-7.74-27.4s-4.43,7-2.64,12,3.22,11.46,2.86,13.25a8.83,8.83,0,0,1-9,7.39c-6.8,0-34.78,3.89-41.23,2.68A12.36,12.36,0,0,1,41.07,151l-6.41,5.2-.36,7.3,15.77.25,16.47-2.4S101.27,159.21,107.36,157.78Z"/><path class="cls-11" d="M62.24,221.5c-.56,21.08-1.12,74.76-1.34,97.43h2.15c.22-22.68.78-76.32,1.34-97.38.4-15.14.1-53.14,0-63l-2.15.41C62.34,168.36,62.64,206.28,62.24,221.5Z"/><path class="cls-11" d="M56.37,160.37c-.47.15-.91.31-1.29.45v.89A5.26,5.26,0,0,1,56.37,160.37Z"/><path class="cls-11" d="M118,318.93c.74-33.21,2.92-130.18,3.33-137.88a104.33,104.33,0,0,0-1.68-22.15c-.71-4.08-1.36-6.76-1.36-6.76a21.89,21.89,0,0,1-9.94,3.49c-6.45.8-12.41-.43-20.68-.27-2.35,0-4.74.18-7.1.36-2.12.27-4.07.55-5.8.83V318.93Z"/><path class="cls-12" d="M74.77,328.87h43c0-1.68.12-5.15.23-9.94H74.77Z"/><path class="cls-12" d="M60.9,318.93c0,5.22-.08,8.78-.09,9.94H63c0-1.18,0-4.74.09-9.94Z"/><path class="cls-8" d="M62.26,159c0-.39,0-.75,0-1a16.07,16.07,0,0,0-5.88,2.45,24.92,24.92,0,0,1,3.2-.9Z"/><path class="cls-8" d="M62.24,221.5c.4-15.22.1-53.14,0-62.54l-2.69.51a24.92,24.92,0,0,0-3.2.9,5.26,5.26,0,0,0-1.29,1.34V318.93H60.9C61.12,296.26,61.68,242.58,62.24,221.5Z"/><path class="cls-8" d="M55.08,329h5.73v-.09H55.08Z"/><path class="cls-13" d="M60.81,328.87c0-1.16,0-4.72.09-9.94H55.08v9.94Z"/><path class="cls-8" d="M74.77,156.55v-.21c-1.9.18-6.2.36-10.37,1.12,0,.31,0,.68,0,1.09,2.74-.53,5.37-1,6.6-1.31C72.07,157,73.35,156.78,74.77,156.55Z"/><path class="cls-8" d="M64.39,221.55c-.56,21.06-1.12,74.7-1.34,97.38H74.77V156.55c-1.42.23-2.7.46-3.76.69-1.23.27-3.86.78-6.6,1.31C64.49,168.41,64.79,206.41,64.39,221.55Z"/><path class="cls-8" d="M63,329H74.77v-.09H63Z"/><path class="cls-13" d="M63.05,318.93c0,5.2-.08,8.76-.09,9.94H74.77v-9.94Z"/><path class="cls-10" d="M60.81,329.31l2.14,0s0-.16,0-.37H60.81Z"/><path class="cls-10" d="M64.4,157.46c-.73.14-1.45.29-2.15.46.06,7.22.4,47.73,0,63.58-.69,26-1.38,101.75-1.43,107.46H63c0-5.83.74-81.42,1.43-107.41C64.8,205.79,64.47,165.24,64.4,157.46Z"/><path class="cls-1" d="M80.41,163.69c-5.43-2.06-15.84-3.77-22.83-4.3S25.89,165,25.89,165l3.65-6.37-1.32,2.07-16.9-6.52c-1.43,3.57-4.23,11.19-4.23,15.92,0,5.37,1.61,12.89,8.59,14.51s37.6-12.9,37.6-12.9,6.45,4.84,18.27,4.84c4.83,0,16.38-.46,16.38-5.64C87.93,168,81.87,164.24,80.41,163.69Z"/><path class="cls-10" d="M52.75,114.53s-12.36,1.88-19.34,4-13,14.47-17.19,24.17c-4.66,10.75-4.93,11.46-4.93,11.46l0,0,17,6.62L35,149.18l25.34-21Z"/><path class="cls-8" d="M52.48,176.44a1.07,1.07,0,0,1-1-.73c-2.89-8.53-.65-17.3-.56-17.67a1.07,1.07,0,1,1,2.08.54c0,.09-2.16,8.54.52,16.44a1.08,1.08,0,0,1-.68,1.37A1.33,1.33,0,0,1,52.48,176.44Z"/><path class="cls-8" d="M47.91,177.79a1.06,1.06,0,0,1-1-.73c-2.89-8.54-.66-17.31-.56-17.68a1.07,1.07,0,0,1,2.07.55c0,.08-2.16,8.53.52,16.44a1.08,1.08,0,0,1-1,1.42Z"/><path class="cls-8" d="M43.08,178.86a1.07,1.07,0,0,1-1-.73c-2.89-8.53-.65-17.3-.56-17.67a1.07,1.07,0,1,1,2.08.54c0,.09-2.16,8.53.52,16.44a1.08,1.08,0,0,1-.68,1.36A1,1,0,0,1,43.08,178.86Z"/><circle class="cls-8" cx="42.68" cy="85.39" r="2.69"/><path class="cls-8" d="M92.9,85.39a2.69,2.69,0,1,1-2.68-2.69A2.68,2.68,0,0,1,92.9,85.39Z"/></svg>