<?xml version="1.0" encoding="utf-8"?>
<!-- Generator: Adobe Illustrator 24.0.3, SVG Export Plug-In . SVG Version: 6.00 Build 0)  -->
<svg version="1.1" id="Ebene_1" xmlns="http://www.w3.org/2000/svg" xmlns:xlink="http://www.w3.org/1999/xlink" x="0px" y="0px"
	 viewBox="0 0 1508.1 1695.4" style="enable-background:new 0 0 1508.1 1695.4;" xml:space="preserve">
<style type="text/css">
	.st0{opacity:0.1;}
	.st1{fill:#EA004D;}
	.st2{fill:#004488;}
	.st3{opacity:0.3;}
	.st4{fill:#FFEB13;}
	.st5{fill:#000744;}
	.st6{opacity:0.2;}
	.st7{fill:#005CB9;}
	.st8{fill:#F48000;}
	.st9{fill:#BBCDE5;}
	.st10{fill:#8075FC;}
	.st11{fill:#E40082;}
	.st12{fill:#5BCC00;}
	.st13{fill:#FFFB4E;}
	.st14{opacity:0.55;}
	.st15{fill:#FFFFFF;}
	.st16{fill:none;stroke:#FFFFFF;stroke-width:13.5012;stroke-miterlimit:10;}
	.st17{opacity:0.2;fill:#E3457A;}
	.st18{fill:#E3457A;}
	.st19{opacity:0.2;fill:#419237;}
	.st20{fill:#419237;}
	.st21{fill:#0F6BB4;}
	.st22{fill:#152882;}
	.st23{fill:#E33D1E;}
	.st24{fill:#F49230;}
	.st25{fill:#FFEE48;}
	.st26{fill:#E74A22;}
	.st27{fill:#92317D;}
	.st28{fill:#31A0E0;}
	.st29{fill:#3E9A8E;}
	.st30{fill:#90C034;}
</style>
<g>
	<g>
		<rect x="21" y="1472.2" class="st17" width="303.8" height="200.5"/>
		<rect x="372.2" y="1472.2" class="st18" width="303.8" height="200.5"/>
		<rect x="723.5" y="1472.2" class="st19" width="303.8" height="200.5"/>
		<rect x="1074.8" y="1472.2" class="st20" width="303.8" height="200.5"/>
	</g>
	<g>
		<path class="st21" d="M984.6,1006.2c-45.6,42.8-101.4,75.9-165,95.2l67.2,250.7c109.2-31.6,204.6-88.4,281.4-162.3L984.6,1006.2z"
			/>
		<path class="st18" d="M393,987.1c-42.8-45.6-75.9-101.4-95.2-165L47.1,889.3c31.6,109.2,88.4,204.6,162.3,281.4L393,987.1z"/>
		<path class="st22" d="M860.7,1359.1l-67.2-250.7c-64.7,15.2-129.6,14.4-190.5,0.1l-67.2,250.8
			C639.4,1384.8,750.4,1386.4,860.7,1359.1z"/>
		<path class="st23" d="M40.1,863.2l250.7-67.2c-15.2-64.7-14.4-129.6-0.1-190.5L40,538.4C14.3,641.9,12.8,752.9,40.1,863.2z"/>
		<path class="st24" d="M412.1,395.5c45.6-42.8,101.4-75.9,165-95.2L509.8,49.6c-109.2,31.6-204.6,88.4-281.4,162.3L412.1,395.5z"/>
		<path class="st25" d="M535.9,42.6l67.2,250.7c64.7-15.2,129.6-14.4,190.5-0.1l67.2-250.8C757.3,16.8,646.3,15.3,535.9,42.6z"/>
		<path class="st26" d="M297.7,579.5c18.7-61.5,51.3-118,95.2-164.9L209.4,231C133.4,310.2,77.6,406.9,47,512.3L297.7,579.5z"/>
		<path class="st27" d="M577,1101.4c-61.5-18.7-118-51.3-164.9-95.2l-183.6,183.6c79.2,76,175.9,131.8,281.3,162.4L577,1101.4z"/>
		<path class="st28" d="M1098.9,822.1c-18.7,61.5-51.3,118-95.2,164.9l183.6,183.6c76-79.2,131.8-175.9,162.4-281.3L1098.9,822.1z"
			/>
		<path class="st29" d="M1356.6,538.4l-250.7,67.2c15.2,64.7,14.4,129.6,0.1,190.5l250.8,67.2
			C1382.3,759.8,1383.8,648.8,1356.6,538.4z"/>
		<path class="st30" d="M819.6,300.2c61.5,18.7,118,51.3,164.9,95.2l183.6-183.6c-79.2-76-175.9-131.8-281.3-162.4L819.6,300.2z"/>
		<path class="st20" d="M1003.7,414.6c42.8,45.6,75.9,101.4,95.2,165l250.7-67.2c-31.6-109.2-88.4-204.6-162.3-281.4L1003.7,414.6z"
			/>
	</g>
	<g>
		<g>
			<path class="st24" d="M1486.5,302.5c1.9,0,1.9-3,0-3C1484.5,299.5,1484.5,302.5,1486.5,302.5L1486.5,302.5z"/>
		</g>
	</g>
</g>
</svg>
