<svg id="Layer_1" data-name="Layer 1" xmlns="http://www.w3.org/2000/svg" xmlns:xlink="http://www.w3.org/1999/xlink" viewBox="0 0 766 497"><defs><style>.cls-1,.cls-7,.cls-8{fill:#24305e;}.cls-2,.cls-4{fill:#f5ba2d;}.cls-3{fill:url(#linear-gradient);}.cls-15,.cls-4,.cls-7{font-size:30px;}.cls-15,.cls-4,.cls-7,.cls-8{font-family:MyriadPro-Regular, Myriad Pro;}.cls-5{letter-spacing:-0.05em;}.cls-6{letter-spacing:0em;}.cls-8{font-size:31px;}.cls-9{letter-spacing:-0.01em;}.cls-10{letter-spacing:-0.01em;}.cls-11,.cls-12,.cls-13,.cls-14{fill:none;stroke-miterlimit:10;}.cls-11,.cls-13{stroke:#24305e;}.cls-11,.cls-12{stroke-width:4px;}.cls-12,.cls-14{stroke:#f5ba2d;}.cls-13,.cls-14{stroke-width:2px;}.cls-15{fill:#a8d0e6;}.cls-16{letter-spacing:0em;}.cls-17{letter-spacing:0em;}.cls-18{letter-spacing:0em;}</style><linearGradient id="linear-gradient" x1="254.02" y1="338.39" x2="513.28" y2="338.39" gradientUnits="userSpaceOnUse"><stop offset="0" stop-color="#f5ba2d"/><stop offset="1" stop-color="#24305e"/></linearGradient></defs><title>kontrast</title><rect class="cls-1" x="495.96" y="10.9" width="260" height="63"/><rect class="cls-2" x="7.67" y="168" width="270" height="63"/><rect class="cls-2" x="11.16" y="10.89" width="260" height="63"/><path class="cls-3" d="M513.28,369.94H254.74a.71.71,0,0,1-.72-.71V306.85H513.28Z"/><text class="cls-4" transform="translate(590 54.46) scale(0.95 1)"><tspan class="cls-5">F</tspan><tspan x="13.26" y="0">a</tspan><tspan class="cls-6" x="27.72" y="0">r</tspan><tspan x="37.65" y="0">be</tspan></text><text class="cls-7" transform="translate(109 54.46) scale(0.95 1)"><tspan class="cls-5">F</tspan><tspan x="13.26" y="0">a</tspan><tspan class="cls-6" x="27.72" y="0">r</tspan><tspan x="37.65" y="0">be</tspan></text><text class="cls-8" transform="translate(19.8 209.56) scale(0.95 1)">Beleuchtungsstärke</text><rect class="cls-1" x="489.43" y="168" width="270" height="63"/><text class="cls-4" transform="translate(507.43 209.56) scale(0.95 1)">Beleuchtungsstärke</text><text class="cls-4" transform="translate(329.67 297.56) scale(0.95 1)">Di<tspan class="cls-9" x="27" y="0">ff</tspan><tspan x="44.1" y="0">e</tspan><tspan class="cls-10" x="59.13" y="0">r</tspan><tspan x="68.64" y="0">enz</tspan></text><line class="cls-11" x1="141" y1="74" x2="141" y2="168"/><line class="cls-12" x1="626" y1="74" x2="626" y2="168"/><line class="cls-11" x1="141" y1="231" x2="141" y2="338"/><line class="cls-12" x1="626" y1="231" x2="626" y2="338"/><line class="cls-11" x1="254" y1="338" x2="139" y2="338"/><line class="cls-12" x1="627.95" y1="338" x2="513.45" y2="338"/><line class="cls-13" x1="381" y1="370" x2="381" y2="433"/><line class="cls-14" x1="383" y1="370" x2="383" y2="433"/><line class="cls-11" x1="381" y1="431" x2="143" y2="431"/><line class="cls-12" x1="626" y1="431" x2="382" y2="431"/><line class="cls-11" x1="145" y1="433" x2="145" y2="458"/><line class="cls-12" x1="624" y1="433" x2="624" y2="458"/><text class="cls-15" transform="matrix(0.95, 0, 0, 1, 51.68, 488.11)">Hoher Ko<tspan class="cls-16" x="116.61" y="0">n</tspan><tspan x="133.14" y="0">t</tspan><tspan class="cls-17" x="143.07" y="0">r</tspan><tspan x="152.73" y="0">ast</tspan></text><text class="cls-4" transform="translate(514.67 488.56) scale(0.95 1)"><tspan class="cls-18">G</tspan><tspan x="19.53" y="0">e</tspan><tspan class="cls-6" x="34.56" y="0">r</tspan><tspan x="44.49" y="0">inger Ko</tspan><tspan class="cls-16" x="148.86" y="0">n</tspan><tspan x="165.39" y="0">t</tspan><tspan class="cls-17" x="175.32" y="0">r</tspan><tspan x="184.98" y="0">ast</tspan></text></svg>