<svg id="Layer_1" data-name="Layer 1" xmlns="http://www.w3.org/2000/svg" viewBox="0 0 742 536"><defs><style>.cls-1,.cls-3{font-size:12px;}.cls-1,.cls-18,.cls-2,.cls-23,.cls-3,.cls-4{font-family:MyriadPro-Regular, Myriad Pro;}.cls-18,.cls-2,.cls-23,.cls-4{font-size:20px;}.cls-2,.cls-3{fill:#a8d0e6;}.cls-18,.cls-30,.cls-5{fill:#f4b92d;}.cls-5{fill-rule:evenodd;}.cls-6{fill:#fcb034;}.cls-7{fill:#f47b20;}.cls-8{fill:#fd0;}.cls-9{fill:#f05133;}.cls-10{fill:#009fc2;}.cls-11{fill:#ad208e;}.cls-12{fill:#0067b1;}.cls-13{fill:#77278b;}.cls-14{fill:#492f92;}.cls-15{fill:#e31b23;}.cls-16{fill:#7bc143;}.cls-17{fill:#00b25a;}.cls-19{letter-spacing:0.02em;}.cls-20{letter-spacing:-0.04em;}.cls-21{letter-spacing:0em;}.cls-22{letter-spacing:0em;}.cls-23{fill:#24305e;}.cls-24{letter-spacing:0em;}.cls-25{letter-spacing:0em;}.cls-26{letter-spacing:0em;}.cls-27{letter-spacing:-0.04em;}.cls-28{letter-spacing:4.97em;}.cls-29{fill:none;}.cls-29,.cls-30{stroke:#374785;stroke-miterlimit:10;stroke-width:2px;}</style></defs><title>kontrast-wheel</title><text class="cls-1" transform="translate(206.49 105.73) rotate(-40.94)"> </text><text class="cls-1" transform="translate(208.41 104.07) rotate(-40.31)"> </text><text class="cls-1" transform="translate(210.32 102.44) rotate(-39.69)"> </text><text class="cls-1" transform="matrix(0.78, -0.63, 0.63, 0.78, 212.28, 100.82)"> </text><text class="cls-1" transform="translate(214.23 99.24) rotate(-38.44)"> </text><text class="cls-1" transform="matrix(0.79, -0.61, 0.61, 0.79, 216.19, 97.68)"> </text><text class="cls-1" transform="matrix(0.8, -0.6, 0.6, 0.8, 218.2, 96.12)"> </text><text class="cls-2" transform="translate(220.16 94.57) rotate(-35.65)">T</text><text class="cls-2" transform="translate(226.99 89.64) rotate(-33.55)">e</text><text class="cls-2" transform="translate(235.3 84.16) rotate(-31.5)">r</text><text class="cls-2" transform="matrix(0.87, -0.5, 0.5, 0.87, 240.91, 80.74)">i</text><text class="cls-2" transform="translate(244.91 78.41) rotate(-28.7)">t</text><text class="cls-2" transform="translate(250.66 75.23) rotate(-26.68)">ä</text><text class="cls-2" transform="matrix(0.91, -0.42, 0.42, 0.91, 259.21, 70.96)">r</text><text class="cls-2" transform="matrix(0.92, -0.4, 0.4, 0.92, 265.12, 68.26)"> </text><text class="cls-3" transform="translate(434.37 60.4) rotate(18.9)"> </text><text class="cls-3" transform="translate(436.77 61.23) rotate(19.53)"> </text><text class="cls-3" transform="matrix(0.94, 0.34, -0.34, 0.94, 439.13, 62.06)"> </text><text class="cls-3" transform="matrix(0.93, 0.35, -0.35, 0.93, 441.51, 62.94)"> </text><text class="cls-3" transform="matrix(0.93, 0.36, -0.36, 0.93, 443.86, 63.83)"> </text><text class="cls-3" transform="translate(446.2 64.75) rotate(22.03)"> </text><text class="cls-3" transform="translate(448.55 65.7) rotate(22.66)"> </text><text class="cls-2" transform="translate(450.88 66.62) rotate(24.2)">T</text><text class="cls-2" transform="matrix(0.9, 0.44, -0.44, 0.9, 458.57, 70.04)">e</text><text class="cls-2" transform="translate(467.48 74.48) rotate(28.35)">r</text><text class="cls-2" transform="translate(473.27 77.61) rotate(29.75)">i</text><text class="cls-2" transform="matrix(0.86, 0.52, -0.52, 0.86, 477.29, 79.9)">t</text><text class="cls-2" transform="matrix(0.84, 0.55, -0.55, 0.84, 482.92, 83.27)">ä</text><text class="cls-2" transform="matrix(0.82, 0.58, -0.58, 0.82, 490.91, 88.52)">r</text><text class="cls-2" transform="matrix(0.8, 0.59, -0.59, 0.8, 496.21, 92.27)"> </text><text class="cls-1" transform="translate(587.47 235.75) rotate(78.79)"> </text><text class="cls-1" transform="matrix(0.18, 0.98, -0.98, 0.18, 587.96, 238.23)"> </text><text class="cls-1" transform="matrix(0.17, 0.98, -0.98, 0.17, 588.42, 240.7)"> </text><text class="cls-1" transform="matrix(0.16, 0.99, -0.99, 0.16, 588.86, 243.2)"> </text><text class="cls-1" transform="matrix(0.15, 0.99, -0.99, 0.15, 589.27, 245.68)"> </text><text class="cls-1" transform="translate(589.65 248.16) rotate(81.91)"> </text><text class="cls-1" transform="matrix(0.13, 0.99, -0.99, 0.13, 590, 250.67)"> </text><text class="cls-2" transform="matrix(0.1, 0.99, -0.99, 0.1, 590.38, 253.15)">T</text><text class="cls-2" transform="translate(591.27 261.52) rotate(86.18)">e</text><text class="cls-2" transform="matrix(0.03, 1, -1, 0.03, 591.91, 271.45)">r</text><text class="cls-2" transform="translate(592.1 278.03) rotate(89.64)">i</text><text class="cls-2" transform="translate(592.14 282.65) rotate(91.03)">t</text><text class="cls-2" transform="matrix(-0.05, 1, -1, -0.05, 592.05, 289.22)">ä</text><text class="cls-2" transform="matrix(-0.09, 1, -1, -0.09, 591.52, 298.77)">r</text><text class="cls-4" transform="translate(590.93 305.23) rotate(96.39)"> </text><text class="cls-1" transform="translate(511.87 455.51) rotate(138.79)"> </text><text class="cls-1" transform="matrix(-0.76, 0.65, -0.65, -0.76, 509.96, 457.18)"> </text><text class="cls-1" transform="translate(508.05 458.81) rotate(140.04)"> </text><text class="cls-1" transform="translate(506.11 460.44) rotate(140.67)"> </text><text class="cls-1" transform="translate(504.17 462.03) rotate(141.29)"> </text><text class="cls-1" transform="matrix(-0.79, 0.62, -0.62, -0.79, 502.21, 463.6)"> </text><text class="cls-1" transform="matrix(-0.79, 0.61, -0.61, -0.79, 500.21, 465.17)"> </text><text class="cls-2" transform="translate(498.26 466.73) rotate(144.08)">T</text><text class="cls-2" transform="matrix(-0.83, 0.56, -0.56, -0.83, 491.45, 471.69)">e</text><text class="cls-2" transform="translate(483.17 477.21) rotate(148.23)">r</text><text class="cls-2" transform="translate(477.57 480.66) rotate(149.64)">i</text><text class="cls-2" transform="matrix(-0.87, 0.48, -0.48, -0.87, 473.58, 483.01)">t</text><text class="cls-2" transform="matrix(-0.89, 0.45, -0.45, -0.89, 467.85, 486.22)">ä</text><text class="cls-2" transform="translate(459.32 490.53) rotate(155.06)">r</text><text class="cls-2" transform="translate(453.42 493.25) rotate(156.39)"> </text><text class="cls-1" transform="translate(283.76 501.25) rotate(-160.67)"> </text><text class="cls-1" transform="matrix(-0.94, -0.34, 0.34, -0.94, 281.36, 500.41)"> </text><text class="cls-1" transform="translate(279.01 499.56) rotate(-159.42)"> </text><text class="cls-1" transform="translate(276.63 498.66) rotate(-158.79)"> </text><text class="cls-1" transform="matrix(-0.93, -0.37, 0.37, -0.93, 274.29, 497.76)"> </text><text class="cls-3" transform="translate(271.96 496.82) rotate(-157.54)"> </text><text class="cls-3" transform="translate(269.61 495.85) rotate(-156.91)"> </text><text class="cls-2" transform="translate(267.29 494.92) rotate(-155.37)">T</text><text class="cls-2" transform="translate(259.63 491.43) rotate(-153.27)">e</text><text class="cls-2" transform="translate(250.75 486.93) rotate(-151.23)">r</text><text class="cls-2" transform="matrix(-0.86, -0.5, 0.5, -0.86, 244.99, 483.76)">i</text><text class="cls-2" transform="matrix(-0.85, -0.52, 0.52, -0.85, 240.99, 481.44)">t</text><text class="cls-2" transform="matrix(-0.83, -0.55, 0.55, -0.83, 235.37, 478.02)">ä</text><text class="cls-2" transform="matrix(-0.81, -0.58, 0.58, -0.81, 227.42, 472.71)">r</text><text class="cls-4" transform="translate(222.15 468.92) rotate(-143.06)"> </text><text class="cls-1" transform="matrix(-0.2, -0.98, 0.98, -0.2, 131.01, 324.73)"> </text><text class="cls-1" transform="matrix(-0.19, -0.98, 0.98, -0.19, 130.51, 322.25)"> </text><text class="cls-1" transform="translate(130.04 319.78) rotate(-100.07)"> </text><text class="cls-1" transform="matrix(-0.16, -0.99, 0.99, -0.16, 129.6, 317.28)"> </text><text class="cls-1" transform="translate(129.19 314.81) rotate(-98.82)"> </text><text class="cls-3" transform="translate(128.8 312.32) rotate(-98.19)"> </text><text class="cls-3" transform="translate(128.44 309.81) rotate(-97.56)"> </text><text class="cls-2" transform="matrix(-0.1, -0.99, 0.99, -0.1, 128.06, 307.34)">T</text><text class="cls-2" transform="translate(127.15 298.97) rotate(-93.92)">e</text><text class="cls-2" transform="translate(126.5 289.03) rotate(-91.88)">r</text><text class="cls-2" transform="matrix(-0.01, -1, 1, -0.01, 126.3, 282.46)">i</text><text class="cls-2" transform="translate(126.25 277.83) rotate(-89.07)">t</text><text class="cls-2" transform="translate(126.32 271.27) rotate(-87.06)">ä</text><text class="cls-2" transform="translate(126.84 261.72) rotate(-85.05)">r</text><text class="cls-4" transform="translate(127.41 255.25) rotate(-83.71)"> </text><text class="cls-1" transform="translate(138.67 205.29) rotate(-70.68)"> </text><text class="cls-1" transform="translate(139.51 202.9) rotate(-70.05)"> </text><text class="cls-2" transform="translate(140.31 200.55) rotate(-68.53)">S</text><text class="cls-2" transform="translate(143.94 191.33) rotate(-66.05)">e</text><text class="cls-2" transform="translate(147.97 182.27) rotate(-63.66)">k</text><text class="cls-2" transform="translate(152.11 173.86) rotate(-61.13)">u</text><text class="cls-2" transform="translate(157.39 164.27) rotate(-58.39)">n</text><text class="cls-2" transform="matrix(0.56, -0.83, 0.83, 0.56, 163.15, 154.92)">d</text><text class="cls-2" transform="translate(169.49 145.67) rotate(-53.02)">ä</text><text class="cls-2" transform="translate(175.27 138.04) rotate(-51.01)">r</text><text class="cls-4" transform="matrix(0.65, -0.76, 0.76, 0.65, 179.36, 133.01)"> </text><text class="cls-1" transform="translate(534.6 127.96) rotate(49.57)"> </text><text class="cls-1" transform="translate(536.24 129.9) rotate(50.2)"> </text><text class="cls-2" transform="translate(537.86 131.77) rotate(51.72)">S</text><text class="cls-2" transform="matrix(0.59, 0.81, -0.81, 0.59, 544, 139.54)">e</text><text class="cls-2" transform="translate(549.8 147.59) rotate(56.58)">k</text><text class="cls-2" transform="matrix(0.51, 0.86, -0.86, 0.51, 554.98, 155.4)">u</text><text class="cls-2" transform="matrix(0.47, 0.88, -0.88, 0.47, 560.6, 164.8)">n</text><text class="cls-2" transform="translate(565.79 174.48) rotate(64.62)">d</text><text class="cls-2" transform="translate(570.58 184.62) rotate(67.22)">ä</text><text class="cls-2" transform="translate(574.26 193.45) rotate(69.23)">r</text><text class="cls-2" transform="matrix(0.33, 0.94, -0.94, 0.33, 576.55, 199.52)"> </text><text class="cls-1" transform="translate(403.93 509.6) rotate(169.62)"> </text><text class="cls-1" transform="translate(401.43 510.06) rotate(170.25)"> </text><text class="cls-2" transform="matrix(-0.99, 0.14, -0.14, -0.99, 399, 510.53)">S</text><text class="cls-2" transform="matrix(-0.99, 0.1, -0.1, -0.99, 389.2, 511.95)">e</text><text class="cls-2" transform="translate(379.32 512.94) rotate(176.63)">k</text><text class="cls-2" transform="translate(369.97 513.51) rotate(179.16)">u</text><text class="cls-2" transform="translate(359.03 513.67) rotate(-178.1)">n</text><text class="cls-2" transform="translate(348.05 513.31) rotate(-175.33)">d</text><text class="cls-2" transform="translate(336.88 512.38) rotate(-172.73)">ä</text><text class="cls-2" transform="translate(327.39 511.15) rotate(-170.72)">r</text><text class="cls-2" transform="translate(320.98 510.09) rotate(-169.38)"> </text><text class="cls-3" transform="translate(314.21 53.49) rotate(-11.25)"> </text><text class="cls-3" transform="matrix(0.98, -0.18, 0.18, 0.98, 316.7, 52.99)"> </text><text class="cls-3" transform="translate(319.16 52.53) rotate(-10)"> </text><text class="cls-3" transform="translate(321.66 52.09) rotate(-9.37)"> </text><text class="cls-3" transform="translate(324.14 51.68) rotate(-8.75)"> </text><text class="cls-3" transform="matrix(0.99, -0.14, 0.14, 0.99, 326.62, 51.3)"> </text><text class="cls-3" transform="translate(329.13 50.94) rotate(-7.5)"> </text><text class="cls-2" transform="matrix(0.99, -0.1, 0.1, 0.99, 331.6, 50.55)">P</text><text class="cls-2" transform="translate(341.8 49.53) rotate(-3.83)">r</text><text class="cls-2" transform="translate(348.35 49.11) rotate(-2.43)">i</text><text class="cls-2" transform="translate(352.92 48.77) rotate(0.2)">m</text><text class="cls-2" transform="matrix(1, 0.06, -0.06, 1, 369.49, 48.93)">ä</text><text class="cls-2" transform="matrix(1, 0.1, -0.1, 1, 379.04, 49.53)">r</text><text class="cls-2" transform="matrix(0.99, 0.12, -0.12, 0.99, 385.5, 50.16)"> </text><text class="cls-1" transform="translate(579.47 355.83) rotate(108.81)"> </text><text class="cls-1" transform="matrix(-0.33, 0.94, -0.94, -0.33, 578.65, 358.24)"> </text><text class="cls-1" transform="translate(577.82 360.6) rotate(110.06)"> </text><text class="cls-1" transform="translate(576.95 362.99) rotate(110.69)"> </text><text class="cls-1" transform="translate(576.06 365.34) rotate(111.31)"> </text><text class="cls-1" transform="translate(575.15 367.67) rotate(111.94)"> </text><text class="cls-1" transform="translate(574.2 370.03) rotate(112.57)"> </text><text class="cls-2" transform="translate(573.3 372.35) rotate(114.19)">P</text><text class="cls-2" transform="translate(569.07 381.69) rotate(116.23)">r</text><text class="cls-2" transform="matrix(-0.46, 0.89, -0.89, -0.46, 566.16, 387.58)">i</text><text class="cls-2" transform="matrix(-0.5, 0.86, -0.86, -0.5, 564.15, 391.7)">m</text><text class="cls-2" transform="matrix(-0.55, 0.83, -0.83, -0.55, 555.72, 405.97)">ä</text><text class="cls-2" transform="translate(550.41 413.93) rotate(125.53)">r</text><text class="cls-2" transform="translate(546.63 419.2) rotate(126.87)"> </text><text class="cls-3" transform="translate(183.44 433.39) rotate(-131.25)"> </text><text class="cls-3" transform="matrix(-0.65, -0.76, 0.76, -0.65, 181.77, 431.48)"> </text><text class="cls-3" transform="matrix(-0.64, -0.77, 0.77, -0.64, 180.13, 429.58)"> </text><text class="cls-3" transform="translate(178.5 427.63) rotate(-129.37)"> </text><text class="cls-3" transform="matrix(-0.63, -0.78, 0.78, -0.63, 176.91, 425.69)"> </text><text class="cls-3" transform="translate(175.34 423.74) rotate(-128.12)"> </text><text class="cls-3" transform="translate(173.77 421.74) rotate(-127.49)"> </text><text class="cls-2" transform="translate(172.21 419.8) rotate(-125.87)">P</text><text class="cls-2" transform="translate(166.23 411.47) rotate(-123.83)">r</text><text class="cls-2" transform="matrix(-0.54, -0.84, 0.84, -0.54, 162.58, 406.01)">i</text><text class="cls-2" transform="matrix(-0.5, -0.87, 0.87, -0.5, 160, 402.22)">m</text><text class="cls-2" transform="matrix(-0.45, -0.89, 0.89, -0.45, 151.86, 387.79)">ä</text><text class="cls-2" transform="matrix(-0.42, -0.91, 0.91, -0.42, 147.61, 379.22)">r</text><text class="cls-2" transform="matrix(-0.39, -0.92, 0.92, -0.39, 144.92, 373.3)"> </text><path class="cls-5" d="M300.87,58.91a227.64,227.64,0,0,1,59.33-8c126.14-.42,228.74,102.09,229.17,229,.36,106.57-71.48,196.44-169.23,222.74"/><path class="cls-6" d="M410.26,95a192.25,192.25,0,0,1,84.05,48.58l26.5-26.5A229.74,229.74,0,0,0,420,58.83Z"/><path class="cls-7" d="M496.21,145.52a192.34,192.34,0,0,1,48.58,84l36.21-9.7A229.8,229.8,0,0,0,522.71,119Z"/><path class="cls-8" d="M300.86,58.13l9.7,36.21a194,194,0,0,1,97.11,0l9.7-36.2a231.49,231.49,0,0,0-116.51,0Z"/><path class="cls-9" d="M581.7,222.46l-36.21,9.7a193.83,193.83,0,0,1,0,97.11L581.7,339a231.49,231.49,0,0,0,0-116.51Z"/><path class="cls-10" d="M136.53,339l36.21-9.71a193.79,193.79,0,0,1,0-97.1l-36.21-9.7a231.49,231.49,0,0,0,0,116.51Z"/><path class="cls-11" d="M494.31,417.8a192.26,192.26,0,0,1-84.05,48.59L420,502.6a229.74,229.74,0,0,0,100.85-58.29Z"/><path class="cls-12" d="M222,415.91a192.32,192.32,0,0,1-48.58-84.06l-36.21,9.7a229.78,229.78,0,0,0,58.29,100.86Z"/><path class="cls-13" d="M417.37,503.29l-9.7-36.2a193.79,193.79,0,0,1-97.1,0l-9.71,36.2a231.49,231.49,0,0,0,116.51,0Z"/><path class="cls-14" d="M308,466.39a192.24,192.24,0,0,1-84.06-48.59l-26.5,26.5a229.7,229.7,0,0,0,100.86,58.3Z"/><path class="cls-15" d="M544.79,331.85a192.32,192.32,0,0,1-48.58,84.06l26.5,26.5A229.78,229.78,0,0,0,581,341.55Z"/><path class="cls-16" d="M223.92,143.62A192.22,192.22,0,0,1,308,95l-9.7-36.21a229.68,229.68,0,0,0-100.86,58.29Z"/><path class="cls-17" d="M173.44,229.57a192.34,192.34,0,0,1,48.58-84L195.52,119a229.83,229.83,0,0,0-58.29,100.86Z"/><text class="cls-18" transform="matrix(0.97, -0.26, 0.26, 0.97, 294.89, 447.77)"><tspan class="cls-19">k</tspan><tspan x="9.74" y="0">alt </tspan><tspan class="cls-20" x="34.96" y="0">F</tspan><tspan x="43.8" y="0">a</tspan><tspan class="cls-21" x="53.44" y="0">r</tspan><tspan class="cls-22" x="60.06" y="0">ben</tspan></text><text class="cls-23" transform="matrix(0.97, -0.26, 0.26, 0.97, 341.18, 160.95)"><tspan class="cls-24">w</tspan><tspan class="cls-25" x="14.64" y="0">a</tspan><tspan class="cls-26" x="24.28" y="0">r</tspan><tspan x="30.9" y="0">m </tspan><tspan class="cls-27" x="51.82" y="0">F</tspan><tspan x="60.66" y="0">a</tspan><tspan class="cls-21" x="70.3" y="0">r</tspan><tspan class="cls-22" x="76.92" y="0">ben</tspan></text><text class="cls-18" transform="matrix(0.92, -0.25, 0.26, 0.97, 238.41, 308.14)">geringe<tspan x="-49.96" y="24">Beleuchtungsstärke</tspan></text><text class="cls-23" transform="matrix(0.92, -0.25, 0.26, 0.97, 428.27, 257.3)">hoher<tspan x="-57.45" y="24">Beleuchtungsstärke</tspan></text><text class="cls-18" transform="translate(-3.7 232.55) scale(0.95 1)"><tspan xml:space="preserve">        Guter</tspan><tspan class="cls-28" x="-103.68" y="24">	</tspan><tspan x="-0.02" y="24" xml:space="preserve">     Kontrast                      </tspan></text><text class="cls-18" transform="translate(618.98 232.55) scale(0.95 1)"><tspan xml:space="preserve">        Schlechter</tspan><tspan class="cls-28" x="-83.29" y="24">	</tspan><tspan x="20.37" y="24" xml:space="preserve">     Kontrast                      </tspan></text><circle class="cls-9" cx="544" cy="177" r="12.5"/><circle class="cls-12" cx="466" cy="98" r="12.5"/><circle class="cls-7" cx="570" cy="283" r="12.5"/><circle class="cls-6" cx="177" cy="388" r="12.5"/><line class="cls-29" x1="586" y1="173" x2="623" y2="173"/><line class="cls-29" x1="101" y1="388" x2="128" y2="388"/><line class="cls-29" x1="609.5" y1="283" x2="623" y2="283"/><line class="cls-30" x1="622" y1="284" x2="622" y2="173"/><line class="cls-29" x1="83" y1="230" x2="102" y2="230"/><line class="cls-29" x1="623" y1="230" x2="642" y2="230"/><line class="cls-29" x1="466" y1="51" x2="466" y2="23"/><line class="cls-29" x1="467" y1="23" x2="101" y2="23"/><line class="cls-29" x1="102" y1="388" x2="102" y2="230"/><line class="cls-29" x1="102" y1="230" x2="102" y2="23"/></svg>