<svg id="Layer_1" data-name="Layer 1" xmlns="http://www.w3.org/2000/svg" viewBox="0 0 865.78 866.07"><defs><style>.cls-1,.cls-4{fill:#24305e;}.cls-2,.cls-4{font-size:49.51px;font-family:MicrosoftSansSerif, Microsoft Sans Serif;}.cls-2,.cls-3{fill:#f5ba2d;}</style></defs><title>kontrast</title><path class="cls-1" d="M432.84,0C193.79,0,0,193.79,0,432.84S193.79,865.68,432.84,865.68"/><text class="cls-2" transform="translate(183.33 172) rotate(-41.27)">F</text><text class="cls-2" transform="translate(240.72 127.38) rotate(-29.98)">a</text><text class="cls-2" transform="matrix(0.94, -0.34, 0.34, 0.94, 303.67, 96.09)">r</text><text class="cls-2" transform="translate(360.55 79.38) rotate(-9.28)">b</text><path class="cls-3" d="M432.94.39C672,.39,865.78,194.18,865.78,433.23S672,866.07,432.94,866.07"/><text class="cls-4" transform="translate(451.64 73.57) rotate(4.3)"> </text><text class="cls-4" transform="translate(468.91 74.66) rotate(8.41)">K</text><text class="cls-4" transform="matrix(0.94, 0.34, -0.34, 0.94, 544.91, 90.68)">o</text><text class="cls-4" transform="translate(611.28 119.24) rotate(30.9)">n</text><text class="cls-4" transform="matrix(0.76, 0.65, -0.65, 0.76, 670.95, 160.2)">t</text><text class="cls-4" transform="translate(713.04 201.22) rotate(50.02)">r</text><text class="cls-4" transform="matrix(0.5, 0.87, -0.87, 0.5, 749.69, 250.39)">a</text><text class="cls-4" transform="translate(781.64 315.2) rotate(71.24)">s</text><text class="cls-4" transform="translate(799.83 382.4) rotate(81.21)">t</text></svg>