<svg xmlns="http://www.w3.org/2000/svg" xmlns:xlink="http://www.w3.org/1999/xlink" viewBox="0 0 1920 1080"><defs><style>.cls-1,.cls-12,.cls-14,.cls-17,.cls-20,.cls-23,.cls-25,.cls-38,.cls-39,.cls-40,.cls-41,.cls-42,.cls-43,.cls-44,.cls-45,.cls-6,.cls-7{fill:none;}.cls-2{isolation:isolate;}.cls-3{fill:#9baa31;}.cls-4{fill:#c6ce57;}.cls-5{fill:#897e1d;}.cls-6,.cls-7{stroke:#897e1d;}.cls-12,.cls-14,.cls-17,.cls-20,.cls-23,.cls-25,.cls-38,.cls-39,.cls-40,.cls-41,.cls-42,.cls-43,.cls-44,.cls-45,.cls-46,.cls-47,.cls-48,.cls-6,.cls-7{stroke-miterlimit:10;}.cls-6{stroke-width:0.76px;}.cls-7{stroke-width:0.45px;}.cls-8{fill:#646622;}.cls-9{fill:#f44753;}.cls-10{fill:#d83a4a;}.cls-11{fill:#919334;}.cls-12,.cls-45{stroke:#d83a4a;}.cls-12,.cls-17,.cls-20,.cls-23,.cls-38,.cls-39,.cls-40{stroke-linecap:round;}.cls-12{stroke-width:0.45px;}.cls-13{fill:#2e2d33;}.cls-14,.cls-25,.cls-38,.cls-39,.cls-40,.cls-41,.cls-42{stroke:#ffb600;}.cls-14{stroke-width:1.18px;}.cls-15{fill:#fff;}.cls-16{clip-path:url(#clip-path);}.cls-17{stroke:#2e2d33;}.cls-17,.cls-25{stroke-width:0.89px;}.cls-18{fill:#404247;}.cls-19{fill:#272530;}.cls-20{stroke:#515356;stroke-width:1.57px;}.cls-21{fill:#261d1b;}.cls-22{fill:#422d27;}.cls-23{stroke:#261d1b;stroke-width:1.11px;}.cls-24{fill:#44302b;}.cls-26{fill:#e69100;}.cls-27,.cls-28{fill:#fb0;}.cls-28{opacity:0.2;mix-blend-mode:screen;}.cls-29{fill:#a284b2;}.cls-30{fill:#1098af;}.cls-31{fill:#b7d66a;}.cls-32,.cls-35{fill:#ff5971;}.cls-32{fill-rule:evenodd;}.cls-33{fill:#ffe0a8;}.cls-34{fill:#19c1ce;}.cls-36{fill:#be95ac;}.cls-37{fill:#865b91;}.cls-38,.cls-39,.cls-40,.cls-41,.cls-42,.cls-43,.cls-44,.cls-45,.cls-46,.cls-47,.cls-48{stroke-width:4px;}.cls-39{stroke-dasharray:20.8 26;}.cls-40{stroke-dasharray:20.71 25.89;}.cls-42{stroke-dasharray:20.78 25.98;}.cls-43,.cls-44{stroke:#fb0;}.cls-44{stroke-dasharray:20.4 25.51;}.cls-46{stroke:#865b91;}.cls-47{stroke:#c6ce57;}.cls-48{fill:#606060;stroke:#f44753;}</style><clipPath id="clip-path"><path class="cls-1" d="M635.22,563.18a22.11,22.11,0,0,1,7.12-4.92,9.2,9.2,0,0,1,2.54-.82l0,.09a56.71,56.71,0,0,1-4.84,9.9h0a4.67,4.67,0,0,1-3.18-1.2A9.74,9.74,0,0,1,635.22,563.18Z"/></clipPath></defs><title>Artboard 1</title><g class="cls-2"><g id="OBJECTS"><path class="cls-3" d="M1527.1,954.74H274.74s48.41-18.76,129.74-50l3.61-1.39c51.79-19.89,114.57-17.41,168.25-8.54,66.8,11,119.52,31.92,119.52,31.92s9.52-6,28.85-14.33c44.33-19.16,140.25-50.93,291-52,72.3-.53,150.14,8.76,222.72,21.7C1394.94,910,1527.1,954.74,1527.1,954.74Z"/><path class="cls-4" d="M576.34,894.83l-171.86,9.93,3.61-1.39C459.88,883.48,522.66,886,576.34,894.83Z"/><path class="cls-4" d="M1238.44,882.09,724.71,912.42c44.33-19.16,140.25-50.93,291-52C1088,859.86,1165.86,869.15,1238.44,882.09Z"/><path class="cls-3" d="M315.64,989.8s137-32.62,332.87-1.13Z"/><path class="cls-3" d="M824.58,989.8s306-45.89,743.45-1.59Z"/><path class="cls-4" d="M561.65,962.37c4.67.15,392.23,4.14,387.43,3.39S760.4,988.89,760.4,988.89h-64Z"/><path class="cls-4" d="M280.5,967.13s166.28,1.1,163.18-1.37-137,15.79-137,15.79Z"/><path class="cls-4" d="M1158,959,1518,962.37s24,13.78,21.67,13.26Z"/><path class="cls-5" d="M740.88,936.74c3.52,2.29,6.22,11.49,6.22,11.49s-9.5,1.27-13-1-4.85-6.48-3-9.37S737.37,934.45,740.88,936.74Z"/><path class="cls-5" d="M742.22,926.5c2.81,1.83,5,9.17,5,9.17s-7.59,1-10.4-.81-3.87-5.18-2.37-7.49S739.41,924.67,742.22,926.5Z"/><path class="cls-5" d="M744.06,916.3c2.57,1.67,4.55,8.41,4.55,8.41s-7,.93-9.53-.75-3.55-4.74-2.18-6.86S741.48,914.62,744.06,916.3Z"/><path class="cls-5" d="M749.19,908.19c1.76,2.38,1.26,9.14,1.26,9.14s-6.6-1.52-8.36-3.91-1.6-5.49.37-6.94S747.43,905.8,749.19,908.19Z"/><path class="cls-5" d="M759.6,919.56c-2.87.74-9-2.26-9-2.26s3.89-5.55,6.76-6.29,5.69.58,6.29,2.94S762.47,918.83,759.6,919.56Z"/><path class="cls-5" d="M757.05,928.44c-2.95.25-8.44-3.72-8.44-3.72s4.75-4.82,7.71-5.07,5.51,1.52,5.72,4S760,928.2,757.05,928.44Z"/><path class="cls-5" d="M757.5,938.08c-3.23.87-10.12-2.44-10.12-2.44s4.32-6.31,7.55-7.17,6.42.59,7.13,3.24S760.73,937.22,757.5,938.08Z"/><path class="cls-5" d="M758.37,950.57c-3.6,1-11.27-2.73-11.27-2.73s4.8-7,8.4-8,7.16.66,8,3.62S762,949.6,758.37,950.57Z"/><path class="cls-5" d="M759.63,908.85c-1.42,2.61-7.75,5-7.75,5s-1.42-6.62,0-9.23,4.3-3.77,6.44-2.61S761,906.25,759.63,908.85Z"/><path class="cls-6" d="M752.56,912.27c-7.56,15.22-5.07,42.9-5.07,42.9"/><path class="cls-5" d="M1140.82,917.69c-3.52,2.28-6.22,11.48-6.22,11.48s9.51,1.27,13-1,4.85-6.49,3-9.38S1144.34,915.4,1140.82,917.69Z"/><path class="cls-5" d="M1139.49,907.45c-2.81,1.82-5,9.17-5,9.17s7.59,1,10.4-.81,3.87-5.18,2.37-7.49S1142.29,905.62,1139.49,907.45Z"/><path class="cls-5" d="M1137.64,897.24c-2.57,1.68-4.55,8.41-4.55,8.41s7,.93,9.54-.74,3.54-4.75,2.17-6.87S1140.22,895.57,1137.64,897.24Z"/><path class="cls-5" d="M1132.51,889.13c-1.76,2.39-1.26,9.15-1.26,9.15s6.6-1.52,8.36-3.91,1.6-5.49-.36-6.94S1134.27,886.75,1132.51,889.13Z"/><path class="cls-5" d="M1122.1,900.51c2.88.73,9-2.27,9-2.27s-3.89-5.55-6.76-6.28-5.69.58-6.29,2.94S1119.23,899.77,1122.1,900.51Z"/><path class="cls-5" d="M1124.65,909.39c2.95.25,8.44-3.72,8.44-3.72s-4.75-4.83-7.71-5.08-5.51,1.53-5.71,3.95S1121.69,909.14,1124.65,909.39Z"/><path class="cls-5" d="M1124.2,919c3.23.87,10.12-2.44,10.12-2.44s-4.32-6.31-7.55-7.17-6.42.58-7.13,3.24S1121,918.17,1124.2,919Z"/><path class="cls-5" d="M1123.33,931.51c3.6,1,11.27-2.72,11.27-2.72s-4.8-7-8.4-8-7.16.66-8,3.61S1119.73,930.55,1123.33,931.51Z"/><path class="cls-5" d="M1122.08,889.8c1.41,2.61,7.74,5,7.74,5s1.43-6.63,0-9.23-4.3-3.78-6.44-2.61S1120.66,887.2,1122.08,889.8Z"/><path class="cls-6" d="M1129.14,893.22c7.56,15.22,5.07,42.89,5.07,42.89-.7,11.64-1.12,18.44-1.12,18.44"/><path class="cls-5" d="M357,934c2.08,1.35,3.67,6.77,3.67,6.77s-5.61.75-7.68-.59-2.86-3.83-1.75-5.53S355,932.62,357,934Z"/><path class="cls-5" d="M357.81,927.93c1.65,1.07,2.93,5.41,2.93,5.41s-4.48.6-6.14-.48-2.28-3.05-1.4-4.42S356.15,926.85,357.81,927.93Z"/><path class="cls-5" d="M358.89,921.91c1.52,1,2.69,5,2.69,5s-4.11.55-5.62-.44a2.75,2.75,0,1,1,2.93-4.52Z"/><path class="cls-5" d="M361.92,917.12c1,1.41.75,5.4.75,5.4s-3.9-.9-4.94-2.31a2.65,2.65,0,1,1,4.19-3.09Z"/><path class="cls-5" d="M368.06,923.83c-1.69.44-5.28-1.33-5.28-1.33s2.3-3.28,4-3.71a2.65,2.65,0,1,1,1.29,5Z"/><path class="cls-5" d="M366.56,929.07c-1.74.15-5-2.19-5-2.19s2.8-2.85,4.55-3a2.65,2.65,0,1,1,.43,5.18Z"/><path class="cls-5" d="M366.82,934.76c-1.9.51-6-1.44-6-1.44s2.54-3.72,4.45-4.23,3.79.35,4.21,1.91S368.73,934.25,366.82,934.76Z"/><path class="cls-5" d="M367.34,942.13c-2.13.56-6.65-1.61-6.65-1.61s2.83-4.15,5-4.71,4.22.38,4.69,2.13S369.46,941.56,367.34,942.13Z"/><path class="cls-5" d="M368.08,917.52c-.84,1.54-4.57,3-4.57,3s-.84-3.91,0-5.45a2.66,2.66,0,1,1,4.58,2.49Z"/><path class="cls-7" d="M363.91,919.53c-4.46,9-3,25.31-3,25.31.41,6.87.66,10.87.66,10.87"/><path class="cls-8" d="M1019.91,954.55s.23-13.43-3.9-21.92c0,0,8.49,10.1,10.32,14.23,0,0-1.38-18.58-4.13-24,0,0,11.7,13.87,15.14,20.75,0,0-.23-11.93-1.6-15.37,0,0,10.78,13.26,13.07,26.47Z"/><path class="cls-4" d="M1322.66,954.65s.23-6.72-4-11c0,0,8.6,5,10.46,7.11,0,0-1.4-9.29-4.18-12,0,0,11.85,6.93,15.33,10.37,0,0-.23-6-1.62-7.68,0,0,10.92,6.63,13.24,13.23Z"/><path class="cls-4" d="M884.27,954.63s.14-8.08-2.35-13.18c0,0,5.11,6.07,6.21,8.55,0,0-.83-11.17-2.48-14.41,0,0,7,8.34,9.1,12.48,0,0-.13-7.18-1-9.24,0,0,6.48,8,7.86,15.91Z"/><path class="cls-4" d="M586.08,954.6s-.34-10.16,5.66-16.58c0,0-12.33,7.64-15,10.76,0,0,2-14,6-18.13,0,0-17,10.5-22,15.7,0,0,.33-9,2.33-11.62,0,0-15.67,10-19,20Z"/><path class="cls-8" d="M1044.3,979.59a33.48,33.48,0,0,1,4.53-7.07,41.52,41.52,0,0,1,6-5.94,42.06,42.06,0,0,1,7.07-4.61,32.9,32.9,0,0,1,7.87-2.93c-2.43,1.38-4.81,2.76-7.1,4.25s-4.5,3.09-6.61,4.81-4.14,3.53-6.09,5.44S1046.16,977.5,1044.3,979.59Z"/><path class="cls-8" d="M1056.08,978.62a21.11,21.11,0,0,1,3.3-4.11,28.94,28.94,0,0,1,4.08-3.33,28.08,28.08,0,0,1,4.63-2.53,20.52,20.52,0,0,1,5-1.52c-1.44,1-2.89,2-4.32,2.87l-4.25,2.81-4.2,2.87C1059,976.66,1057.57,977.66,1056.08,978.62Z"/><path class="cls-8" d="M1032.41,979.83a17.89,17.89,0,0,1,2.57-4.72,23.52,23.52,0,0,1,8.22-6.91,17.75,17.75,0,0,1,5.1-1.72c-1.47,1-2.91,2-4.3,3s-2.74,2.08-4,3.17-2.58,2.24-3.82,3.44S1033.69,978.56,1032.41,979.83Z"/><path class="cls-8" d="M1032,890.41a19.72,19.72,0,0,1,3.17-4.24,25.95,25.95,0,0,1,8.72-5.92,19.26,19.26,0,0,1,5.11-1.39c-1.49,1-3,1.85-4.41,2.75s-2.86,1.83-4.26,2.77-2.78,1.93-4.15,2.94S1033.42,889.38,1032,890.41Z"/><path class="cls-8" d="M1048.17,891.9a27.33,27.33,0,0,1,3.89-4.49,37.54,37.54,0,0,1,4.64-3.71,35.65,35.65,0,0,1,5.18-2.92,27.08,27.08,0,0,1,5.62-1.94c-1.62,1.17-3.26,2.22-4.88,3.28l-4.82,3.2L1053,888.6C1051.44,889.7,1049.85,890.83,1048.17,891.9Z"/><path class="cls-8" d="M390.63,937.6a37.21,37.21,0,0,1,3.85-7.83,46.76,46.76,0,0,1,5.38-6.93,45.78,45.78,0,0,1,6.58-5.78,37,37,0,0,1,7.59-4.31c-2.28,1.81-4.5,3.61-6.63,5.5s-4.18,3.86-6.12,5.94-3.78,4.22-5.55,6.46S392.3,935.22,390.63,937.6Z"/><path class="cls-8" d="M409.45,931.57a24.88,24.88,0,0,1,3.21-6.07,31.61,31.61,0,0,1,10.15-9.24,24.75,24.75,0,0,1,6.34-2.62c-1.89,1.3-3.73,2.56-5.5,3.9s-3.48,2.74-5.1,4.24-3.19,3.05-4.7,4.68S410.92,929.81,409.45,931.57Z"/><path class="cls-8" d="M571.12,983.4A12.69,12.69,0,0,1,572.6,979a16.48,16.48,0,0,1,2.78-3.77,16.64,16.64,0,0,1,3.72-2.85,12.73,12.73,0,0,1,4.39-1.55c-1.23,1-2.4,1.87-3.52,2.81s-2.18,1.94-3.19,3-2,2.11-2.91,3.25S572.07,982.16,571.12,983.4Z"/><path class="cls-8" d="M585.62,983.41a28.5,28.5,0,0,1,4.52-4.6,38.06,38.06,0,0,1,11.15-6.45,28.65,28.65,0,0,1,6.26-1.61c-1.89,1-3.77,2-5.63,3s-3.69,2-5.49,3-3.6,2.13-5.4,3.23S587.47,982.3,585.62,983.41Z"/><path class="cls-8" d="M1362,934a34.62,34.62,0,0,1,5.28-5.27,45,45,0,0,1,13-7.34,34.06,34.06,0,0,1,7.23-1.82l-6.62,3.23c-2.17,1.1-4.33,2.21-6.43,3.42s-4.18,2.45-6.24,3.75Z"/><path class="cls-8" d="M1377.67,936.08a29.32,29.32,0,0,1,4-2.4c1.39-.7,2.81-1.34,4.25-1.9s2.91-1.06,4.41-1.49a28.17,28.17,0,0,1,4.61-1,29.32,29.32,0,0,1-4,2.4c-1.39.7-2.81,1.34-4.25,1.9s-2.92,1.06-4.41,1.49A28.17,28.17,0,0,1,1377.67,936.08Z"/><polygon class="cls-9" points="628.28 580.35 625.15 586.83 621.52 594.35 617.61 602.46 600.09 594 610.78 571.89 628.28 580.35"/><path class="cls-10" d="M625.16,586.83l-3.64,7.52c-2-5.81-5.16-15.57-5.16-15.57S620.94,584.58,625.16,586.83Z"/><path class="cls-11" d="M652.65,672.61l-11,5-9.76,4.46L609.46,633.6l-3.37-7.26A13.2,13.2,0,1,1,630.35,616l11.33,28.83Z"/><path class="cls-11" d="M693.4,711.79l-11.55,14.15L642,696.8l-.32-.24a27,27,0,0,1-9.76-14.47l9.76-4.46,11-5Z"/><path class="cls-9" d="M681.85,725.94l7.94,6.47,7.54,9.94s4.92,19.73,6.64,19.4.11-17.82.15-17,1,19.45,6.21,19.44,2.62-19.3,2.62-19.3,1.15,13.82,3.17,12.58c.5-.31.77-1.65.88-3.48a37.94,37.94,0,0,0-7.55-24.69l-8.11-9-7.94-8.5Z"/><path class="cls-8" d="M641.68,677.63v18.93a27,27,0,0,1-9.76-14.47L609.46,633.6l32.22,11.19S641.68,662,641.68,677.63Z"/><path class="cls-12" d="M704.48,728.59c-1.18,4.39.6,9.74,2.38,11.64s2,12.81,3.32,11.75S712,740.32,712,740.32"/><path class="cls-11" d="M638.73,657.49c-3.64,10.27-6.37,20.8-6.37,20.8h-42S587.5,661.9,586.2,646a121.14,121.14,0,0,1-.3-20.57c1-10,10.71-26.84,10.71-26.84s5.44-13.25,5.5-13.25c0,.28,19.9,10.25,19.9,10.25l-1.26,13.07S632.5,623.3,638,630.84,642.38,647.22,638.73,657.49Z"/><path class="cls-8" d="M606.94,633.6l-16.57,44.69S587.5,661.9,586.2,646Z"/><path class="cls-13" d="M587.79,564.25c0,10.56-1.17,13.13-8.87,15.27s-15.69,12.41-13,24.11,2.85,18.54-3.14,25.68S558.38,647,558.38,647h21.85a18.44,18.44,0,0,0,18.44-18.43c0-24.38-.06-64.32-.06-64.32Z"/><path class="cls-13" d="M589.2,564.25a10.74,10.74,0,0,1-1.47,5.81,15.62,15.62,0,0,1-4.09,4.52,26.19,26.19,0,0,1-5.31,3c-.93.41-1.9.75-2.84,1.09l-1.38.52-1.34.6a29,29,0,0,0-4.95,3.11,22.52,22.52,0,0,0-4,4.18,18.85,18.85,0,0,0-3.73,10.74,21.5,21.5,0,0,0,.13,2.89l.17,1.44.28,1.46a51.33,51.33,0,0,0,1.46,5.74c.57,1.9,1.3,3.73,2,5.68a11.69,11.69,0,0,1,.63,3.11,8,8,0,0,1-.64,3.19c-1.83,3.84-4.82,6.61-7.29,9.72a17.88,17.88,0,0,0-3,5.08,20.35,20.35,0,0,0-1,5.87,16.46,16.46,0,0,1,3.35-11.42c1.2-1.64,2.52-3.15,3.71-4.74a23.12,23.12,0,0,0,3.07-5,6.57,6.57,0,0,0,.44-2.68,11,11,0,0,0-.62-2.74c-.66-1.84-1.44-3.72-2.07-5.65a50.19,50.19,0,0,1-1.55-5.9l-.29-1.49-.2-1.54a24.82,24.82,0,0,1-.15-3.11,20.13,20.13,0,0,1,4.12-11.58,24.53,24.53,0,0,1,9.67-7.49l1.42-.58,1.46-.49c1-.31,1.89-.6,2.81-1a25.43,25.43,0,0,0,5.23-2.71,14.71,14.71,0,0,0,4.18-4.1A11.19,11.19,0,0,0,589.2,564.25Z"/><path class="cls-11" d="M578.43,675.14,559,663.29l31.72-52.62a13.21,13.21,0,0,1,18.17-4.46h0a13.21,13.21,0,0,1,4,18.74Z"/><path class="cls-11" d="M578.43,675.14,559,663.29h0a26.92,26.92,0,0,0-6.53,16.59l-1.82,49.33,18.19,1.64Z"/><path class="cls-9" d="M550.62,729.21l-.92,10.2-6.89,6.93s-13.59,15.13-12.36,16.37,14.83-9.88,14.21-9.42-15.13,13.44-12.2,17.76,19.61-8.8,19.61-8.8-10.81,8.69-8.65,9.67c.54.25,1.8-.28,3.38-1.22A37.92,37.92,0,0,0,563,750.62l3.2-8.43,2.59-11.34Z"/><path class="cls-14" d="M549.59,738v-3.7s19.48,4.09,19.22,4.62-2.11,5.55-2.11,5.55Z"/><path class="cls-9" d="M642.41,539.53c5.74,3.82,6.81,15.1.62,26.57,0,0,5.27,1.15,3.9,4.44s-6.66,5-6.66,5-2.52,15.53-8.8,14.23-13.92-9.1-18.05-12.39-13-13.77-11-26.09,19.28-20.58,24.33-18S642.41,539.53,642.41,539.53Z"/><path class="cls-13" d="M644.78,541.25c1.19,2.49-3.9,26.29-24.78,20.06l-7,9.15v22.11c0,4.67,2.68,18.67-15.68,12.17,0,0-16.11-32-6.35-53.88,7.68-17.23,17.39-22.33,26.28-22.35C629,528.48,643.59,538.75,644.78,541.25Z"/><path class="cls-13" d="M611.73,569.41A51.61,51.61,0,0,1,615,578a37.6,37.6,0,0,1,1.62,9.18,22.12,22.12,0,0,1-.39,4.73,18.5,18.5,0,0,1-1.58,4.48,22.87,22.87,0,0,1-5.85,7.19,32.65,32.65,0,0,0,4.73-7.71,20.16,20.16,0,0,0,1.51-8.65,49.7,49.7,0,0,0-1.23-8.92C613.21,575.35,612.51,572.39,611.73,569.41Z"/><path class="cls-15" d="M635.22,563.18a22.11,22.11,0,0,1,7.12-4.92,9.2,9.2,0,0,1,2.54-.82l0,.09a56.71,56.71,0,0,1-4.84,9.9h0a4.67,4.67,0,0,1-3.18-1.2A9.74,9.74,0,0,1,635.22,563.18Z"/><g class="cls-16"><path class="cls-13" d="M640.41,560.94c-1.37,2.55-1.25,5.26.25,6.06s3.82-.61,5.18-3.16,1.25-5.27-.25-6.07S641.77,558.39,640.41,560.94Z"/></g><path class="cls-17" d="M634.82,563.58a25.19,25.19,0,0,1,7.52-5.32,7.41,7.41,0,0,1,3.43-.85"/><path class="cls-17" d="M635.36,563.18a4.57,4.57,0,0,0,4.65,4.25"/><path class="cls-17" d="M633.82,574.89a2.82,2.82,0,0,0,2.9,2.66"/><path class="cls-13" d="M638.41,554.63c3.33-1.81,6.77-2.55,7.7-1.6s-.71,2-3.57,1.79A38.4,38.4,0,0,0,638.41,554.63Z"/><path class="cls-9" d="M620,561.31c-2.2-5.4-8.63-5.24-11.17-.37s.2,11.43,5.58,10.47Z"/><path class="cls-17" d="M613.22,559.57a5.45,5.45,0,0,1,2.73,2.32,5.51,5.51,0,0,1,.67,3.53"/><path class="cls-17" d="M616.54,563.54a2.78,2.78,0,0,0-2.59,1,3.94,3.94,0,0,0-.83,2.72"/><path class="cls-14" d="M619.15,575.43a5.22,5.22,0,1,0-5.21,5.22A5.22,5.22,0,0,0,619.15,575.43Z"/><path class="cls-18" d="M613.67,795.21s-5.52,11.21-12.52,24.86c-9.53,18.59-21.83,41.74-26.76,47.31C565.83,877,529.12,926,529.12,926l-19.37-10.38s6-7.71,17.17-34.1,25.64-34.06,25.64-34.06l29.85-91.9v0Z"/><path class="cls-19" d="M613.67,795.21s-5.52,11.21-12.52,24.86c-6.33-19.59-18.37-63.18-18.73-64.53Z"/><path class="cls-20" d="M598.05,777.27c-4.68,17-27.07,71.93-32,79.25s-44.58,62-44.58,62"/><path class="cls-21" d="M481.54,951.48l-7.43,9,18.3,14.6,3.44-4.63,1.6-7.71S480.18,951.33,481.54,951.48Z"/><path class="cls-22" d="M533,928.4S505.41,910.89,505.68,912s-10.88,26.31-11.14,26.55-7.33,2.84-13.17,13.19l14.48,18.78,13.89,18.42h31l-6.1-9.81-11.41-3.72-1.33-25Z"/><polygon class="cls-21" points="481.37 951.69 511.41 984.9 538.22 984.9 540.7 988.89 509.74 988.89 481.37 951.69"/><path class="cls-23" d="M491.08,961.73c2.54-4,6.73-13.68,3.79-22.66"/><path class="cls-21" d="M523.07,976.14a32.22,32.22,0,0,0-8-1,33.11,33.11,0,0,1,8.22-.52Z"/><path class="cls-18" d="M632.92,689.29c0,14.21,1.35,36.34,1.35,36.34s30.43,82.13,38.53,99.44,8.47,26.51,10.68,43.82,15.1,60.69,15.1,60.69-19.52,9.94-19.89,8.84S658.07,902,654,888.34s-1.47-31.23-1.47-31.23-38.45-61.92-52.19-77.23c-17-18.88-28.46-38.66-25.51-57.44s14.25-33.15,14.25-33.15Z"/><path class="cls-20" d="M606.94,691.68c-.08.53-5.2,32.24-4.49,37.53s11.71,31.2,23.13,46.71,38,55,42.43,71.21c-.35,18,1.24,45.47,17.1,81.24"/><path class="cls-20" d="M603.9,712.3s18.23-1.63,19.63-19.79"/><polygon class="cls-21" points="693.73 982.74 695.08 989.8 716.37 985.34 714.63 978.65 693.73 982.74"/><path class="cls-22" d="M759.72,960.47c-4.07,7.52-22.13,18.06-22.13,18.06s-22.39.79-22.79.79-21.07,3.42-21.07,3.42c-2.24-5.14-3.29-17-3.29-17l-16.2-25.7,27.65-13.31,11.73,22.4c1.58,1.32,22.53,11.07,22.92,11.2s16-4.34,16-4.34l4.18,2.59Z"/><path class="cls-21" d="M759.72,960.47c-4.07,7.52-22.13,18.06-22.13,18.06s-22.39.79-22.79.79-21.07,3.42-21.07,3.42c.38-.83,42.82-8.52,42.82-8.52l20.12-15.62Z"/><polygon class="cls-21" points="736.87 961.06 730.33 963.25 736.21 959.63 736.87 961.06"/><path class="cls-23" d="M690.44,965.76s11,4.65,14.61,14"/><rect class="cls-22" x="587.96" y="677.25" width="46.1" height="12.04" rx="1.14"/><path class="cls-24" d="M632.92,689.29H618.66a2.44,2.44,0,0,1-1.47-.5l-4.7-3.6a2.42,2.42,0,0,1,0-3.85l4.7-3.59a2.38,2.38,0,0,1,1.47-.5h14.26a1.14,1.14,0,0,1,1.14,1.13v9.77A1.14,1.14,0,0,1,632.92,689.29Z"/><path class="cls-25" d="M618.66,689.29a2.44,2.44,0,0,1-1.47-.5l-4.7-3.6a2.42,2.42,0,0,1,0-3.85l4.7-3.59a2.38,2.38,0,0,1,1.47-.5"/><text/><g id="sun"><path class="cls-26" d="M1523.64,139.83a72.65,72.65,0,1,0,72.65,72.65A72.64,72.64,0,0,0,1523.64,139.83Z"/><path class="cls-26" d="M1603.18,245.43l42.08-33.82-1.1-.88-41.42-32.58,5.11-51.75-51.47,5.37L1523.64,92l-32.58,39.87-52-5.67,5.41,52-41.28,32.47-1.08.88,42,33.92-5.63,50.48-.19,1.77,51.6-5.57,33.76,41.46L1557.31,292l51.55,5.69Zm-46.58,44.68c-10.3,3.3-21.58,6.28-33,6.28s-22.39-3.23-32.68-6.52c-9.63-4.94-18.59-10-26.66-18.06a106.9,106.9,0,0,1-19.44-26.72,106.21,106.21,0,0,1,0-65.22A106.19,106.19,0,0,1,1491,133.69a106.18,106.18,0,0,1,65.21,0,106.24,106.24,0,0,1,46.17,46.17,106.14,106.14,0,0,1,0,65.23A107,107,0,0,1,1583,271.81C1574.91,279.87,1566.22,285.16,1556.6,290.11Z"/><path class="cls-27" d="M1596.29,210.73a72.65,72.65,0,1,1-72.65-72.65A72.64,72.64,0,0,1,1596.29,210.73Z"/><path class="cls-27" d="M1603.18,243.68l41-33-41-32.95,5.68-52.28-52.27,5.69-32.95-41-33,41-52.27-5.69,5.68,52.28-41,32.95,41,33-5.68,52.26,52.26-5.69,33,41,32.95-41,52.27,5.69Zm-46.94,45.83a106.12,106.12,0,0,1-65.19,0,106.05,106.05,0,0,1-46.19-46.16,106.27,106.27,0,0,1,0-65.24A106.05,106.05,0,0,1,1491,131.94a106.12,106.12,0,0,1,65.19,0,106.15,106.15,0,0,1,46.18,46.15,106.14,106.14,0,0,1,0,65.26,106,106,0,0,1-46.17,46.16Z"/><path class="cls-28" d="M1523.64,210.69a651.46,651.46,0,0,1,72.55,4c.06-1.3.1-2.61.1-3.93a72.65,72.65,0,1,0-145.3,0c0,1.32,0,2.63.11,3.93A651.28,651.28,0,0,1,1523.64,210.69Z"/><path class="cls-28" d="M1414.65,220q12.19-2.25,25.29-4c-.09-1.76-.21-3.52-.21-5.3a106.92,106.92,0,0,1,5.13-32.62A106.05,106.05,0,0,1,1491,131.94a106.12,106.12,0,0,1,65.19,0,106.15,106.15,0,0,1,46.18,46.15,106.75,106.75,0,0,1,5.14,32.64c0,1.78-.12,3.54-.21,5.3q13.08,1.72,25.28,4l11.54-9.28-41-32.95,5.68-52.28-52.27,5.69-32.95-41-33,41-52.27-5.69,5.68,52.28-41,32.95Z"/></g></g><g id="BACKGROUND"><path class="cls-29" d="M1195,924.23a5.8,5.8,0,0,0-2.52-1c-2.08-.21-4.16-.49-6.24-.74-1.4-.17-2.79-.45-4.19-.5-3.35-.12-6.71-.09-10.07-.19-2.94-.09-5.88-.26-8.82-.4a3.48,3.48,0,0,1-.69-.17l0-.26a2.53,2.53,0,0,1,.74-.29,41.92,41.92,0,0,1,4.34,0,33.2,33.2,0,0,0,5.37,0,33.33,33.33,0,0,1,4.57-.24,63,63,0,0,0,11.65-.63c1.69-.24,3.36-.68,5-1.07a1.52,1.52,0,0,0,1.24-.94,15.41,15.41,0,0,0-2.19-.71,40.11,40.11,0,0,0-7.43-.2c-1.91.06-3.81.22-5.71.31-.56,0-1.13,0-1.68,0-2.65.32-5.29.69-7.94,1-2.35.28-4.7.53-7,.78a7.93,7.93,0,0,1-1.09,0l-.06-.35a2.65,2.65,0,0,1,.65-.29c1.89-.26,3.78-.51,5.68-.71,3.11-.34,6.24-.54,9.33-1a76.56,76.56,0,0,0,12.92-3.06,20.42,20.42,0,0,0,2.2-1,3.18,3.18,0,0,0,.59-.51,5.06,5.06,0,0,0-.86-.24,29.52,29.52,0,0,0-7.74.39c-3.69.56-7.36,1.24-11,2s-7.17,1.5-10.75,2.25a5.93,5.93,0,0,1-.91.06c.43-.75.43-.74,1.39-1,3.35-.78,6.7-1.51,10-2.36a120.77,120.77,0,0,0,15.24-4.56c.42-.16.87-.26,1.07-.82a4.53,4.53,0,0,0-2.13-.48,47.48,47.48,0,0,0-9.29,1.22c-4.82,1.05-9.41,2.85-14.08,4.38a14.55,14.55,0,0,0-4.48,2,30.46,30.46,0,0,0-1.58,9.49,5.87,5.87,0,0,1,4.21.6c2.76,1.55,5.66,2.85,8.48,4.27,1.78.89,3.5,1.88,5.3,2.71,2.59,1.2,5.24,2.29,7.86,3.43a21.7,21.7,0,0,0,7.52,1.85c.91,0,1.3-.38,1-1.24a3.13,3.13,0,0,0-.37-.7,8.65,8.65,0,0,0-3.91-3.06c-1.25-.58-2.52-1.09-3.8-1.6-1.45-.58-2.89-1.17-4.37-1.65-2.76-.88-5.54-1.68-8.32-2.52-2.26-.68-4.52-1.38-6.79-2-.8-.24-1.63-.39-2.45-.59-.35-.09-.66-.23-.48-.75a1.55,1.55,0,0,1,.43,0q3,.6,6.06,1.23c1.8.37,3.57.88,5.38,1.09,2.89.34,5.79.48,8.69.7h.34c3.4-.19,6.79-.37,10.18-.58a4.76,4.76,0,0,0,1.44-.36C1195.4,925,1195.43,924.53,1195,924.23Z"/><path class="cls-30" d="M1186.6,921.67a16,16,0,0,0,1.92.25,37.92,37.92,0,0,0,9.06-1.2c1.93-.56,2.24-1,1.87-2.93-.18-.92-1.12-1.91-1.93-1.87a4.85,4.85,0,0,0-2.71.86l.79.44c.79.48.83.93.05,1.44a5.38,5.38,0,0,1-1.66.74c-1.44.34-2.9.67-4.37.87-3.1.42-11.51.78-12.34.7v.22C1178.1,921.2,1184.32,921.5,1186.6,921.67Z"/><path class="cls-30" d="M1174.32,926.35l3.13,1.06c1.83.62,3.68,1.24,5.51,1.88a8.77,8.77,0,0,0,2.44.91c1.28,0,2.49.35,3.74.46,1.82.16,3.63.42,5.46.53a16.37,16.37,0,0,0,3-.2,1,1,0,0,0,.75-.56,16.11,16.11,0,0,0,.54-2.68c.08-.82-.47-1.24-1.28-1.13s-1.44.22-2.16.25c-3,.11-6,.21-8.92.28a18.16,18.16,0,0,1-3.3-.15A38.28,38.28,0,0,0,1174.32,926.35Z"/><path class="cls-30" d="M1183.15,916.31l8.2-.07a14.9,14.9,0,0,0,2.56-.21,23.59,23.59,0,0,0,3.46-1.09,2.21,2.21,0,0,0,1-3.41.82.82,0,0,0-.56-.31,11.33,11.33,0,0,0-3.72,0c.34,1.12.26,1.42-.69,1.87a21.3,21.3,0,0,1-2.86,1.14C1188,915,1185.58,915.64,1183.15,916.31Z"/><path class="cls-30" d="M1178.64,912.5l.09.19c2-.33,4.06-.69,6.1-1,1.66-.23,3.33-.48,5-.55a9.07,9.07,0,0,0,3.62-.59c.76-.37,1.53-.7,2.26-1.11a1.47,1.47,0,0,0,.7-1.77c-.21-.69-.73-1.28-1.2-1.19-1.3.23-2.61.51-3.9.83a1,1,0,0,0-.63.56,1.49,1.49,0,0,1-1.14,1.16c-2.35.8-4.7,1.59-7.06,2.35C1181.21,911.8,1179.92,912.13,1178.64,912.5Z"/><path class="cls-30" d="M1188.54,931.18c0,.09,0,.17,0,.26s.08.12.14.16c1.55.81,3.16,1.54,4.19,3.07a.6.6,0,0,0,.36.25,17.26,17.26,0,0,0,2.13.28,2.31,2.31,0,0,0,2.54-2.56c0-.64-.27-.86-.92-.86-.91,0-1.83.05-2.73,0C1192.32,931.59,1190.43,931.37,1188.54,931.18Z"/><path class="cls-30" d="M1199.37,921.71c-2.54-.41-4.86.37-7.24.68.36.17.74.22,1.09.35a17.36,17.36,0,0,1,2.29,1,1,1,0,0,1,.06,1.81,7.85,7.85,0,0,1-.78.49,7.76,7.76,0,0,0,2.65-.12c1.61-.4,2.12-1.2,2-2.84C1199.41,922.65,1199.4,922.19,1199.37,921.71Z"/><path class="cls-31" d="M1199.23,911.41c.68,0,1.3-.2,1.45-.76a6.61,6.61,0,0,0,.17-2.35c-.06-.7-.45-1-1.09-.88-.86.18-2-.3-2.52.83,0,.1,0,.24-.06.33-.27.44-.55.88-.85,1.3a3.62,3.62,0,0,1-.44.43C1197.08,910.72,1198.52,910,1199.23,911.41Z"/><path class="cls-31" d="M1200.53,917.61a1.14,1.14,0,0,0,1.21-.45,2.82,2.82,0,0,0-.13-2.82.94.94,0,0,0-.57-.3c-.66,0-1.36-.19-1.83.56-.16.26-.53.38-.7.49Z"/><path class="cls-31" d="M1199,926.13a5.25,5.25,0,0,1,.6,1.25,6.94,6.94,0,0,1,0,1.5c.39,0,.69,0,1-.06a2.08,2.08,0,0,0,1.25-2.67,1.25,1.25,0,0,0-.71-.49A2.17,2.17,0,0,0,1199,926.13Z"/><path class="cls-31" d="M1199.49,920.8a.93.93,0,0,1,.72,1.19,2.07,2.07,0,0,0,0,.78c.06.27.2.69.38.73a1.31,1.31,0,0,0,1-.18,2.37,2.37,0,0,0,.59-1.17c.4-1.75.26-1.92-1.53-2.2Z"/><path class="cls-31" d="M1198.52,934a9.08,9.08,0,0,0,1.54-.88.86.86,0,0,0-.39-1.56,6.56,6.56,0,0,0-1.18-.1C1198.5,932.36,1198.51,933.06,1198.52,934Z"/><path class="cls-30" d="M1100.43,879.4a8.79,8.79,0,0,1-2.51-2.06,39.74,39.74,0,0,1-5.39-10.23,26.08,26.08,0,0,1-.92-5.32,11.47,11.47,0,0,1,1.64-4.85c2.17-3.56,4.41-7.07,7.64-9.78,2.78-2.34,5.64-4.58,8.46-6.86l2.24-1.82c2.25,1,2.23,1,1.62,3.2a5.17,5.17,0,0,1-3,3.1c-.71.37-1.49.63-2.22,1a6.75,6.75,0,0,0-1,.82,3,3,0,0,0,2.43-.51,4.72,4.72,0,0,1,5.27.34,5,5,0,0,1,.77.82c-.48,1.18-1.55,1.62-2.44,2.19s-1.9.88-2.83,1.36-2.19,0-3.1.87c.38.6.89.36,1.33.37,1.71.06,3.42.09,5.14.18.76,0,1.59.11,1.91,1s-.38,1.51-1,2.06a5.09,5.09,0,0,1-3.66,1.38c-1.1,0-2.2,0-3.29,0a4.18,4.18,0,0,0-1,.4,3.15,3.15,0,0,0,2.62.46,4.77,4.77,0,0,1,3.32,1,4.36,4.36,0,0,1,.77.64c.69.73.6,1.33-.26,1.85a10.17,10.17,0,0,1-5.94,1.25,14,14,0,0,0-1.43-.11,3,3,0,0,0-.86.24l-.06.31a6.51,6.51,0,0,0,.9.4,6.52,6.52,0,0,1,3.58,2.5c.63.82.59,1.27-.17,2a4,4,0,0,1-3,1,11.57,11.57,0,0,1-4.2-.76,8.09,8.09,0,0,0-1.15-.24c.31.5.4.8.61,1a11.37,11.37,0,0,1,3.18,4.18,4.38,4.38,0,0,1,.27,1.08,2.7,2.7,0,0,1-2.57-.07c-.93-.48-1.76-1.12-2.64-1.69l-1.23-.8-.22.22a3,3,0,0,0,.25.69c.91,1.35,1.88,2.66,2.74,4a5.87,5.87,0,0,1,.84,2.1C1102.11,879.37,1101.34,879.93,1100.43,879.4Z"/><path class="cls-30" d="M1100.46,880.34c.91.11,1.65.06,2-.81a2.63,2.63,0,0,0,0-2.23c-.49-1.07-1.1-2.1-1.69-3.22.44,0,.85.32,1.31.43a9,9,0,0,0,2,.38,1.42,1.42,0,0,0,1.39-2.23c-.46-.93-1.07-1.8-1.62-2.69-.1-.16-.17-.34-.31-.59,1.19,0,2.31,0,3.42,0a4.19,4.19,0,0,0,2.84-1.22,2,2,0,0,0,.21-2.95c-.53-.66-1.15-1.25-1.84-2a16.51,16.51,0,0,0,2.3-.33,13.43,13.43,0,0,0,3.08-1.1c1.48-.83,1.47-2.34.12-3.38-.44-.34-.9-.65-1.49-1.07a6.65,6.65,0,0,0,3.81-2.44,2,2,0,0,0-1.24-3.34,20.31,20.31,0,0,0-2.87-.33c1.09-.74,2-1.41,3-2,2.55-1.67,1.39-2.92-.37-3.86a15,15,0,0,0-2.19-.75c1.32-1,1.67-2.43,2.13-3.81.37-1.13.18-1.61-.85-2.27l-1.15-.76c4.49-4.67,8.78-9.39,11.78-15a3.29,3.29,0,0,0,1.14-.07c.71-.35,1.13,0,1.46.52a3,3,0,0,1-.91,4.28c-.85.53-1.74,1-2.61,1.5a.88.88,0,0,0-.53,1.1,13.82,13.82,0,0,0,1.67-.76c1.33-.83,2.83-.78,4.3-.92a1,1,0,0,1,1.12.71,1.94,1.94,0,0,1-.51,2.1,8.73,8.73,0,0,1-1.94,1.21c-1.09.46-2.25.76-3.36,1.16a2.43,2.43,0,0,0-.61.48c.48.58,1,.26,1.4.21.67-.08,1.31-.31,2-.38a8.26,8.26,0,0,1,1.86,0c1.34.13,2.2.82,2.33,1.75s-.63,1.64-1.91,2-2.49.61-3.75.9c-.4.09-.89,0-1,.68a2.39,2.39,0,0,0,2.16.09,8.51,8.51,0,0,1,3.41,0,3.43,3.43,0,0,1,2.28,1.6.74.74,0,0,1-.16,1.14c-1.28.9-2.48,1.93-4.18,2a8,8,0,0,0-3.7.85c.44.21.7.44.94.42a30,30,0,0,0,3.27-.37,9.72,9.72,0,0,1,4.67.31c1.16.34,1.43,1,.61,1.88a39.28,39.28,0,0,1-3.66,3.4,4.67,4.67,0,0,1-3.08,1c-.61,0-1.21.1-2.15.18.39.39.57.72.78.74a15.14,15.14,0,0,0,2.13,0c.9-.06,1.81-.16,2.71-.26a3.57,3.57,0,0,1,2.54.79,2.08,2.08,0,0,1,.33,3.13,7.93,7.93,0,0,1-4.69,2.24c-1.5.22-3,.17-4.56.25-.43,0-1-.28-1.17.65.38.1.76.21,1.15.3,2.07.51,4.27.58,6.2,1.66.57.33,1.42.59,1.21,1.36-.12.46-.81.88-1.34,1.11-1.31.56-2.66,1-4,1.51a9.57,9.57,0,0,1-6,.27c-.46-.14-1-.46-1.44.06.12.67.69.65,1.11.76,1.43.39,2.9.65,4.31,1.1a5.65,5.65,0,0,1,2.06,1.18,1.14,1.14,0,0,1-.35,2.07c-3,1.08-6.12,2-9.34.62a2.59,2.59,0,0,0-2-.35c.23.28.35.56.55.64a26.68,26.68,0,0,0,3.08,1.17,5.25,5.25,0,0,1,2.56,1.76c.66.76.5,1.43-.45,1.76a5.64,5.64,0,0,1-1.83.27,21,21,0,0,1-6.46-1.16c-.45-.15-.94-.51-1.49-.06.17.66.75.68,1.19.9,1.41.71,2.82,1.4,4.19,2.16.31.18.69.7.63,1a1.37,1.37,0,0,1-.93.74,12.88,12.88,0,0,1-7.2-.27,5.94,5.94,0,0,0-2.51-.65c.24.4.31.69.5.81,1.32.85,2.69,1.64,4,2.5a7.62,7.62,0,0,1,1.28,1.13,1.46,1.46,0,0,1,.37,1.82,1.79,1.79,0,0,1-2.1.87C1106.25,885,1102.94,883.5,1100.46,880.34Z"/><path class="cls-30" d="M1130,879.11a37.88,37.88,0,0,1-3.3,3.19c-2.43,1.85-4.92,3.63-8,4.34a15.25,15.25,0,0,1-7,.23c1.67-2.29,1.48-2.88-1.88-5.59.92,0,1.7,0,2.47-.06,1-.06,2-.12,3-.26a2.66,2.66,0,0,0,1.18-.45,1.45,1.45,0,0,0,.2-2.41c-.2-.21-.41-.39-.82-.78,1.72.07,3.14.44,4.54-.12a.76.76,0,0,1,.55,0c1.78.89,3.75.58,5.62.87.89.14,1.79.26,2.68.44C1129.46,878.59,1129.62,878.82,1130,879.11Z"/><path class="cls-30" d="M1136,871.7c-.27,3.13-2.22,4.67-4.76,5.64a2.7,2.7,0,0,1-1.68.11,17.25,17.25,0,0,0-5.26-.34,28.71,28.71,0,0,1-2.94-.3c1.09-2-.23-2.81-1.37-3.87,1.44-.28,2.72-.49,4-.78s2.67-.51,3.38-1.85c2.36.15,4.68.25,7,.5C1134.93,870.87,1135.48,871.41,1136,871.7Z"/><path class="cls-30" d="M1141.06,863.21a4.37,4.37,0,0,1-.36.93,13.27,13.27,0,0,1-4.35,4.85,2.65,2.65,0,0,1-2.37.53c-1-.25-2.06.16-3.1.22a16.75,16.75,0,0,1-2,0,2.06,2.06,0,0,1-1.72-1,16.19,16.19,0,0,0-2.3-2.15c1.7-.57,3.26-1.12,4.84-1.62a4.51,4.51,0,0,0,2.86-2.26l4.35-.57c.56-.08,1.12-.21,1.69-.27a5.34,5.34,0,0,1,1.54-.06A1.08,1.08,0,0,1,1141.06,863.21Z"/><path class="cls-30" d="M1143,850.07a12.24,12.24,0,0,1,0,2.11,13.57,13.57,0,0,1-3.55,7.68,6.19,6.19,0,0,1-2.6,1.33,14.18,14.18,0,0,1-3.26.48,3.47,3.47,0,0,1-1.64-.33c-1.34-.6-2.63-1.3-3.71-1.85,1.1-.41,2.43-.88,3.73-1.42a6.22,6.22,0,0,0,1.34-.83,2.81,2.81,0,0,0,1.28-2.84,7.61,7.61,0,0,1,0-1C1137.21,852.11,1140.07,851.27,1143,850.07Z"/><path class="cls-30" d="M1138.66,850.67c-1.18.51-2.34,1-3.5,1.59a2,2,0,0,1-1.9-.06c-.71-.38-1.48-.64-2.47-1.06,1-.95,1.92-1.85,2.88-2.67a2.94,2.94,0,0,0,1.27-2.9c2.38-1.28,4.64-2.82,7.54-2.13A7.13,7.13,0,0,1,1138.66,850.67Z"/><path class="cls-30" d="M1142.84,833.43c-.29,1.35-.54,2.72-.9,4.05a26.7,26.7,0,0,1-1.07,2.95,4,4,0,0,1-2.24,2.28c-1.08.48-2.12,1.07-3.16,1.64a2.5,2.5,0,0,1-1.93.21c-.84-.22-1.69-.4-2.65-.63,1.42-1,3-1.67,2.14-3.84,3.74-1.93,6.72-4.8,10-7.85C1142.91,832.83,1142.9,833.14,1142.84,833.43Z"/><path class="cls-30" d="M1143.53,830a3,3,0,0,1-1,1.51c-2.42,2.08-4.52,4.53-7.25,6.26-.68.43-1.35.89-2.06,1.27a1.45,1.45,0,0,1-2-.11,5.33,5.33,0,0,0-1-.66c.77-.94,2.25-1.7,1.33-3.54,4.49-2.66,7.71-6.67,11.49-10.21A7.85,7.85,0,0,1,1143.53,830Z"/><path class="cls-30" d="M1141.31,818.52c.39,1.13.68,2.3,1.13,3.4a2.21,2.21,0,0,1-.55,2.49c-2.45,2.47-4.92,4.92-7.47,7.29a26.69,26.69,0,0,1-3.15,2.22l-2.75-1.08c1.93-.89,2.48-2.51,2.12-4.53a64,64,0,0,0,10-10.78A6.69,6.69,0,0,1,1141.31,818.52Z"/><path class="cls-30" d="M1140.41,816.3c-1.24,1.62-2.39,3.31-3.74,4.82-1.75,2-3.63,3.79-5.5,5.63a2.45,2.45,0,0,1-2.44.83,5.77,5.77,0,0,0-1.58.11l.52-.94a2.75,2.75,0,0,0,.31-2.34,1.57,1.57,0,0,1,.47-1.65c2.22-2.63,4.42-5.27,6.51-8a48.8,48.8,0,0,0,2.73-4.07A30.29,30.29,0,0,1,1140.41,816.3Z"/><path class="cls-30" d="M1137.08,809.73a58.31,58.31,0,0,1-8.93,12.14c-.14.13-.29.24-.42.35l-2.81-.76c.82-1.68,1.74-3.45,2.56-5.27s1.49-3.61,2.27-5.4a15.39,15.39,0,0,1,1.21-2.27,1.93,1.93,0,0,1,2-.87A5.69,5.69,0,0,1,1137.08,809.73Z"/><path class="cls-32" d="M1114.72,968.39c-.2-.12-.43-.28-.68-.45a3.21,3.21,0,0,0-.94-.4c-.36-.08-.77-.25-1.21-.39a3.33,3.33,0,0,0,.15-.55c.6-2.52.68-7.58.82-10.14.07-1.52.08-2.88.12-4.24s0-2.71-.12-4.24-.08-3.11-.08-4.7c0-.78,0-1.57-.1-2.36a16.47,16.47,0,0,0-.28-2.33c-.12-.59-1-2.15-1.11-2.72s-1.69-.51-1.38,1.58c.09.6.14,1.3.21,2.08s.1,1.64.23,2.56c.06.46.1.95.12,1.46s0,1,0,1.57c0,1.08,0,2.18,0,3.25,0,1.41.24,2.79.33,4.15a36.41,36.41,0,0,1,.14,4c0,1-.09,2.1-.11,3.22s-.11,2.27-.16,3.31-.15,2-.21,2.76c0,.08,0,.16,0,.23l-.27-.07a5.47,5.47,0,0,1-.91-.34,3,3,0,0,0-1-.28,4.61,4.61,0,0,0-1.33.2,7.45,7.45,0,0,1-1.23.32,8.54,8.54,0,0,0-1,.23c-.33.12-.65.27-1,.41-.59.27-1,.6-1.18.63s.24,1.42.93,1.32a24.37,24.37,0,0,1,2.52-.76c.4,0,.76,0,1.11,0s.7,0,1.09,0h0c-.25.12-.49.24-.73.33a5.94,5.94,0,0,0-2.06,1.49,12,12,0,0,0-1,1.34c-.09.09.12.4.44.6a.88.88,0,0,0,1,.07,6.43,6.43,0,0,0,.5-.46c.19-.16.38-.38.6-.55a4.68,4.68,0,0,1,1.29-.8,9.24,9.24,0,0,1,2.49-.44,2,2,0,0,1,.68.09,4.59,4.59,0,0,1,.64.28,6.14,6.14,0,0,0,1.14.58,1.82,1.82,0,0,0,.48-.13,1.25,1.25,0,0,1,.51-.08C1114.47,970.09,1115.43,968.84,1114.72,968.39Z"/><path class="cls-32" d="M1163.36,963.68a27.79,27.79,0,0,1-.81-3c0-.47,0-.9-.06-1.32s0-.84,0-1.31a4.67,4.67,0,0,1,.37-1.41,4.71,4.71,0,0,0,.45-1.34c0-.16-.36-.8-.34-1s-1.28-.74-1.5,0a5.36,5.36,0,0,1-.3.69,3.69,3.69,0,0,0-.24.9l0,.15-.15-.08c-2.44-1.19-7.41-3-9.9-4l-4.09-1.78-2-.85c-.68-.28-1.37-.56-2-.9a5.57,5.57,0,0,1-1.79-1.34,7.32,7.32,0,0,1-1.18-2c-.65-1.5-1.09-3.24-2-4.91a6.69,6.69,0,0,0-1.13-1.35,17.49,17.49,0,0,0-1.36-1.11c-.31-.26-.69-.08-.78.36a2.63,2.63,0,0,0,.69,1.88,9.81,9.81,0,0,1,1,2c.31.8.62,1.74,1.07,2.75A20.64,20.64,0,0,0,1139,948a8.57,8.57,0,0,0,.66.83,7.66,7.66,0,0,0,.78.73,8.65,8.65,0,0,0,1.67,1.06,20.62,20.62,0,0,0,2.16.86l2.1.72c1.38.47,2.74.92,4,1.46,2.65,1.11,6.21,2.4,8.56,3.26-.33.22-.86.26-1.21.54s-.77,1.13-1.24,1.49c-.72.55-1.55,1.7-1.76,1.81s.48,1.34,1,1.11,1.28-1.14,1.75-1.46a15.39,15.39,0,0,0,1.53-1.12,1.67,1.67,0,0,1,.59-.31c-.11.4-.57.77-.71,1.23s0,1.31-.2,1.87c-.28.85-.32,2.23-.43,2.44s1.11.72,1.42.22a14.41,14.41,0,0,0,.61-2.16,15.32,15.32,0,0,0,.6-1.68l0,.14a11,11,0,0,0,.24,1.13c.12.38.27.75.4,1.1s.3.63.41.87a3,3,0,0,1,.22.5C1162.24,964.9,1163.49,964.49,1163.36,963.68Z"/><path class="cls-29" d="M1165.24,912.38c-2.39-12-12.63-32.82-21.93-40.75s-23.39-17.85-35.62-18.31c19.48-24.59.56-45.8-16.77-43.31-4.77.68-11.46,3.46-16.39,11.12-1.44,2.24,5,6.5,3.91,9.43-1.47,4-8.85,1.78-7.31,3.61,6.69,8-.08,20.83-.12,31.24,0,9.92,0,20.2,4.11,29.22,4.21,9.21,12.26,16.07,21.13,21.08l.24.27a63.14,63.14,0,0,1,6.53,8.57c.61,1,1.18,1.94,1.81,2.89a31.68,31.68,0,0,1,3.23,5.77c.54,1.34,1.13,2.67,1.74,4,.52,1.13.93,1.3,2.51,1.14a5.69,5.69,0,0,0,.29-1.42,8.57,8.57,0,0,1,.62-3.14c.3-.89.7-1.75,1-2.63a17.66,17.66,0,0,1,4.5-6.46,69,69,0,0,1,6.11,4.84c.85.75,1.66,1.54,2.52,2.28a31.38,31.38,0,0,1,4.68,4.68q1.32,1.72,2.75,3.37c.81.94,1.25,1,2.73.42a5.84,5.84,0,0,0-.11-1.45,8.6,8.6,0,0,1-.26-3.19c.06-.94.2-1.88.31-2.82a17.5,17.5,0,0,1,1.46-5.32c6.1.25,13.47.76,19.22-.83C1168.49,923.83,1166.22,917.31,1165.24,912.38Z"/><path class="cls-33" d="M1080,898.06c4.47,6.73,11.51,11.36,18.82,14.81a90.35,90.35,0,0,0,55.31,7c-13.54-3.2-25.28-11.9-34.39-22.41s-15.85-22.83-22.31-35.15c-1.6-3-3.22-6.16-5.67-8.58s-5.89-4.1-9.29-3.57c-3.84.6-6.83,3.9-8.15,7.56s-1.28,7.65-1.15,11.54C1073.45,879.23,1074.41,889.72,1080,898.06Z"/><path class="cls-34" d="M1107.66,873.72a8.71,8.71,0,0,1-1.55-2.85,39.78,39.78,0,0,1-1.1-11.51,25.77,25.77,0,0,1,1.17-5.28,11.49,11.49,0,0,1,3.35-3.86c3.36-2.47,6.76-4.87,10.79-6.15,3.45-1.11,7-2.1,10.42-3.14l2.76-.83c1.69,1.83,1.67,1.81.29,3.58a5.12,5.12,0,0,1-3.92,1.74c-.8.07-1.62,0-2.43.07a6.23,6.23,0,0,0-1.22.37,2.93,2.93,0,0,0,2.44.45,4.7,4.7,0,0,1,4.74,2.32,5.09,5.09,0,0,1,.41,1.06c-.9.9-2.06.9-3.1,1.09s-2.09.1-3.13.19-2-.86-3.19-.38c.12.7.68.67,1.08.85,1.56.7,3.14,1.39,4.69,2.11.69.33,1.43.72,1.39,1.64s-.92,1.25-1.67,1.54a5.07,5.07,0,0,1-3.9-.12c-1-.41-2-.82-3.07-1.19a4,4,0,0,0-1.06,0,3.12,3.12,0,0,0,2.25,1.42,4.79,4.79,0,0,1,2.69,2.22,5,5,0,0,1,.47.88c.35.94,0,1.46-1,1.61a10.14,10.14,0,0,1-6-1.1c-.43-.21-.84-.47-1.28-.64a3.24,3.24,0,0,0-.89-.1l-.17.26a7.79,7.79,0,0,0,.68.72,6.48,6.48,0,0,1,2.37,3.66c.26,1,.06,1.41-.91,1.77a4,4,0,0,1-3.19-.21,11.58,11.58,0,0,1-3.6-2.3,9.13,9.13,0,0,0-1-.66,4.22,4.22,0,0,0,.2,1.11,11.43,11.43,0,0,1,1.36,5.08,4.37,4.37,0,0,1-.16,1.1,2.75,2.75,0,0,1-2.36-1c-.67-.8-1.2-1.71-1.79-2.57l-.84-1.2-.28.11a2.66,2.66,0,0,0,0,.74c.33,1.6.73,3.17,1,4.77a5.92,5.92,0,0,1,0,2.26C1109.22,874.33,1108.3,874.56,1107.66,873.72Z"/><path class="cls-34" d="M1107.32,874.61c.81.44,1.51.68,2.19,0a2.65,2.65,0,0,0,.8-2.08c0-1.18-.22-2.36-.34-3.63.41.15.67.62,1,.9a9.31,9.31,0,0,0,1.66,1.09,1.42,1.42,0,0,0,2.13-1.53c-.07-1-.31-2.07-.48-3.11,0-.19,0-.37-.06-.66l3.17,1.28a4.13,4.13,0,0,0,3.09-.06,2,2,0,0,0,1.31-2.64c-.23-.82-.59-1.6-.94-2.53a18.57,18.57,0,0,0,2.25.57,13.26,13.26,0,0,0,3.26.15c1.69-.22,2.25-1.61,1.4-3.08-.28-.48-.59-.95-1-1.56a6.69,6.69,0,0,0,4.46-.81,2,2,0,0,0,.12-3.56,20.08,20.08,0,0,0-2.53-1.4c1.28-.27,2.42-.53,3.55-.75,3-.57,2.4-2.17,1.13-3.71a15.49,15.49,0,0,0-1.74-1.52c1.59-.41,2.46-1.61,3.41-2.72.77-.9.78-1.41.08-2.42l-.78-1.14c5.92-2.61,11.69-5.35,16.58-9.38a3.33,3.33,0,0,0,1.09.37c.78-.05,1,.48,1.15,1a3,3,0,0,1-2.47,3.62c-1,.17-2,.28-3,.4-.4,0-.74.11-.9.81a15.17,15.17,0,0,0,1.83-.06c1.55-.27,2.92.35,4.33.77a1,1,0,0,1,.76,1.09,1.91,1.91,0,0,1-1.26,1.75,9.14,9.14,0,0,1-2.26.38c-1.18,0-2.36-.15-3.55-.2a2.44,2.44,0,0,0-.74.21c.22.72.8.61,1.22.72.64.18,1.32.22,2,.4a8.64,8.64,0,0,1,1.73.68c1.19.64,1.73,1.6,1.49,2.51s-1.21,1.28-2.53,1.15-2.54-.39-3.81-.59c-.41-.07-.84-.33-1.18.25a2.43,2.43,0,0,0,2,.91,8.36,8.36,0,0,1,3.16,1.28,3.5,3.5,0,0,1,1.51,2.35.74.74,0,0,1-.59,1c-1.52.35-3,.85-4.64.31a7.88,7.88,0,0,0-3.75-.62c.34.36.49.67.72.74a29.13,29.13,0,0,0,3.16.9,9.89,9.89,0,0,1,4.21,2.06c.94.76.94,1.47-.15,2a38.74,38.74,0,0,1-4.68,1.76,4.7,4.7,0,0,1-3.23-.25c-.56-.24-1.16-.37-2.06-.66.22.51.26.89.44,1a14.9,14.9,0,0,0,2,.8c.86.29,1.73.55,2.6.79a3.66,3.66,0,0,1,2.06,1.7,2.1,2.1,0,0,1-.88,3,7.94,7.94,0,0,1-5.2.29c-1.47-.37-2.87-1-4.31-1.5-.4-.14-.83-.64-1.33.17l.94.71c1.74,1.25,3.74,2.15,5.11,3.88.41.53,1.1,1.09.61,1.72a2.38,2.38,0,0,1-1.66.52c-1.43,0-2.85-.06-4.28-.13a9.52,9.52,0,0,1-5.71-2c-.37-.3-.73-.8-1.35-.5-.14.67.39.87.74,1.13,1.18.9,2.43,1.7,3.57,2.65a5.71,5.71,0,0,1,1.46,1.88c.46,1-.05,1.83-1.12,1.78-3.22-.16-6.41-.47-8.87-3a2.55,2.55,0,0,0-1.75-1.1c.11.35.11.65.26.81a31.8,31.8,0,0,0,2.4,2.25,5.24,5.24,0,0,1,1.71,2.59c.32,1-.08,1.52-1.09,1.46a5.6,5.6,0,0,1-1.79-.44,21,21,0,0,1-5.54-3.53c-.36-.31-.67-.83-1.35-.62-.1.67.43.91.76,1.28,1,1.19,2.08,2.37,3,3.6a1.23,1.23,0,0,1,.22,1.12,1.35,1.35,0,0,1-1.14.33,12.89,12.89,0,0,1-6.56-3,6,6,0,0,0-2.08-1.55c.07.46,0,.75.16.93.9,1.29,1.86,2.54,2.76,3.84a7.79,7.79,0,0,1,.76,1.53,1.46,1.46,0,0,1-.35,1.83,1.81,1.81,0,0,1-2.27,0C1110.92,881.09,1108.42,878.47,1107.32,874.61Z"/><path class="cls-30" d="M1135.09,884.66a38.29,38.29,0,0,1-4.27,1.7c-3,.79-5.93,1.49-9,1a15.35,15.35,0,0,1-6.52-2.43c2.42-1.48,2.46-2.1.38-5.89.87.34,1.58.64,2.32.89.94.33,1.9.64,2.86.9a2.87,2.87,0,0,0,1.27,0,1.45,1.45,0,0,0,1.1-2.16c-.1-.26-.23-.52-.46-1,1.56.72,2.74,1.6,4.24,1.61a.81.81,0,0,1,.5.24c1.31,1.5,3.25,2,4.87,2.94.77.47,1.56.93,2.31,1.43C1134.82,884,1134.88,884.27,1135.09,884.66Z"/><path class="cls-30" d="M1143.48,880.1c-1.44,2.8-3.83,3.47-6.55,3.41a2.73,2.73,0,0,1-1.6-.54,17.6,17.6,0,0,0-4.73-2.31c-.82-.34-1.58-.83-2.61-1.39,1.76-1.42.85-2.69.2-4.1,1.44.29,2.71.58,4,.79s2.66.54,3.83-.43c2.12,1,4.24,2,6.28,3.12C1142.81,878.93,1143.11,879.63,1143.48,880.1Z"/><path class="cls-30" d="M1151.38,874.16a3.93,3.93,0,0,1-.68.73,13.19,13.19,0,0,1-5.87,2.84,2.65,2.65,0,0,1-2.39-.42c-.78-.59-2-.63-3-1a15.6,15.6,0,0,1-1.83-.8,2.08,2.08,0,0,1-1.2-1.6,15.8,15.8,0,0,0-1.31-2.87c1.78.12,3.44.2,5.09.34a4.56,4.56,0,0,0,3.51-1c1.39.36,2.81.75,4.23,1.11.56.15,1.12.24,1.67.39a5.34,5.34,0,0,1,1.45.53A1.08,1.08,0,0,1,1151.38,874.16Z"/><path class="cls-30" d="M1158.2,862.76a14.22,14.22,0,0,1-.81,1.94,13.61,13.61,0,0,1-6.2,5.76,6.18,6.18,0,0,1-2.91.25,14.83,14.83,0,0,1-3.2-.79,3.74,3.74,0,0,1-1.4-.93c-1-1.07-1.93-2.21-2.72-3.12,1.17,0,2.58.1,4,.1a6.36,6.36,0,0,0,1.55-.26,2.79,2.79,0,0,0,2.26-2.14,7.44,7.44,0,0,1,.37-1C1152,862.43,1155,862.74,1158.2,862.76Z"/><path class="cls-30" d="M1153.93,861.65c-1.28,0-2.57.08-3.85.15a2,2,0,0,1-1.73-.78c-.52-.62-1.13-1.16-1.89-1.92,1.31-.49,2.48-1,3.69-1.38a2.92,2.92,0,0,0,2.27-2.19c2.69-.28,5.36-.85,7.79.88A7.14,7.14,0,0,1,1153.93,861.65Z"/><path class="cls-30" d="M1164.33,847.29c-.77,1.14-1.52,2.31-2.36,3.4a27.25,27.25,0,0,1-2.11,2.32,4.07,4.07,0,0,1-2.94,1.27c-1.18,0-2.37.19-3.55.32a2.59,2.59,0,0,1-1.87-.54c-.69-.52-1.41-1-2.21-1.59,1.69-.38,3.46-.4,3.45-2.75,4.19-.36,8-1.89,12.18-3.48C1164.63,846.76,1164.5,847,1164.33,847.29Z"/><path class="cls-30" d="M1166.28,844.38a3.08,3.08,0,0,1-1.52,1c-3,1-5.9,2.48-9.08,3-.8.15-1.59.32-2.4.4s-1.43,0-1.77-.85a5.32,5.32,0,0,0-.66-1c1.08-.57,2.73-.71,2.58-2.76,5.16-.76,9.66-3.24,14.5-5.09A7.88,7.88,0,0,1,1166.28,844.38Z"/><path class="cls-30" d="M1168.58,832.92c-.07,1.19-.24,2.38-.25,3.57a2.18,2.18,0,0,1-1.45,2.09c-3.2,1.36-6.42,2.69-9.68,3.91a27.33,27.33,0,0,1-3.76.86l-2.12-2c2.12-.1,3.24-1.38,3.67-3.39a63.35,63.35,0,0,0,13.38-6.16A6.13,6.13,0,0,1,1168.58,832.92Z"/><path class="cls-30" d="M1168.59,830.52c-1.76,1-3.47,2.15-5.29,3-2.36,1.14-4.8,2.12-7.23,3.11a2.4,2.4,0,0,1-2.57-.15,5.36,5.36,0,0,0-1.5-.49l.84-.68a2.74,2.74,0,0,0,1.17-2c0-.68.44-1,1.07-1.36,3-1.58,6.08-3.2,9.05-4.92a48.24,48.24,0,0,0,4.07-2.73A29.94,29.94,0,0,1,1168.59,830.52Z"/><path class="cls-30" d="M1168,823.18a57.69,57.69,0,0,1-12.87,7.83,3.93,3.93,0,0,1-.52.17l-2.31-1.76c1.4-1.25,2.92-2.54,4.36-3.91s2.76-2.77,4.16-4.14a16.42,16.42,0,0,1,2-1.64,1.93,1.93,0,0,1,2.16-.05A5.68,5.68,0,0,1,1168,823.18Z"/><path class="cls-35" d="M1081.47,868.89c-.14-.15-.36-.28-.4-.45-.32-1.34-.92-2.61-1.16-4,.23,0,.4,0,.43.05a16.14,16.14,0,0,1,1.43,4.25Z"/><path class="cls-35" d="M1087,852.83c-.36.13-.5-.13-.62-.37-.56-1.17-1.47-2.18-1.64-3.67A8.83,8.83,0,0,1,1087,852.83Z"/><path class="cls-35" d="M1083.86,901.37l3.13,4c-.1,0-.22.15-.29.12-1.19-.49-1.55-1.73-2.34-2.58A1.68,1.68,0,0,1,1083.86,901.37Z"/><path class="cls-35" d="M1103.56,912.55c-.18.13-.3.26-.35.24-1.24-.62-2.48-1.24-3.71-1.89-.16-.09-.25-.31-.57-.73A26.34,26.34,0,0,1,1103.56,912.55Z"/><path class="cls-35" d="M1101.59,905.53c-.4.45-.64.23-.87.11a6.63,6.63,0,0,1-2.88-2.35C1099.33,903.84,1100.3,904.9,1101.59,905.53Z"/><path class="cls-35" d="M1086.74,863.51c.81,1,.93,2.21,1.38,3.65-.41-.27-.62-.33-.69-.47A7.74,7.74,0,0,1,1086.74,863.51Z"/><path class="cls-35" d="M1076,853.12a6.29,6.29,0,0,1,.17,1.48,4.77,4.77,0,0,0,.29,2c.07.12-.1.41-.21.59a.37.37,0,0,1-.57-.06c0-.06-.06-.11-.06-.16,0-1.23.09-2.45.14-3.68C1075.77,853.23,1075.86,853.21,1076,853.12Z"/><path class="cls-35" d="M1087.31,899.27a9.59,9.59,0,0,1-2.63-3.26A7,7,0,0,1,1087.31,899.27Z"/><path class="cls-35" d="M1081.2,881.9c-.33-.09-.55-.09-.59-.17-.51-1.11-1-2.22-1.49-3.35,0-.06.07-.19.1-.28s.26,0,.31.07A15.14,15.14,0,0,1,1081.2,881.9Z"/><path class="cls-35" d="M1092.47,858.52a15,15,0,0,1-2.19-3c-.07-.09,0-.29,0-.47A5,5,0,0,1,1092.47,858.52Z"/><path class="cls-35" d="M1104.39,915.64l4.13.57c-.09.14-.15.35-.24.36a7.26,7.26,0,0,1-3.27-.33C1104.83,916.19,1104.72,916,1104.39,915.64Z"/><path class="cls-35" d="M1090.29,870c.08.07.2.12.24.21.46,1.13.91,2.26,1.39,3.45-.68-.26-.68-.26-1.18-1.22A2.92,2.92,0,0,1,1090.29,870Z"/><path class="cls-35" d="M1088.54,858.25c.28.07.49.07.56.16a5.26,5.26,0,0,1,1,2.86c-.05,0-.14.06-.16,0a2.27,2.27,0,0,1-.49-.65A17.29,17.29,0,0,1,1088.54,858.25Z"/><path class="cls-35" d="M1097.32,863.48c-.88-.94-1.36-2.11-2.24-3.24.34,0,.53,0,.61,0A5.83,5.83,0,0,1,1097.32,863.48Z"/><path class="cls-35" d="M1076.73,867.34c.18,1.36.82,2.43,1,3.79-.29-.15-.5-.19-.54-.29a9.75,9.75,0,0,1-.91-3.21S1076.45,867.52,1076.73,867.34Z"/><path class="cls-35" d="M1074.14,874a1.23,1.23,0,0,1-.3.11.22.22,0,0,1-.16,0c-.09-.06-.22-.13-.24-.21-.25-1.1-.5-2.19-.72-3.29,0-.25-.14-.56.27-.82C1073.55,871.11,1073.52,872.6,1074.14,874Z"/><path class="cls-35" d="M1081.85,887c.87,1.47,1.59,2.66,2.29,3.85,0,0,0,.1-.09.2-.75-.28-1-1-1.38-1.59A3.14,3.14,0,0,1,1081.85,887Z"/><path class="cls-35" d="M1077.86,884.74a18.94,18.94,0,0,1,1.64,3.21c-.36-.13-.55-.13-.6-.22a9.28,9.28,0,0,1-1.32-2.63C1077.56,885,1077.7,884.94,1077.86,884.74Z"/><path class="cls-35" d="M1094,911.27a6.83,6.83,0,0,1-2.92-2.21A5.44,5.44,0,0,1,1094,911.27Z"/><path class="cls-35" d="M1091.25,902.31a10.34,10.34,0,0,1,3.07,3.22c-.36-.14-.54-.16-.63-.25-.9-.9-1.77-1.8-2.66-2.71Z"/><path class="cls-35" d="M1074.47,884.2a3.93,3.93,0,0,1-.54-1c-.2-.86-.85-1.56-.88-2.53C1073.88,881.25,1074.39,882.31,1074.47,884.2Z"/><path class="cls-35" d="M1090.58,895.77a22,22,0,0,1,3.08,3.1c-.34,0-.54.06-.61,0-.86-.87-1.7-1.77-2.53-2.66C1090.48,896.15,1090.54,896,1090.58,895.77Z"/><path class="cls-35" d="M1095.34,872a7.61,7.61,0,0,1,1.7,3.54c-.24-.1-.4-.11-.44-.18-.52-1-1-2.1-1.54-3.15Z"/><path class="cls-35" d="M1092.83,864.13c1,.73,1.39,1.58,1.7,3.4-.06,0-.12,0-.15,0a1.15,1.15,0,0,1-.36-.33c-.43-1-.85-1.92-1.27-2.89C1092.74,864.24,1092.8,864.18,1092.83,864.13Z"/><path class="cls-35" d="M1077.66,891.09c-.16-.05-.3-.05-.35-.12-.64-.83-1.26-1.67-1.86-2.48.18-.36.42-.28.55-.11.57.74,1.11,1.5,1.64,2.27C1077.71,890.75,1077.65,890.93,1077.66,891.09Z"/><path class="cls-35" d="M1076.8,876.86a8.82,8.82,0,0,1-.91-3.07c.16.13.39.22.46.38A3.43,3.43,0,0,1,1076.8,876.86Z"/><path class="cls-35" d="M1073.57,864.47a7.32,7.32,0,0,1-.17-3c0-.18.21-.35.34-.56.12.16.23.24.23.32,0,1,0,2-.08,3,0,0-.07.09-.11.12A1.59,1.59,0,0,1,1073.57,864.47Z"/><path class="cls-35" d="M1084.39,874a5.93,5.93,0,0,1,1.63,3c-.1,0-.23,0-.29,0a1.2,1.2,0,0,1-.32-.39A9.9,9.9,0,0,1,1084.39,874Z"/><path class="cls-35" d="M1088,888.05a5.5,5.5,0,0,1,.34.5c.5.85,1,1.71,1.58,2.73C1088.79,890.66,1088.29,889.9,1088,888.05Z"/><path class="cls-35" d="M1078.79,894.62l1.69,2.45a.29.29,0,0,1-.5.14A2.9,2.9,0,0,1,1078.79,894.62Z"/><path class="cls-35" d="M1084.31,855.06c.35,1,.71,2.06,1.07,3.09,0,0-.06.09-.14.24-.17-.12-.41-.2-.47-.35a6.26,6.26,0,0,1-.83-2.9Z"/><path class="cls-35" d="M1095.65,892.06a2.38,2.38,0,0,1-1.64-1.13,2.8,2.8,0,0,1-1-1.8A17.52,17.52,0,0,1,1095.65,892.06Z"/><path class="cls-35" d="M1077.69,860.38a13.54,13.54,0,0,1,.71,2.8c-.34.2-.51.1-.59-.14A4,4,0,0,1,1077.69,860.38Z"/><path class="cls-35" d="M1081.66,848.44c.73.81.53,1.81.68,3-.31-.26-.55-.36-.58-.5A5.79,5.79,0,0,1,1081.66,848.44Z"/><path class="cls-35" d="M1083.62,863.06a.78.78,0,0,1-.78-.75,5.56,5.56,0,0,1,0-2.54c.07.07.18.14.2.22C1083.24,861,1083.42,862,1083.62,863.06Z"/><path class="cls-35" d="M1094.81,886.07a4,4,0,0,1-2-2.76c.16.09.34.14.42.26A15.17,15.17,0,0,1,1094.81,886.07Z"/><path class="cls-35" d="M1088.55,881.6a4.25,4.25,0,0,1,1.61,2.84A4.35,4.35,0,0,1,1088.55,881.6Z"/><path class="cls-35" d="M1090.49,878.26c-1.11-.31-1.26-1.15-1.6-1.81-.14-.28-.31-.62.16-.91Z"/><path class="cls-35" d="M1079.76,854.71c.14.76.28,1.5.39,2.25,0,.09-.2.23-.33.3a.31.31,0,0,1-.25-.15,2.63,2.63,0,0,1-.15-2.24C1079.45,854.81,1079.59,854.79,1079.76,854.71Z"/><path class="cls-35" d="M1096.45,896.66a4.91,4.91,0,0,1,2.39,2c-.14.08-.26.18-.29.16A8.42,8.42,0,0,1,1096.45,896.66Z"/><path class="cls-35" d="M1081,874.16a3.12,3.12,0,0,1-1-2.87c.09,0,.25.05.27.11.29.84.57,1.68.83,2.52C1081.15,874,1081,874.08,1081,874.16Z"/><path class="cls-35" d="M1086.17,870.39a7.78,7.78,0,0,1-1.46-3.48A6,6,0,0,1,1086.17,870.39Z"/><path class="cls-35" d="M1094.09,877.53c.67.27.58,1,.87,1.36s.58.91,1,1.5C1094.7,879.77,1094.49,879.44,1094.09,877.53Z"/><path class="cls-35" d="M1085.36,883.9c-1.2-1.72-1.2-1.72-1.27-2.75A3.49,3.49,0,0,1,1085.36,883.9Z"/><path class="cls-35" d="M1078.55,848.56a5.1,5.1,0,0,1,0,2.77c-.2-.09-.35-.11-.37-.17A3.85,3.85,0,0,1,1078.55,848.56Z"/><path class="cls-36" d="M1083.55,820.86a6.38,6.38,0,0,1,2.26-4.11,5.58,5.58,0,0,1,3.52-1.3c1.51,0,3,0,4.54.08a7.54,7.54,0,0,1,4.41,1.91,1.88,1.88,0,0,1,.5.59c3.38,6.18-1.26,11.14-6.58,11.26a9.37,9.37,0,0,1-6.17-1.75A7.17,7.17,0,0,1,1083.55,820.86Z"/><path class="cls-35" d="M1058.56,826.85a6.55,6.55,0,0,1-2.51-3.52c-.49-1.38-.76-2.84-1.28-4.21a6.27,6.27,0,0,0-2.66-3.39,3.22,3.22,0,0,0-4,.64,4,4,0,0,0-.19,3.75,4.31,4.31,0,0,0-2.35-.3,2.35,2.35,0,0,0-1.8,1.42,2.48,2.48,0,0,0,.63,2.44,6,6,0,0,0,2.23,1.4A24.47,24.47,0,0,0,1058.56,826.85Z"/><path class="cls-35" d="M1030,804.6a4.74,4.74,0,0,1-.39-3c.15-1,.47-2,.6-3a4.34,4.34,0,0,0-.53-3,2.27,2.27,0,0,0-2.69-.93,2.83,2.83,0,0,0-1.36,2.27,3.05,3.05,0,0,0-1.36-1,1.68,1.68,0,0,0-1.59.29,1.74,1.74,0,0,0-.41,1.72,4.12,4.12,0,0,0,.92,1.61A17.28,17.28,0,0,0,1030,804.6Z"/><path class="cls-35" d="M1039.86,799.7a2.4,2.4,0,0,0-1.18,2.66,5.87,5.87,0,0,0,1.86,3.31,11.17,11.17,0,0,0,3.28,2,21.44,21.44,0,0,0,4.36,1.37,17.36,17.36,0,0,1-1.34-7.63,8.36,8.36,0,0,0-.06-2.45,2.1,2.1,0,0,0-1.64-1.63,2,2,0,0,0-1.88,1.22,6.11,6.11,0,0,0-.44,2.33C1042,800.13,1040.92,799.31,1039.86,799.7Z"/><path class="cls-35" d="M1031.84,818.48a2.54,2.54,0,0,1,1-.37,4.78,4.78,0,0,1-1-2.05,4.64,4.64,0,0,0-1.07-2,2.08,2.08,0,0,0-2.3-.45,2.16,2.16,0,0,0-.43,2l-1.77-.24a1.22,1.22,0,0,0-.2,1.89,3.73,3.73,0,0,0,2.1,1A12.8,12.8,0,0,0,1031.84,818.48Z"/><path class="cls-31" d="M1074.53,821.13c1.22,3.46,5.93,7.82,9.94,9.57-3.39,3.89-11.23,4.43-13.34,3.47a25.91,25.91,0,0,0-11.48-1.75c3.43-4,15.42-3.18,18.51-2.43-6-1-21.65-13-22.82-20.2C1058.93,813.27,1072.41,819.38,1074.53,821.13Z"/><path d="M1085.93,824.09a6.67,6.67,0,0,0,1.36-1.72,5.91,5.91,0,0,1-.8-1.54c-.25-.75,1.1-.65,1.3-.05,1.19,3.53,5.51,3.66,7.36.64.34-.54,1.54.1,1.16.73a5.42,5.42,0,0,1-1.56,1.63l.91,1.89c.14.28-.18.47-.41.47a.78.78,0,0,1-.73-.44l-.69-1.43a3.17,3.17,0,0,1-.49.17,7.76,7.76,0,0,1-.26,2.4c-.15.56-1.3.14-1.14-.44a6.94,6.94,0,0,0,.22-1.75,5.41,5.41,0,0,1-1.65-.16,7.4,7.4,0,0,1-.69,2c-.27.53-1.41.08-1.14-.43a6.81,6.81,0,0,0,.68-2,5.6,5.6,0,0,1-1.21-.79,7.53,7.53,0,0,1-1.2,1.44C1086.53,825.11,1085.47,824.51,1085.93,824.09Z"/><path class="cls-37" d="M1098.31,809.14c6.22-.22,12-2.85,15.74-5,.48-.28,1.15-.54,1.56-.15a1.29,1.29,0,0,1,.13,1.3c-.83,2.75-3.94,3.16-3.32,3.35s1.85.73,1.77,1.66a2.14,2.14,0,0,1-2,1.74c-1,.07-3.1-.67-2.85-.35s2.4,1.53,1.93,2.86-2.14,2-3.62,2.21c-2.65.31-5-1.45-7.46-2.55s-12.1-3.46-18.86-.3A23.45,23.45,0,0,1,1098.31,809.14Z"/><line class="cls-38" x1="1501.06" y1="333.56" x2="1494.54" y2="341.52"/><line class="cls-39" x1="1478.06" y1="361.63" x2="1130.37" y2="786"/><line class="cls-38" x1="1122.13" y1="796.06" x2="1115.61" y2="804.02"/><line class="cls-38" x1="1426.15" y1="305.85" x2="1419.15" y2="313.4"/><line class="cls-40" x1="1401.55" y1="332.38" x2="935.1" y2="835.44"/><line class="cls-38" x1="926.3" y1="844.93" x2="919.3" y2="852.48"/><line class="cls-27" x1="1408.1" y1="239.05" x2="719.15" y2="722.33"/><line class="cls-41" x1="1408.1" y1="239.05" x2="1399.68" y2="244.96"/><line class="cls-42" x1="1378.41" y1="259.88" x2="738.21" y2="708.97"/><line class="cls-41" x1="727.58" y1="716.43" x2="719.15" y2="722.33"/><line class="cls-27" x1="1433.13" y1="157.58" x2="655.22" y2="552.61"/><line class="cls-43" x1="1433.13" y1="157.58" x2="1423.96" y2="162.23"/><line class="cls-44" x1="1401.21" y1="173.78" x2="675.76" y2="542.18"/><line class="cls-43" x1="664.39" y1="547.96" x2="655.22" y2="552.61"/><line class="cls-45" x1="778.45" y1="126.81" x2="711.39" y2="712.3"/><line class="cls-46" x1="881.92" y1="124.9" x2="1101.24" y2="799.53"/><line class="cls-47" x1="894.94" y1="857.27" x2="652.65" y2="589.82"/><line class="cls-48" x1="659.63" y1="570.21" x2="1078.79" y2="802.33"/></g></g></svg>