<svg xmlns="http://www.w3.org/2000/svg" viewBox="0 0 121.62 120.72"><defs><style>.cls-1{fill:#faaf3b;}</style></defs><title>sun</title><g id="Capa_3" data-name="Capa 3"><path class="cls-1" d="M93.73,62.11A32.53,32.53,0,1,1,61.2,29.58,32.52,32.52,0,0,1,93.73,62.11Z"/><path class="cls-1" d="M71.32,23.18a1.43,1.43,0,0,1-.77-.22c-.08,0-2.77-1.58-9.35-1.58S51.88,23,51.86,23a1.48,1.48,0,0,1-1.79-.21A1.44,1.44,0,0,1,49.83,21L59.94,3.47a1.46,1.46,0,0,1,1.26-.73,1.47,1.47,0,0,1,1.27.73L72.58,21a1.46,1.46,0,0,1-1.26,2.19Z"/><path class="cls-1" d="M43.93,25.79a1.43,1.43,0,0,1-.73.32c-.08,0-3.13.57-8.17,4.8s-6.14,7.19-6.15,7.22a1.47,1.47,0,0,1-1.5,1,1.46,1.46,0,0,1-1.32-1.2L22.55,18a1.44,1.44,0,0,1,.5-1.37,1.43,1.43,0,0,1,1.43-.25l19,6.91a1.47,1.47,0,0,1,.44,2.5Z"/><path class="cls-1" d="M24.63,45.39a1.49,1.49,0,0,1-.35.71c-.06.07-2,2.46-3.18,8.93S21,64.48,21,64.51a1.47,1.47,0,0,1-.51,1.72,1.44,1.44,0,0,1-1.78-.06l-15.5-13a1.46,1.46,0,0,1,.44-2.49l19-6.92a1.47,1.47,0,0,1,1.94,1.63Z"/><path class="cls-1" d="M22.44,72.81a1.45,1.45,0,0,1,.19.77c0,.09,0,3.19,3.31,8.88s6,7.3,6,7.31a1.47,1.47,0,0,1-.7,2.75H11.06a1.46,1.46,0,0,1-1.27-2.19L19.91,72.81a1.45,1.45,0,0,1,1.67-.67A1.49,1.49,0,0,1,22.44,72.81Z"/><path class="cls-1" d="M38.39,95.22a1.41,1.41,0,0,1,.64.47c.06.07,2.07,2.43,8.25,4.68s9.29,1.72,9.32,1.71a1.5,1.5,0,0,1,1.61.81,1.46,1.46,0,0,1-.38,1.74l-15.49,13a1.47,1.47,0,0,1-2.38-.87L36.45,96.85a1.45,1.45,0,0,1,.85-1.59A1.47,1.47,0,0,1,38.39,95.22Z"/><path class="cls-1" d="M65,102.14a1.55,1.55,0,0,1,.8-.06c.08,0,3.15.54,9.32-1.71s8.23-4.66,8.25-4.68A1.46,1.46,0,0,1,86,96.85l-3.51,19.92a1.47,1.47,0,0,1-.94,1.12,1.45,1.45,0,0,1-1.44-.26l-15.5-13a1.47,1.47,0,0,1-.37-1.76A1.52,1.52,0,0,1,65,102.14Z"/><path class="cls-1" d="M89.86,90.33a1.46,1.46,0,0,1,.57-.56c.08,0,2.75-1.61,6-7.3s3.31-8.86,3.31-8.89a1.48,1.48,0,0,1,1.07-1.44,1.44,1.44,0,0,1,1.65.67l10.12,17.52a1.46,1.46,0,0,1-1.27,2.19H91.12a1.47,1.47,0,0,1-1.42-1.11A1.44,1.44,0,0,1,89.86,90.33Z"/><path class="cls-1" d="M101.3,65.31a1.37,1.37,0,0,1,.08-.8c0-.08,1.07-3-.08-9.48s-3.15-8.9-3.17-8.93A1.49,1.49,0,0,1,98,44.31a1.46,1.46,0,0,1,1.7-.55l19,6.92a1.46,1.46,0,0,1,.94,1.12,1.49,1.49,0,0,1-.5,1.37l-15.5,13a1.46,1.46,0,0,1-1.8.06A1.44,1.44,0,0,1,101.3,65.31Z"/><path class="cls-1" d="M94,38.79a1.53,1.53,0,0,1-.45-.66c0-.08-1.11-3-6.14-7.22s-8.15-4.79-8.18-4.8A1.49,1.49,0,0,1,78,24.81a1.46,1.46,0,0,1,1-1.52l19-6.92a1.48,1.48,0,0,1,1.44.26,1.46,1.46,0,0,1,.5,1.37L96.35,37.92A1.48,1.48,0,0,1,95,39.13,1.52,1.52,0,0,1,94,38.79Z"/></g></svg>