<svg id="Layer_1" data-name="Layer 1" xmlns="http://www.w3.org/2000/svg" viewBox="0 0 270 417"><defs><style>.cls-1{fill:#d37a76;}.cls-2{fill:#c14f46;}.cls-3{fill:#96281b;}.cls-4{fill:#f9c38a;}.cls-5{fill:#5f9653;}.cls-6{fill:#e59553;}.cls-7{fill:#fbcb43;}.cls-8{fill:#64b044;}.cls-9{fill:#fff;}.cls-10{fill:#e8721b;}.cls-11{fill:#cc590a;}.cls-12{fill:#4dbfd9;}.cls-13{fill:#1ac;}.cls-14{fill:#d73d33;}.cls-15{fill:#c6221e;}</style></defs><title>Artboard 1</title><path class="cls-1" d="M170.79,374.71c-1,1.64-5.85,9-10.4,12-5.13,3.42-10.61,4.11-10.27-1,.25-3.78,4.19-8.64,6.26-11H152.8c-1.17,1.53-8.41,11.25-9.43,18.17a17.67,17.67,0,0,0,12.06,2.54c7.37-1.07,18-5.53,23.51-13.18a59.15,59.15,0,0,0,.15-7.53Z"/><path class="cls-2" d="M156.38,374.71c-2.07,2.31-6,7.17-6.26,11-.34,5.14,5.14,4.45,10.27,1,4.55-3,9.35-10.34,10.4-12Z"/><path class="cls-2" d="M156.28,398.33c9.59-1.37,17.81-5.31,21.8-12.44a10.22,10.22,0,0,0,.86-3.65c-5.55,7.65-16.14,12.11-23.51,13.18a17.67,17.67,0,0,1-12.06-2.54c0,.22-.08.44-.1.66C142.9,397.63,148.42,399.46,156.28,398.33Z"/><path class="cls-1" d="M209.8,374.71c1,1.64,5.85,9,10.39,12,5.14,3.42,10.62,4.11,10.28-1-.26-3.78-4.2-8.64-6.27-11h3.59c1.16,1.53,8.4,11.25,9.42,18.17a17.62,17.62,0,0,1-12.05,2.54c-7.37-1.07-18-5.53-23.52-13.18a59.15,59.15,0,0,1-.15-7.53Z"/><path class="cls-2" d="M224.2,374.71c2.07,2.31,6,7.17,6.27,11,.34,5.14-5.14,4.45-10.28,1-4.54-3-9.35-10.34-10.39-12Z"/><path class="cls-2" d="M224.3,398.33c-9.58-1.37-17.8-5.31-21.8-12.44a10.44,10.44,0,0,1-.86-3.65c5.56,7.65,16.15,12.11,23.52,13.18a17.62,17.62,0,0,0,12.05-2.54c0,.22.08.44.1.66C237.69,397.63,232.17,399.46,224.3,398.33Z"/><path class="cls-3" d="M223.58,221.18l-32.88,2.06-32.88-2.06s-.61,5.11-1.09,12.48c-1,15.22-2.22,40-2.22,48.32,0,12.4-2.89,94.29-2.89,94.29l28.12.41s3.62-59.38,5-79c.84-12.14,5.38-48.39,5.38-48.39s6.53,37.4,7.44,49.63c1.46,19.51,3.73,77.34,3.73,77.34h28.12s-2.48-81.89-2.48-94.29c0-8.39-1.29-33.34-2.27-48.55C224.15,226.13,223.58,221.18,223.58,221.18Z"/><path class="cls-4" d="M128.42,222.11s1,19.32,3.38,31.2c1.06,5.23,4,9.6,5.83-.35,1-5.72.74-11.74.58-15.52-.18-4.21,2.39-3.34,3.44-1.07,2,4.37,4.41,4,6.43,3.84,2.82-.17-1.81-4.71-2.61-10-.55-3.58-1-11.52-1-11.52Z"/><path class="cls-4" d="M253,222.88s-1,19.33-3.37,31.21c-1.07,5.23-4,9.6-5.83-.35a71,71,0,0,1-.59-15.52c.18-4.21-2.39-3.34-3.44-1.07-2,4.37-4.41,4-6.43,3.84-2.81-.17,1.81-4.71,2.62-10,.55-3.58,1-11.52,1-11.52Z"/><path class="cls-5" d="M163,152.91c0-5.46-2-21.84-2.34-27.68s-8.19-18.72-8.19-18.72,3.12,18.72,2.34,23.78S142,183.7,142,193.06c0,7.49,1,25.44,1.39,32.32l2.88-.48s-1.65-33.08,1.24-50.86c1.61-9.87,10.55-38.57,10.55-38.57s2,31.13,1,48.9c-1.09,19.26-2.18,44.26-2.42,50h4.88c.19-9.15.72-35.95.72-41.75C162.24,185.65,163,158.36,163,152.91Z"/><path class="cls-5" d="M239.82,193.06c-.39-19.1-9.36-47.95-12.86-62.77-1.19-5,2.33-23.78,2.33-23.78s-7.79,12.87-8.18,18.72-2.34,22.22-2.34,27.68.78,32.74.78,39.76c0,5.8.53,32.6.72,41.75h4.47c-.25-5.79-1.34-30.79-2.43-50-1-17.77,1-48.9,1-48.9s8.94,28.7,10.54,38.57c2.9,17.78,1.24,50.86,1.24,50.86l3.31.56C238.88,218.62,240,200.57,239.82,193.06Z"/><path class="cls-6" d="M205.13,94c-3.15-3.78-2.44-13.14-2.44-13.14L190.6,82l-12.1-1.08s.72,9.42-2.47,13.17a23.24,23.24,0,0,0,13.64,4.38A27.93,27.93,0,0,0,205.13,94Z"/><path class="cls-7" d="M131.83,157.19c1.95-7.79,8.19-33.52,9.75-37.42s5.07-11.7,9-14.82,15.6-3.11,21.45-5.06a13.77,13.77,0,0,0,4.72-2.57A27.28,27.28,0,0,1,174,95.51c-4.77,2.26-12.61,3.64-16.89,4.29-5.72.88-12.62,2.24-16.75,15.51-4.34,14-7.37,24.1-8.58,28.95-2.48,9.92-7,33.08-6.62,52.11.24,10.92,1.24,31.84,1.24,31.84l2.93-.48c-.33-8.91-1-27.8-1-33.11C128.32,187.6,129.88,165,131.83,157.19Z"/><path class="cls-7" d="M249.61,144.26c-1.22-4.85-4.24-15-8.58-28.95C236.9,102,230,100.68,224.28,99.8c-4.33-.66-12.26-2-17-4.34a27.7,27.7,0,0,1-3.55,2.12,14.34,14.34,0,0,0,4.41,2.31c5.85,2,17.55,2,21.44,5.06s7.41,10.92,9,14.82,7.8,29.63,9.75,37.42,3.51,30.41,3.51,37.43c0,5.26-.66,23.9-1,32.9l4.18.69s1-20.92,1.24-31.84C256.64,177.34,252.09,154.18,249.61,144.26Z"/><path class="cls-8" d="M248.28,157.19c-1.95-7.79-8.19-33.52-9.75-37.42s-5.07-11.7-9-14.82-15.59-3.11-21.44-5.06a14.34,14.34,0,0,1-4.41-2.31,31.08,31.08,0,0,1-14,3.18,25.66,25.66,0,0,1-13-3.44A13.77,13.77,0,0,1,172,99.89c-5.85,2-17.55,2-21.45,5.06s-7.4,10.92-9,14.82-7.8,29.63-9.75,37.42-3.51,30.41-3.51,37.43c0,5.31.67,24.2,1,33.11l14-2.35c-.4-6.88-1.39-24.83-1.39-32.32,0-9.36,12.08-57.7,12.86-62.77s-2.34-23.78-2.34-23.78,7.8,12.87,8.19,18.72S163,147.45,163,152.91s-.78,32.74-.78,39.76c0,5.8-.53,32.6-.72,41.75h58.75c-.19-9.15-.72-35.95-.72-41.75,0-7-.78-34.31-.78-39.76s1.95-21.84,2.34-27.68,8.18-18.72,8.18-18.72-3.52,18.79-2.33,23.78c3.5,14.82,12.47,43.67,12.86,62.77.15,7.51-.94,25.56-1.38,32.39l12.36,2.07c.33-9,1-27.64,1-32.9C251.79,187.6,250.23,165,248.28,157.19Z"/><path class="cls-9" d="M206.22,95l-.08-.06c-1.22.57-2.42,1.1-3.62,1.57.07.08.17.16.24.23A36.77,36.77,0,0,0,206.22,95Z"/><path class="cls-9" d="M205.13,94a27.93,27.93,0,0,1-15.46,4.41A23.24,23.24,0,0,1,176,94.05a9.65,9.65,0,0,1-2,1.46,27.28,27.28,0,0,0,2.72,1.81,25.66,25.66,0,0,0,13,3.44,31.08,31.08,0,0,0,14-3.18,27.7,27.7,0,0,0,3.55-2.12A14,14,0,0,1,205.13,94Z"/><polygon class="cls-9" points="224.82 235.1 156.64 235.1 156.73 232.76 224.69 232.76 224.82 235.1"/><path class="cls-4" d="M213.84,33.32c-6.07-11.68-18.54-8.28-23.13-6.53-4.58-1.75-17.06-5.15-23.13,6.53,0,0-.15,8.87.33,18.6.46,9.18,1.48,19.12,3.72,23a23.66,23.66,0,0,0,17.7,12c.27,0,2.22,0,2.35,0A23.58,23.58,0,0,0,209.8,75C214.42,66.87,213.84,33.32,213.84,33.32Z"/><path class="cls-4" d="M169.56,52.31s-8.23-5.76-6.72,6.33c1,7.91,9.1,10.68,10.28,6.33Z"/><path class="cls-4" d="M212.66,52.31s8.33-4.75,6.72,6.33c-1.42,9.8-9.1,10.68-10.28,6.33Z"/><path class="cls-6" d="M168.18,55.48l.39,7.31s-4.94-1.38-3.36-7.12C166,53,168.18,55.48,168.18,55.48Z"/><path class="cls-6" d="M213.36,55.48l-.4,7.31s4.95-1.38,3.36-7.12C215.58,53,213.36,55.48,213.36,55.48Z"/><path class="cls-9" d="M174.28,54.27a4.4,4.4,0,0,1,2-3.46,6.26,6.26,0,0,1,5.56-.73c1.51.73,2.53,1.07,2.68,2.05s-.1,3.12-3.27,4.14C179.19,57,174,56.56,174.28,54.27Z"/><path class="cls-3" d="M184.68,51.08c-.94-2-4.46-2.34-6.38-1.93a5.76,5.76,0,0,0-4.64,5,.53.53,0,0,0,1,.23c.86-4.26,6.06-5.37,9.32-2.74A.43.43,0,0,0,184.68,51.08Z"/><path class="cls-3" d="M184,38.58a8.55,8.55,0,0,0-5.39.14c-2.61.78-5.76,2.86-6.53,5.6-.16.56.55.78.91.46,2-1.74,3.29-3.27,5.95-4.2a11.21,11.21,0,0,1,5.16-.58C184.7,40.06,185,39,184,38.58Z"/><circle class="cls-3" cx="180.05" cy="53.23" r="2.27"/><path class="cls-9" d="M181.05,52.62a1,1,0,1,1-1-1A1,1,0,0,1,181.05,52.62Z"/><path class="cls-9" d="M207.43,54.27a4.41,4.41,0,0,0-2.05-3.46,6.23,6.23,0,0,0-5.55-.73c-1.52.73-2.54,1.07-2.69,2.05s.1,3.12,3.27,4.14C202.51,57,207.73,56.56,207.43,54.27Z"/><path class="cls-3" d="M197,51.08c.93-2,4.45-2.34,6.38-1.93,2.65.55,4.1,2.35,4.63,5a.53.53,0,0,1-1,.23c-.87-4.26-6.07-5.37-9.33-2.74A.42.42,0,0,1,197,51.08Z"/><path class="cls-3" d="M197.73,38.58a8.58,8.58,0,0,1,5.4.14c2.6.78,5.75,2.86,6.52,5.6.16.56-.55.78-.91.46-2-1.74-3.29-3.27-5.94-4.2a11.25,11.25,0,0,0-5.17-.58C197,40.06,196.71,39,197.73,38.58Z"/><path class="cls-3" d="M199.39,53.23A2.27,2.27,0,1,0,201.65,51,2.26,2.26,0,0,0,199.39,53.23Z"/><path class="cls-9" d="M200.65,52.62a1,1,0,1,0,1-1A1,1,0,0,0,200.65,52.62Z"/><path class="cls-6" d="M194.89,57.49c-.54-1.83-3.26-3-1.27,5.46.39,1.65.1,2.24-1.25,3.69a1,1,0,0,0,0,1.45.76.76,0,0,0,.82.32C198.41,67.57,195.86,60.75,194.89,57.49Z"/><path class="cls-6" d="M199.92,73.05c-3.55.11-7,1.74-16.42.5-1.77-.23-2.35.52.08,1.23a25.55,25.55,0,0,0,4.46.71c3.3.33,8.66.19,12.23-1.59C200.73,73.67,200.36,73,199.92,73.05Z"/><path class="cls-6" d="M196.4,78a17.48,17.48,0,0,1-4.34.83,18.56,18.56,0,0,1-4.77-.59c-.85-.22-.89.65-.25,1.07a9.25,9.25,0,0,0,4.88,1.07,6.05,6.05,0,0,0,4.48-1.65C196.79,78.27,196.62,77.9,196.4,78Z"/><path class="cls-3" d="M165,51.06a2.81,2.81,0,0,1,1.88.19,4.76,4.76,0,0,1,1.7,1.63l1.32-2.19-.68-16.88a41.36,41.36,0,0,1,20.46-5.66c11.7,0,22.42,6.05,22.42,6.05l.12,16.42,1.25,2.63a8.32,8.32,0,0,1,2-1.83c.38-.22,1.92.12,1.92.12s6.78-19.22.93-29.36S200.3,11,191.14,11,168.81,12.56,164,20.87C157.44,32,165,51.06,165,51.06Z"/><path class="cls-4" d="M35.92,394.23c6.94,1.39,11.08-6.91,13.86-15.09a85.38,85.38,0,0,0,.73-8.86c0-4.13,1.92-10.73,1.92-10.73s-8,3.3-12.38.27c0,0,.55,4.13-.83,7.16a185.36,185.36,0,0,0-6.88,19.27l-.15.57C32.11,389.82,32.69,393.59,35.92,394.23Z"/><path class="cls-3" d="M33.71,401.94c6.61,3.31,12.12-5.23,13.77-10.46a81.39,81.39,0,0,0,2.3-12.34c-2.78,8.18-6.92,16.48-13.86,15.09-3.23-.64-3.81-4.41-3.73-7.41C30.81,392,28.9,399.54,33.71,401.94Z"/><path class="cls-4" d="M104.41,394.23c-7,1.39-11.08-6.91-13.87-15.09a84.79,84.79,0,0,1-.72-8.86c0-4.13-1.93-10.73-1.93-10.73s8,3.3,12.39.27c0,0-.55,4.13.82,7.16A187.53,187.53,0,0,1,108,386.25c0,.18.1.38.15.57C108.21,389.82,107.64,393.59,104.41,394.23Z"/><path class="cls-3" d="M106.61,401.94c-6.61,3.31-12.11-5.23-13.76-10.46a80,80,0,0,1-2.31-12.34c2.79,8.18,6.92,16.48,13.87,15.09,3.23-.64,3.8-4.41,3.73-7.41C109.51,392,111.42,399.54,106.61,401.94Z"/><path class="cls-10" d="M38.7,135.9s-7.25-55.08,3.76-79.44c6-13.3,16-10.32,16-10.32s3.87-7.39,15.84-6,24.64,6,27.1,31.68-.75,62.71-.75,62.71S68.27,150,38.7,135.9Z"/><path class="cls-11" d="M44,134.14s-4.81-51.72,15.9-52.61S92.21,92.25,94.32,94.36s2.46,44.35,2.46,44.35Z"/><path class="cls-4" d="M43.87,130.38c-4.23,3.76-24.53,31.57-28,36.74s-3.3,9.08,1.1,16.24c2.84,4.62,17.48,20.5,19.42,24.94a5.36,5.36,0,0,0-.8,1.29c-1,2.42-1.51,7.68.45,11-1.25-.24-6.63-2.11-4.06,1.2,1.39,1.81,7.22,5,9.81.9,0,0,0-.07,0-.11,2.05-3.23,2.44-15.86,2.44-15.86s-13.28-25.95-16.1-31.34c2.8-4,10-11.7,16.52-18.86l1.29,2.54c1.64-1.09,4.51-3.87,4.9-10.11.35-5.52-1.57-14.8-3.06-21A14.67,14.67,0,0,0,43.87,130.38Z"/><path class="cls-4" d="M110.25,179.78c-2-12.95-6.07-43.06-8.66-47.29-1.86-3-5.19-4-8.58-4.85,1.62,5.53,3.3,15.15,1.31,28.32,1.05,8.88,4.25,14.84,4.91,22.17,1.14,12.51,2.33,26.06,1.66,34.14-.47,5.6-2.76,8-2.76,8L102,241.72s6.65-13.61,6.88-22.3S112.83,196.21,110.25,179.78Z"/><path class="cls-12" d="M97.48,213.55c-1.8-6.31-3.69-12-5.23-16.25-1.18.16-3.09.39-5.6.61C87,201.05,88.86,212.1,97.48,213.55Z"/><path class="cls-13" d="M85.38,273.11c-1.74-12.19-15-43-15-43L69.57,238c.13-.56.27-1.13.39-1.6,6.61,23.49,11.55,38.78,13.22,52.12C85,303,85.31,332.93,85.76,349.83a12.82,12.82,0,0,0,4.44,2C90.43,334.12,89.2,299.86,85.38,273.11Z"/><path class="cls-12" d="M54.91,360.47s.31-2.72.8-7.19a26.3,26.3,0,0,1-7.74,1l-1.54,0a19.54,19.54,0,0,1-5.45-.89c-.31,3.08-.66,5.77-1,7.89C46.67,366.49,54.91,360.47,54.91,360.47Z"/><path class="cls-12" d="M103,239.7c-1-8.39-5-24.13-5-24.13-10.85-1.29-13.19-13.89-13.56-17.48-3.35.24-7.47.44-12.08.44l-3.15,0c-4.59-.09-8.85-.43-12.44-.83-.6,6.17-3.53,16-10.9,18.63a93.63,93.63,0,0,0-2.15,12.39c-1.47,16.15-.55,50.84-.55,63.32,0,9.6-.33,40.23-2,59.06a16.75,16.75,0,0,0,5.32.95c4.81.15,7.73-.48,9.47-1.18,1.58-14.67,4.49-43,5.54-62.32.59-11,5.37-39.27,8-50.52l.76-7.84s13.31,30.76,15,43c3.82,26.75,5.05,61,4.82,78.7a21.81,21.81,0,0,0,3.7.58c4.71.35,7.39-.86,8.88-2.1.65-12.26,1.68-33.14,1.68-42C104.46,295.5,107,273.84,103,239.7Z"/><path class="cls-12" d="M54.58,197.41c-1.15-.15-2.17-.3-3.12-.44-1.57,4.71-3.41,10.62-4.92,16.6C52.77,210.11,54.29,200,54.58,197.41Z"/><path class="cls-13" d="M42.2,214.76l.53,0a9.06,9.06,0,0,0,3.81-1.17c1.51-6,3.35-11.89,4.92-16.6-1.72-.26-3.13-.5-4.08-.68A130.63,130.63,0,0,0,42.2,214.76Z"/><path class="cls-13" d="M36.93,357.9a13.64,13.64,0,0,0,3,3.32c.39-2.12.74-4.81,1-7.89a13,13,0,0,1-3.68-1.83C37.16,354.19,37,356.4,36.93,357.9Z"/><path class="cls-13" d="M43.72,228.69a93.63,93.63,0,0,1,2.15-12.39,11.42,11.42,0,0,1-3.55.66l-.53,0c-4.88,26-2.85,52.08-2.66,70.42.15,14.21-.9,44.64-1.69,61.28a9.28,9.28,0,0,0,3.75,2.37c1.65-18.83,2-49.46,2-59.06C43.17,279.53,42.25,244.84,43.72,228.69Z"/><path class="cls-12" d="M95.5,354.66c-.56,0-1.14,0-1.76-.07a23.55,23.55,0,0,1-3.65-.57l-.36,7.68c6.51,3.23,12.53-2,12.53-2s.15-2.61.37-6.69A14.38,14.38,0,0,1,95.5,354.66Z"/><path class="cls-13" d="M85.84,352.46c.08,2.65.17,4.89.27,6.54a13.09,13.09,0,0,0,3.62,2.7l.36-7.68A17.07,17.07,0,0,1,85.84,352.46Z"/><path class="cls-9" d="M56.77,197.67c3.59.4,7.85.74,12.44.83l3.15,0c4.61,0,8.73-.2,12.08-.44.33,3.12,1.9,13.49,9.45,17a15.71,15.71,0,0,0,4.29,1.32l-.33-1.55c-.12-.44-.25-.86-.37-1.29-8.62-1.45-10.48-12.5-10.83-15.64,2.51-.22,4.42-.45,5.6-.61-.26-.75-.52-1.45-.76-2.11a157.75,157.75,0,0,1-22.24,1.11,138.13,138.13,0,0,1-21.1-2.1c-.27.69-.52,1.39-.77,2.09,1.48.28,4,.71,7.2,1.12-.34,3.05-2.37,16.61-11.85,17.33l-.53,0c-.15.75-.26,1.5-.41,2.24l.53,0C52.33,216.66,56.09,204.75,56.77,197.67Z"/><path class="cls-9" d="M46.51,352c-5.45-.18-8-2.16-9.07-3.32,0,1-.1,1.91-.14,2.8a16.06,16.06,0,0,0,9.13,2.72l1.54,0a26.3,26.3,0,0,0,7.74-1c.09-.76.17-1.58.27-2.44C54.24,351.54,51.32,352.17,46.51,352Z"/><path class="cls-9" d="M93.9,352.39c-4.21-.31-6.72-1.51-8.14-2.56,0,.92,0,1.79.08,2.63a19.08,19.08,0,0,0,7.9,2.13c.62.05,1.2.07,1.76.07a14.38,14.38,0,0,0,7.13-1.62c.05-.86.1-1.77.15-2.75C101.29,351.53,98.61,352.74,93.9,352.39Z"/><path class="cls-12" d="M73.74,190.92c-.87,0-1.78,0-2.71,0-7-.19-12.93-.67-17.07-1.09-.47,1.29-1.08,3-1.78,5.06a137.58,137.58,0,0,0,17.07,1.45,157.75,157.75,0,0,0,22.24-1.11c-1-2.71-1.77-4.65-2.16-5.62A85.43,85.43,0,0,1,73.74,190.92Z"/><path class="cls-13" d="M50.15,189.36q-1,2.4-2,4.84c1,.18,2.37.41,4,.65.7-2,1.31-3.77,1.78-5.06C52.42,189.63,51.15,189.48,50.15,189.36Z"/><path class="cls-14" d="M93,127.64c-1.3-.32-2.61-.62-3.85-1-2-.64-3.77-1-5.25-1.36-.58,5.29-3.06,11.84-11.93,11.84-7.36,0-11.51-7.25-13.46-12.06a37.53,37.53,0,0,1-3.86,1.11A23.26,23.26,0,0,0,47.72,128c1.49,6.18,3.41,15.46,3.06,21a16.16,16.16,0,0,1-1.39,5.86c1.07,5,5.19,24.85,4.86,32.79,4.08.42,9.93.89,16.84,1.08a84.65,84.65,0,0,0,18.45-1.41C91,179,93.16,164.47,94.32,156,96.31,142.79,94.63,133.17,93,127.64Z"/><path class="cls-15" d="M49.39,154.81a10.32,10.32,0,0,1-3.51,4.25l4.28,28.08c1,.13,2.42.29,4.09.46C54.58,179.66,50.46,159.82,49.39,154.81Z"/><path class="cls-9" d="M89.54,187.27a84.65,84.65,0,0,1-18.45,1.41c-9.74-.26-17.43-1.1-20.93-1.54a6.49,6.49,0,0,1,0,2.22c1,.12,2.27.27,3.81.43,4.14.42,10.08.9,17.07,1.09.93,0,1.84,0,2.71,0a85.43,85.43,0,0,0,15.59-1.35A13.17,13.17,0,0,1,89.54,187.27Z"/><path class="cls-6" d="M78.93,120.56a54.42,54.42,0,0,1-.45-10.71s-2,2.46-6.69,2.46a11.58,11.58,0,0,1-7.74-3.17,40.68,40.68,0,0,1,.66,8.8c1.77,1.56,4,3.34,5.73,3.7A14,14,0,0,0,78.93,120.56Z"/><path class="cls-4" d="M62.29,123.58c-1.38.61-2.66,1.09-3.77,1.47,1.95,4.81,6.1,12.06,13.46,12.06,8.87,0,11.35-6.55,11.93-11.84-1.82-.46-3.21-1-4-2a6.85,6.85,0,0,1-1-2.66,14,14,0,0,1-8.49,1.08c-1.71-.36-4-2.14-5.73-3.7C64.55,120.52,63.92,122.85,62.29,123.58Z"/><path class="cls-4" d="M95.65,64.91,62.29,55.29,49.73,64.91s-.22,14.09,0,18.77c.3,6.27,1.91,18.11,7.51,23.12,3.21,2.86,11.27,6.75,14.67,7.33a9.12,9.12,0,0,0,2.7.06c2.93-.53,10.17-4.64,13.53-7.39,6.3-5.16,7.21-16.85,7.51-23.12C95.87,79,95.65,64.91,95.65,64.91Z"/><path class="cls-9" d="M66.51,80.54a10.29,10.29,0,0,1-.26,2.65,4.54,4.54,0,0,1-3.7,3.34c-2.67.46-5.37-.09-6.16-1.32-.61-.95-.26-1.67.35-3.17a7.73,7.73,0,0,1,4-3.87C62.2,77.73,65,77.2,66.51,80.54Z"/><path class="cls-9" d="M81,80.54a10.29,10.29,0,0,0,.26,2.65A4.54,4.54,0,0,0,85,86.53c2.67.46,5.37-.09,6.16-1.32.61-.95.26-1.67-.35-3.17a7.73,7.73,0,0,0-4-3.87C85.32,77.73,82.5,77.2,81,80.54Z"/><path class="cls-3" d="M61.63,77.21a7.78,7.78,0,0,0-6,7.05c0,.8.73,1.8,1-.08.67-4.52,7.07-8.83,9.52-3.4.12.28.85.39.72-.36C66.37,77.55,63.63,76.84,61.63,77.21Z"/><path class="cls-3" d="M59.88,81.53a2.56,2.56,0,0,0,1.79,4c1.63.26,2.65-1.39,2.63-2.66A2.45,2.45,0,0,0,59.88,81.53Z"/><path class="cls-3" d="M85.82,77.21a7.78,7.78,0,0,1,6,7.05c0,.8-.72,1.8-1-.08-.67-4.52-7.08-8.83-9.52-3.4-.13.28-.85.39-.73-.36C81.07,77.55,83.81,76.84,85.82,77.21Z"/><path class="cls-3" d="M82.85,81.53a2.56,2.56,0,0,0,1.79,4c1.63.26,2.65-1.39,2.63-2.66A2.45,2.45,0,0,0,82.85,81.53Z"/><path class="cls-6" d="M74.84,86.38c-.35-1.87-1-1.11-.7,1.53.19,1.42,2.43,3.77.12,6.69-.63.78-.31,1.23.76.7s2.44-1.48,2.29-3.11C77.07,89.73,75.07,87.6,74.84,86.38Z"/><circle class="cls-9" cx="61.82" cy="82.28" r="1.06"/><path class="cls-9" d="M85.7,82.28a1.06,1.06,0,1,1-1.06-1.06A1.06,1.06,0,0,1,85.7,82.28Z"/><path class="cls-3" d="M63.3,100c.92,3.38,3.58,7.89,10.78,7.74,5.62-.12,8-4.31,8.93-7a38.56,38.56,0,0,1-5.84.55C72.74,101.53,67.55,101.6,63.3,100Z"/><path class="cls-9" d="M63,98.59A13,13,0,0,0,63.3,100c4.25,1.6,9.44,1.53,13.87,1.31a38.56,38.56,0,0,0,5.84-.55,11.38,11.38,0,0,0,.78-2.09s-4.75.44-10.12.44C68.57,99.11,63,98.59,63,98.59Z"/><path class="cls-3" d="M67.33,70.78a9.9,9.9,0,0,0-12.61,5c-.51,1.22.06,1.41.51.59,1.36-2.48,5.12-6.28,12-4.46C69,72.42,68.3,71.14,67.33,70.78Z"/><path class="cls-3" d="M81.08,70.78a9.9,9.9,0,0,1,12.61,5c.51,1.22-.06,1.41-.5.59-1.36-2.48-5.13-6.28-12-4.46C79.42,72.42,80.11,71.14,81.08,70.78Z"/><path class="cls-10" d="M62.29,59s-6,16.73-16.19,21C31,76.83,47.62,47.78,72.26,48c18.95.19,24.88,8,26.52,25.35s-2,5-2,5S69.8,73.3,62.29,59Z"/><path class="cls-10" d="M54,69.19s-2.64,17.13-2.64,27.46-.18,38.72,5.28,52.27c-9.33-5.28-10.56-19-10.56-19a42.41,42.41,0,0,0,.17,12.28c-3.69-3.17-5.51-11.61-5.63-22.88-.19-18.3-2.17-39.42,1.58-47.63S54,69.19,54,69.19Z"/><path class="cls-10" d="M92.38,73.07s2.15,20.4,1.94,30.62c-.53,26.22-4.22,38.19-4.22,38.19a24.36,24.36,0,0,0,5.63-14.26,47.37,47.37,0,0,1-.18,14.44c3.7-2.64,6-9.33,5.63-19.36s-2.64-51.22-2.64-51.22Z"/></svg>