<svg id="Layer_1" data-name="Layer 1" xmlns="http://www.w3.org/2000/svg" viewBox="0 0 508 507"><defs><style>.cls-1{fill:#fcb034;}.cls-2{fill:#f47b20;}.cls-3{fill:#fd0;}.cls-4{fill:#f05133;}.cls-5{fill:#009fc2;}.cls-6{fill:#ad208e;}.cls-7{fill:#0067b1;}.cls-8{fill:#77278b;}.cls-9{fill:#492f92;}.cls-10{fill:#e31b23;}.cls-11{fill:#7bc143;}.cls-12{fill:#00b25a;}.cls-13{font-size:12px;}.cls-13,.cls-14,.cls-15,.cls-16,.cls-17{font-family:MyriadPro-Regular, Myriad Pro;}.cls-14,.cls-15,.cls-16,.cls-17{font-size:20px;}.cls-14{fill:#a8d0e6;}.cls-15{fill:#ffdb00;}.cls-17{fill:#f76c6c;}</style></defs><title>Artboard 1</title><path class="cls-1" d="M305.26,67a192.25,192.25,0,0,1,84.05,48.58l26.5-26.5A229.74,229.74,0,0,0,315,30.83Z"/><path class="cls-2" d="M391.21,117.52a192.34,192.34,0,0,1,48.58,84.05l36.21-9.7A229.8,229.8,0,0,0,417.71,91Z"/><path class="cls-3" d="M195.86,30.13l9.7,36.21a194,194,0,0,1,97.11,0l9.7-36.2a231.49,231.49,0,0,0-116.51,0Z"/><path class="cls-4" d="M476.7,194.46l-36.21,9.7a193.83,193.83,0,0,1,0,97.11L476.7,311a231.49,231.49,0,0,0,0-116.51Z"/><path class="cls-5" d="M31.53,311l36.21-9.71a193.79,193.79,0,0,1,0-97.1l-36.21-9.7a231.49,231.49,0,0,0,0,116.51Z"/><path class="cls-6" d="M389.31,389.8a192.26,192.26,0,0,1-84.05,48.59L315,474.6a229.74,229.74,0,0,0,100.85-58.29Z"/><path class="cls-7" d="M117,387.91a192.32,192.32,0,0,1-48.58-84.06l-36.21,9.7A229.78,229.78,0,0,0,90.52,414.41Z"/><path class="cls-8" d="M312.37,475.29l-9.7-36.2a193.79,193.79,0,0,1-97.1,0l-9.71,36.2a231.49,231.49,0,0,0,116.51,0Z"/><path class="cls-9" d="M203,438.39a192.24,192.24,0,0,1-84.06-48.59l-26.5,26.5a229.7,229.7,0,0,0,100.86,58.3Z"/><path class="cls-10" d="M439.79,303.85a192.32,192.32,0,0,1-48.58,84.06l26.5,26.5A229.78,229.78,0,0,0,476,313.55Z"/><path class="cls-11" d="M118.92,115.62A192.22,192.22,0,0,1,203,67l-9.7-36.21A229.68,229.68,0,0,0,92.42,89.12Z"/><path class="cls-12" d="M68.44,201.57a192.34,192.34,0,0,1,48.58-84L90.52,91A229.83,229.83,0,0,0,32.23,191.87Z"/><text class="cls-13" transform="translate(98.49 72.73) rotate(-40.94)"> </text><text class="cls-13" transform="translate(100.41 71.07) rotate(-40.31)"> </text><text class="cls-13" transform="translate(102.32 69.44) rotate(-39.69)"> </text><text class="cls-13" transform="matrix(0.78, -0.63, 0.63, 0.78, 104.28, 67.82)"> </text><text class="cls-13" transform="translate(106.23 66.24) rotate(-38.44)"> </text><text class="cls-13" transform="matrix(0.79, -0.61, 0.61, 0.79, 108.19, 64.68)"> </text><text class="cls-13" transform="matrix(0.8, -0.6, 0.6, 0.8, 110.2, 63.12)"> </text><text class="cls-14" transform="translate(112.16 61.57) rotate(-35.65)">T</text><text class="cls-14" transform="translate(118.99 56.64) rotate(-33.55)">e</text><text class="cls-14" transform="translate(127.3 51.16) rotate(-31.5)">r</text><text class="cls-14" transform="matrix(0.87, -0.5, 0.5, 0.87, 132.91, 47.74)">i</text><text class="cls-14" transform="translate(136.91 45.41) rotate(-28.7)">t</text><text class="cls-14" transform="translate(142.66 42.23) rotate(-26.68)">ä</text><text class="cls-14" transform="matrix(0.91, -0.42, 0.42, 0.91, 151.21, 37.96)">r</text><text class="cls-14" transform="matrix(0.92, -0.4, 0.4, 0.92, 157.12, 35.26)"> </text><text class="cls-13" transform="translate(332.37 27.4) rotate(18.9)"> </text><text class="cls-13" transform="translate(334.77 28.23) rotate(19.53)"> </text><text class="cls-13" transform="translate(337.13 29.07) rotate(20.15)"> </text><text class="cls-13" transform="translate(339.51 29.94) rotate(20.78)"> </text><text class="cls-13" transform="translate(341.86 30.83) rotate(21.41)"> </text><text class="cls-13" transform="translate(344.2 31.75) rotate(22.03)"> </text><text class="cls-13" transform="translate(346.55 32.7) rotate(22.66)"> </text><text class="cls-14" transform="translate(348.88 33.62) rotate(24.2)">T</text><text class="cls-14" transform="translate(356.57 37.04) rotate(26.3)">e</text><text class="cls-14" transform="translate(365.48 41.48) rotate(28.35)">r</text><text class="cls-14" transform="translate(371.27 44.61) rotate(29.75)">i</text><text class="cls-14" transform="translate(375.29 46.9) rotate(31.15)">t</text><text class="cls-14" transform="matrix(0.84, 0.55, -0.55, 0.84, 380.92, 50.27)">ä</text><text class="cls-14" transform="matrix(0.82, 0.58, -0.58, 0.82, 388.91, 55.52)">r</text><text class="cls-14" transform="matrix(0.8, 0.59, -0.59, 0.8, 394.21, 59.27)"> </text><text class="cls-13" transform="translate(489.46 208.74) rotate(78.79)"> </text><text class="cls-13" transform="translate(489.96 211.23) rotate(79.42)"> </text><text class="cls-13" transform="matrix(0.17, 0.98, -0.98, 0.17, 490.42, 213.7)"> </text><text class="cls-13" transform="translate(490.86 216.2) rotate(80.67)"> </text><text class="cls-13" transform="matrix(0.15, 0.99, -0.99, 0.15, 491.27, 218.68)"> </text><text class="cls-13" transform="translate(491.65 221.16) rotate(81.91)"> </text><text class="cls-13" transform="translate(492 223.67) rotate(82.54)"> </text><text class="cls-14" transform="translate(492.38 226.14) rotate(84.08)">T</text><text class="cls-14" transform="translate(493.27 234.52) rotate(86.18)">e</text><text class="cls-14" transform="matrix(0.03, 1, -1, 0.03, 493.91, 244.45)">r</text><text class="cls-14" transform="translate(494.1 251.03) rotate(89.64)">i</text><text class="cls-14" transform="translate(494.14 255.65) rotate(91.03)">t</text><text class="cls-14" transform="translate(494.05 262.22) rotate(93.05)">ä</text><text class="cls-14" transform="matrix(-0.09, 1, -1, -0.09, 493.51, 271.77)">r</text><text class="cls-14" transform="translate(492.93 278.23) rotate(96.39)"> </text><text class="cls-13" transform="translate(410.87 434.51) rotate(138.79)"> </text><text class="cls-13" transform="matrix(-0.76, 0.65, -0.65, -0.76, 408.96, 436.18)"> </text><text class="cls-13" transform="matrix(-0.77, 0.64, -0.64, -0.77, 407.05, 437.81)"> </text><text class="cls-13" transform="translate(405.11 439.44) rotate(140.67)"> </text><text class="cls-13" transform="translate(403.17 441.03) rotate(141.29)"> </text><text class="cls-13" transform="translate(401.21 442.6) rotate(141.91)"> </text><text class="cls-13" transform="translate(399.21 444.17) rotate(142.54)"> </text><text class="cls-14" transform="translate(397.26 445.73) rotate(144.08)">T</text><text class="cls-14" transform="translate(390.45 450.69) rotate(146.18)">e</text><text class="cls-14" transform="translate(382.17 456.21) rotate(148.23)">r</text><text class="cls-14" transform="translate(376.57 459.66) rotate(149.64)">i</text><text class="cls-14" transform="matrix(-0.87, 0.48, -0.48, -0.87, 372.58, 462.01)">t</text><text class="cls-14" transform="matrix(-0.89, 0.45, -0.45, -0.89, 366.85, 465.21)">ä</text><text class="cls-14" transform="translate(358.31 469.52) rotate(155.05)">r</text><text class="cls-14" transform="translate(352.42 472.25) rotate(156.39)"> </text><text class="cls-13" transform="translate(174.76 479.25) rotate(-160.67)"> </text><text class="cls-13" transform="translate(172.36 478.41) rotate(-160.04)"> </text><text class="cls-13" transform="translate(170.01 477.56) rotate(-159.42)"> </text><text class="cls-13" transform="translate(167.63 476.66) rotate(-158.79)"> </text><text class="cls-13" transform="matrix(-0.93, -0.37, 0.37, -0.93, 165.29, 475.76)"> </text><text class="cls-13" transform="translate(162.96 474.82) rotate(-157.54)"> </text><text class="cls-13" transform="translate(160.61 473.85) rotate(-156.91)"> </text><text class="cls-14" transform="translate(158.29 472.92) rotate(-155.37)">T</text><text class="cls-14" transform="translate(150.63 469.44) rotate(-153.27)">e</text><text class="cls-14" transform="translate(141.75 464.93) rotate(-151.22)">r</text><text class="cls-14" transform="matrix(-0.86, -0.5, 0.5, -0.86, 135.99, 461.76)">i</text><text class="cls-14" transform="matrix(-0.85, -0.52, 0.52, -0.85, 131.99, 459.44)">t</text><text class="cls-14" transform="matrix(-0.83, -0.55, 0.55, -0.83, 126.37, 456.02)">ä</text><text class="cls-14" transform="translate(118.42 450.71) rotate(-144.4)">r</text><text class="cls-14" transform="matrix(-0.8, -0.6, 0.6, -0.8, 113.15, 446.92)"> </text><text class="cls-13" transform="matrix(-0.2, -0.98, 0.98, -0.2, 19.01, 298.73)"> </text><text class="cls-13" transform="translate(18.51 296.25) rotate(-100.69)"> </text><text class="cls-13" transform="translate(18.04 293.78) rotate(-100.07)"> </text><text class="cls-13" transform="translate(17.6 291.28) rotate(-99.44)"> </text><text class="cls-13" transform="matrix(-0.15, -0.99, 0.99, -0.15, 17.19, 288.81)"> </text><text class="cls-13" transform="matrix(-0.14, -0.99, 0.99, -0.14, 16.8, 286.32)"> </text><text class="cls-13" transform="translate(16.44 283.81) rotate(-97.56)"> </text><text class="cls-14" transform="matrix(-0.1, -0.99, 0.99, -0.1, 16.06, 281.34)">T</text><text class="cls-14" transform="matrix(-0.07, -1, 1, -0.07, 15.15, 272.97)">e</text><text class="cls-14" transform="translate(14.5 263.04) rotate(-91.88)">r</text><text class="cls-14" transform="translate(14.3 256.46) rotate(-90.47)">i</text><text class="cls-14" transform="translate(14.25 251.84) rotate(-89.07)">t</text><text class="cls-14" transform="translate(14.32 245.27) rotate(-87.06)">ä</text><text class="cls-14" transform="translate(14.84 235.72) rotate(-85.05)">r</text><text class="cls-14" transform="matrix(0.11, -0.99, 0.99, 0.11, 15.41, 229.25)"> </text><text class="cls-13" transform="translate(28.67 174.29) rotate(-70.68)"> </text><text class="cls-13" transform="matrix(0.34, -0.94, 0.94, 0.34, 29.51, 171.9)"> </text><text class="cls-15" transform="translate(30.31 169.56) rotate(-68.53)">S</text><text class="cls-15" transform="translate(33.94 160.33) rotate(-66.05)">e</text><text class="cls-15" transform="matrix(0.44, -0.9, 0.9, 0.44, 37.97, 151.27)">k</text><text class="cls-15" transform="translate(42.11 142.86) rotate(-61.13)">u</text><text class="cls-15" transform="translate(47.39 133.28) rotate(-58.39)">n</text><text class="cls-15" transform="matrix(0.56, -0.83, 0.83, 0.56, 53.15, 123.92)">d</text><text class="cls-15" transform="matrix(0.6, -0.8, 0.8, 0.6, 59.49, 114.67)">ä</text><text class="cls-15" transform="matrix(0.63, -0.78, 0.78, 0.63, 65.27, 107.05)">r</text><text class="cls-15" transform="matrix(0.65, -0.76, 0.76, 0.65, 69.36, 102.01)"> </text><text class="cls-13" transform="translate(435.59 96.96) rotate(49.57)"> </text><text class="cls-13" transform="translate(437.24 98.9) rotate(50.19)"> </text><text class="cls-15" transform="matrix(0.62, 0.78, -0.78, 0.62, 438.86, 100.77)">S</text><text class="cls-15" transform="translate(445 108.54) rotate(54.19)">e</text><text class="cls-15" transform="translate(450.8 116.59) rotate(56.58)">k</text><text class="cls-15" transform="translate(455.98 124.4) rotate(59.12)">u</text><text class="cls-15" transform="translate(461.6 133.8) rotate(61.85)">n</text><text class="cls-15" transform="matrix(0.43, 0.9, -0.9, 0.43, 466.79, 143.48)">d</text><text class="cls-15" transform="translate(471.57 153.62) rotate(67.22)">ä</text><text class="cls-15" transform="translate(475.26 162.45) rotate(69.23)">r</text><text class="cls-16" transform="translate(477.55 168.52) rotate(70.57)"> </text><text class="cls-13" transform="translate(298.93 489.6) rotate(169.61)"> </text><text class="cls-13" transform="matrix(-0.99, 0.17, -0.17, -0.99, 296.43, 490.06)"> </text><text class="cls-15" transform="translate(294 490.53) rotate(171.76)">S</text><text class="cls-15" transform="translate(284.2 491.95) rotate(174.24)">e</text><text class="cls-15" transform="translate(274.32 492.94) rotate(176.63)">k</text><text class="cls-15" transform="translate(264.97 493.51) rotate(179.16)">u</text><text class="cls-15" transform="matrix(-1, -0.03, 0.03, -1, 254.03, 493.67)">n</text><text class="cls-15" transform="matrix(-1, -0.08, 0.08, -1, 243.05, 493.31)">d</text><text class="cls-15" transform="matrix(-0.99, -0.13, 0.13, -0.99, 231.88, 492.38)">ä</text><text class="cls-15" transform="matrix(-0.99, -0.16, 0.16, -0.99, 222.39, 491.15)">r</text><text class="cls-15" transform="matrix(-0.98, -0.18, 0.18, -0.98, 215.98, 490.09)"> </text><text class="cls-13" transform="translate(209.21 18.49) rotate(-11.25)"> </text><text class="cls-13" transform="translate(211.7 17.99) rotate(-10.62)"> </text><text class="cls-13" transform="matrix(0.98, -0.17, 0.17, 0.98, 214.16, 17.53)"> </text><text class="cls-13" transform="translate(216.66 17.09) rotate(-9.37)"> </text><text class="cls-13" transform="translate(219.14 16.68) rotate(-8.75)"> </text><text class="cls-13" transform="translate(221.62 16.3) rotate(-8.13)"> </text><text class="cls-13" transform="translate(224.13 15.94) rotate(-7.5)"> </text><text class="cls-17" transform="translate(226.6 15.55) rotate(-5.87)">P</text><text class="cls-17" transform="translate(236.8 14.53) rotate(-3.83)">r</text><text class="cls-17" transform="translate(243.35 14.11) rotate(-2.43)">i</text><text class="cls-17" transform="translate(247.92 13.77) rotate(0.2)">m</text><text class="cls-17" transform="translate(264.49 13.93) rotate(3.46)">ä</text><text class="cls-17" transform="translate(274.04 14.53) rotate(5.47)">r</text><text class="cls-17" transform="translate(280.51 15.16) rotate(6.81)"> </text><text class="cls-13" transform="matrix(-0.32, 0.95, -0.95, -0.32, 480.47, 331.83)"> </text><text class="cls-13" transform="translate(479.65 334.24) rotate(109.44)"> </text><text class="cls-13" transform="translate(478.82 336.6) rotate(110.06)"> </text><text class="cls-13" transform="matrix(-0.35, 0.94, -0.94, -0.35, 477.94, 338.99)"> </text><text class="cls-13" transform="translate(477.06 341.33) rotate(111.31)"> </text><text class="cls-13" transform="matrix(-0.37, 0.93, -0.93, -0.37, 476.15, 343.67)"> </text><text class="cls-13" transform="translate(475.2 346.03) rotate(112.57)"> </text><text class="cls-17" transform="translate(474.29 348.35) rotate(114.19)">P</text><text class="cls-17" transform="translate(470.08 357.67) rotate(116.22)">r</text><text class="cls-17" transform="translate(467.15 363.58) rotate(117.63)">i</text><text class="cls-17" transform="translate(465.15 367.7) rotate(120.27)">m</text><text class="cls-17" transform="matrix(-0.55, 0.83, -0.83, -0.55, 456.72, 381.97)">ä</text><text class="cls-17" transform="matrix(-0.58, 0.81, -0.81, -0.58, 451.41, 389.93)">r</text><text class="cls-17" transform="translate(447.63 395.2) rotate(126.87)"> </text><text class="cls-13" transform="translate(72.44 408.39) rotate(-131.25)"> </text><text class="cls-13" transform="translate(70.77 406.48) rotate(-130.62)"> </text><text class="cls-13" transform="translate(69.13 404.58) rotate(-130)"> </text><text class="cls-13" transform="matrix(-0.63, -0.77, 0.77, -0.63, 67.5, 402.64)"> </text><text class="cls-13" transform="matrix(-0.63, -0.78, 0.78, -0.63, 65.91, 400.7)"> </text><text class="cls-13" transform="matrix(-0.62, -0.79, 0.79, -0.62, 64.34, 398.74)"> </text><text class="cls-13" transform="translate(62.77 396.74) rotate(-127.49)"> </text><text class="cls-17" transform="matrix(-0.59, -0.81, 0.81, -0.59, 61.21, 394.8)">P</text><text class="cls-17" transform="translate(55.23 386.47) rotate(-123.83)">r</text><text class="cls-17" transform="matrix(-0.54, -0.84, 0.84, -0.54, 51.58, 381.01)">i</text><text class="cls-17" transform="translate(49 377.22) rotate(-119.79)">m</text><text class="cls-17" transform="translate(40.86 362.79) rotate(-116.53)">ä</text><text class="cls-17" transform="translate(36.61 354.22) rotate(-114.52)">r</text><text class="cls-16" transform="translate(33.92 348.3) rotate(-113.18)"> </text></svg>