<svg id="Layer_1" data-name="Layer 1" xmlns="http://www.w3.org/2000/svg" viewBox="0 0 1178 560"><defs><style>.cls-1{fill:#0067b1;}.cls-2{fill:#f47b20;}.cls-3{fill:#7bc143;}.cls-4{font-size:35px;}.cls-4,.cls-6{fill:#fff;font-family:MicrosoftSansSerif, Microsoft Sans Serif;}.cls-5{fill:none;stroke:#24305e;stroke-miterlimit:10;stroke-width:5px;}.cls-6{font-size:25px;}</style></defs><title>harmonie</title><path class="cls-1" d="M597,95V40.3H907.65a27.35,27.35,0,1,1,0,54.7Z"/><path class="cls-1" d="M907.65,42.3a25.35,25.35,0,1,1,0,50.7H599V42.3H907.65m0-4H595V96.49a.51.51,0,0,0,.51.51H907.65A29.35,29.35,0,0,0,937,67.65h0A29.35,29.35,0,0,0,907.65,38.3Z"/><path class="cls-2" d="M282.35,95a27.35,27.35,0,0,1,0-54.7H593V95Z"/><path class="cls-2" d="M591,42.3V93H282.35a25.35,25.35,0,0,1,0-50.7H591m3.52-4H282.35A29.44,29.44,0,0,0,253,67.65h0A29.44,29.44,0,0,0,282.35,97H595l0,0V38.79a.49.49,0,0,0-.48-.49Z"/><path class="cls-2" d="M210.43,433.33a26.58,26.58,0,0,1-18.19-7.57,25.58,25.58,0,0,1-7.57-18.19v-4A25.59,25.59,0,0,1,210.22,378H409.29a10.05,10.05,0,0,1,10,10V424.8a8.54,8.54,0,0,1-8.53,8.53Z"/><path class="cls-2" d="M409.29,379.64a8.38,8.38,0,0,1,8.37,8.37V424.8a6.87,6.87,0,0,1-6.86,6.86H210.44a24.76,24.76,0,0,1-17-7.08,23.88,23.88,0,0,1-7.08-17v-4a23.91,23.91,0,0,1,23.88-23.89H409.29m0-3.34H210.22A27.3,27.3,0,0,0,183,403.53v4a27.35,27.35,0,0,0,8.06,19.37A28.11,28.11,0,0,0,210.43,435H410.8A10.2,10.2,0,0,0,421,424.8V388a11.71,11.71,0,0,0-11.71-11.71Z"/><path class="cls-1" d="M775.93,433.33a8.27,8.27,0,0,1-8.26-8.26V386.51a8.55,8.55,0,0,1,8.54-8.54H974.65a27.68,27.68,0,1,1,0,55.36Z"/><path class="cls-1" d="M974.65,379.64a26,26,0,0,1,0,52H775.93a6.6,6.6,0,0,1-6.59-6.59V386.51a6.88,6.88,0,0,1,6.87-6.87H974.65m0-3.34H776.21A10.21,10.21,0,0,0,766,386.51v38.56a9.94,9.94,0,0,0,9.93,9.93H974.65A29.35,29.35,0,0,0,1004,405.65h0a29.35,29.35,0,0,0-29.35-29.35Z"/><rect class="cls-3" x="482" y="217.3" width="217" height="56.7"/><path class="cls-3" d="M698,218.3V273H483V218.3H698m2-2H481V275H700V216.3Z"/><text class="cls-4" transform="translate(393.03 82.02)">Farb</text><text class="cls-4" transform="translate(248.03 419.02)">Gefühl</text><text class="cls-4" transform="translate(801.03 419.02)">Bedeutung</text><text class="cls-4" transform="translate(725.03 82.02)">Farb</text><line class="cls-5" x1="423.5" y1="97" x2="423.5" y2="246"/><line class="cls-5" x1="756.5" y1="97" x2="756.5" y2="246"/><text class="cls-4" transform="translate(517.3 258.66)">Harmonie</text><line class="cls-5" x1="421" y1="245.5" x2="481" y2="245.5"/><line class="cls-5" x1="759" y1="244.5" x2="699.5" y2="244.5"/><line class="cls-5" x1="590" y1="275" x2="590" y2="406"/><line class="cls-5" x1="421" y1="406" x2="765.5" y2="405.5"/><rect class="cls-2" x="295.85" y="478.85" width="228.29" height="41.29" rx="11.48"/><path class="cls-2" d="M512.67,480.71a9.62,9.62,0,0,1,9.62,9.62v18.34a9.62,9.62,0,0,1-9.62,9.62H307.33a9.62,9.62,0,0,1-9.62-9.62V490.33a9.62,9.62,0,0,1,9.62-9.62H512.67m0-3.71H307.33A13.37,13.37,0,0,0,294,490.33v18.34A13.37,13.37,0,0,0,307.33,522H512.67A13.37,13.37,0,0,0,526,508.67V490.33A13.37,13.37,0,0,0,512.67,477Z"/><rect class="cls-1" x="651.67" y="478.67" width="184.66" height="41.66" rx="10.33"/><path class="cls-1" d="M826,480.34a8.66,8.66,0,0,1,8.66,8.66v21a8.66,8.66,0,0,1-8.66,8.66H662a8.66,8.66,0,0,1-8.66-8.66V489a8.66,8.66,0,0,1,8.66-8.66H826m0-3.34H662a12,12,0,0,0-12,12v21a12,12,0,0,0,12,12H826a12,12,0,0,0,12-12V489a12,12,0,0,0-12-12Z"/><text class="cls-6" transform="translate(336.82 508.89)">Unangenehm</text><rect class="cls-2" x="31.85" y="478.85" width="228.29" height="41.29" rx="11.48"/><path class="cls-2" d="M248.67,480.71a9.62,9.62,0,0,1,9.62,9.62v18.34a9.62,9.62,0,0,1-9.62,9.62H43.33a9.62,9.62,0,0,1-9.62-9.62V490.33a9.62,9.62,0,0,1,9.62-9.62H248.67m0-3.71H43.33A13.37,13.37,0,0,0,30,490.33v18.34A13.37,13.37,0,0,0,43.33,522H248.67A13.37,13.37,0,0,0,262,508.67V490.33A13.37,13.37,0,0,0,248.67,477Z"/><text class="cls-6" transform="translate(72.82 508.89)">Angenehm</text><text class="cls-6" transform="translate(692.82 508.89)">Subjektiv</text><rect class="cls-1" x="866.06" y="479.06" width="281.88" height="40.88" rx="12.74"/><path class="cls-1" d="M1135.2,481.12a10.69,10.69,0,0,1,10.68,10.68v15.4a10.69,10.69,0,0,1-10.68,10.68H878.8a10.69,10.69,0,0,1-10.68-10.68V491.8a10.69,10.69,0,0,1,10.68-10.68h256.4m0-4.12H878.8A14.84,14.84,0,0,0,864,491.8v15.4A14.84,14.84,0,0,0,878.8,522h256.4a14.84,14.84,0,0,0,14.8-14.8V491.8a14.84,14.84,0,0,0-14.8-14.8Z"/><text class="cls-6" transform="translate(906.82 508.89)">Corporate Identitat</text></svg>