<svg xmlns="http://www.w3.org/2000/svg" xmlns:xlink="http://www.w3.org/1999/xlink" viewBox="0 0 561.92 274.67"><defs><style>.cls-1{fill:none;}.cls-2{clip-path:url(#clip-path);}.cls-3{fill:#dfdfe1;}.cls-4{fill:#25453b;}.cls-5{fill:#c53f1c;}.cls-6{fill:#3d3d3d;}.cls-7{fill:#8a2d15;}.cls-8{fill:#e8623e;}.cls-9{fill:#ffc684;}.cls-10{fill:#ac3516;}.cls-11{fill:#ff8d70;}.cls-12{fill:#f0b84e;}.cls-13{fill:#ffa33a;}.cls-14{fill:#d34d2b;}.cls-15{fill:#313131;}</style><clipPath id="clip-path"><rect class="cls-1" x="-87.7" y="-90.75" width="649.62" height="365.41" rx="16.29"/></clipPath></defs><title>china</title><g id="OBJECTS"><g class="cls-2"><path class="cls-3" d="M307.62,19.5c.09-.15,0-.38-.22-.31l-.1,0a.22.22,0,0,0-.17.09c-.73.36-1.21,1.06-1.9,1.48-3.11,1.93-4.56.62-7-1.16-1.14-.82-4.66-2.16-6-1.07l-.07,0v0c-.53.56-.53,1.83-.86,2.49-.78,1.56-2,3.08-3.76,3.36-2.8.43-5.55-1.2-5.93-3.84a2.9,2.9,0,0,0,.1-.79c0-.19,0-1.1.3-1.15s.39.56.41.75,0,.12,0,.18a4,4,0,0,0,4.74,3.95c3.84-.68,4.56-4.24,3.29-7.57s-4.92-5.91-8.71-4.45a8.55,8.55,0,0,0-3.94,2.86,12.84,12.84,0,0,0-.75,1.53l-.12.09c-1.92-.61-3.74,1.14-4.81,2.66-1.42,2-.78,4.42-4.13,5-1.87.35-3-1.17-4.49-.86a.29.29,0,0,0-.21.27c-.07,1.05.84,2.22,1.34,3.12a5.53,5.53,0,0,0,3.06,2.86c3.06,1,5.63,0,8.25-1.2h.37a29.17,29.17,0,0,1,4.26,2,10.73,10.73,0,0,0,6.21.63A8.08,8.08,0,0,0,291.14,28a0,0,0,0,0,.07,0,1.89,1.89,0,0,1,1.28-.82c.69,0,1.36,0,2,.1a38.43,38.43,0,0,0,4.22,1.07,10.88,10.88,0,0,0,4.5-.62,5.41,5.41,0,0,0,2.22-1.92,5.22,5.22,0,0,0,1.09-2.24c.22-.64.41-1.31.57-2a.69.69,0,0,0,.14-.53c.12-.5.23-1,.35-1.45A.22.22,0,0,0,307.62,19.5Z"/><path class="cls-3" d="M501.55,9.16c.12.46.23.95.36,1.45a.65.65,0,0,0,.13.53,19.32,19.32,0,0,0,.58,2,5.09,5.09,0,0,0,1.08,2.24,5.41,5.41,0,0,0,2.22,1.92,10.88,10.88,0,0,0,4.5.62,38.43,38.43,0,0,0,4.22-1.07c.67-.06,1.34-.09,2-.1a1.89,1.89,0,0,1,1.28.82,0,0,0,0,0,.07,0,8.1,8.1,0,0,0,4.35,2.59,10.82,10.82,0,0,0,6.21-.64,29.17,29.17,0,0,1,4.26-2h.37c2.63,1.24,5.19,2.2,8.25,1.2a5.58,5.58,0,0,0,3.07-2.86c.49-.9,1.4-2.07,1.33-3.12a.29.29,0,0,0-.21-.27c-1.53-.31-2.61,1.21-4.49.86-3.35-.61-2.71-3-4.13-5C536,6.79,534.14,5,532.22,5.65l-.12-.09A12.84,12.84,0,0,0,531.35,4a8.55,8.55,0,0,0-3.94-2.86c-3.79-1.46-7.41,1-8.71,4.45s-.55,6.89,3.29,7.57a4,4,0,0,0,4.74-3.95c0-.05,0-.11,0-.18s.06-.81.42-.75.28,1,.29,1.15a2.9,2.9,0,0,0,.1.79c-.38,2.64-3.13,4.27-5.93,3.84-1.81-.28-3-1.8-3.76-3.36-.33-.66-.32-1.93-.86-2.49v0l-.07,0c-1.31-1.08-4.83.25-6,1.07-2.48,1.78-3.93,3.09-7,1.16-.69-.42-1.16-1.12-1.9-1.48a.21.21,0,0,0-.17-.09.47.47,0,0,0-.1-.05c-.21-.07-.31.16-.22.31A.22.22,0,0,0,501.55,9.16Z"/><path class="cls-3" d="M469.75,29.4l.25.29a.19.19,0,0,0,.12.17,3.81,3.81,0,0,0,1.74,1.64,5.09,5.09,0,0,0,2.71.2c1.66-.26,2.7-.67,4.19.43.29.21.66.42,1,.64,1.85,2,5.68,1.12,7.32-.76a7.72,7.72,0,0,0,1.51-5.67,9.64,9.64,0,0,0-1.23-3.68,6.06,6.06,0,0,0-2.81-2.05c-2.71-1.05-5.3.72-6.23,3.18s-.4,4.93,2.35,5.41a2.84,2.84,0,0,0,3.39-2.82v-.12c0-.14.05-.59.3-.54s.2.68.21.82a2.62,2.62,0,0,0,.07.57,3.57,3.57,0,0,1-4.24,2.74,3.9,3.9,0,0,1-2.68-2.4c-.25-.5-.23-1.48-.68-1.85s-1.12-.15-1.55-.05a3.55,3.55,0,0,0-2.33,2c-.31.68-.35,1.13-1.08,1.53a3.32,3.32,0,0,1-1.83.25.18.18,0,0,0-.1,0c-.1-.09-.07-.1-.31-.14A.1.1,0,0,0,469.75,29.4Z"/><path class="cls-3" d="M318.39,44.66l.3.24a.21.21,0,0,0,.17.13,3.72,3.72,0,0,0,2,1.24,5,5,0,0,0,2.68-.37c1.58-.61,2.5-1.23,4.2-.47.32.15.73.27,1.11.42,2.23,1.55,5.79-.1,7-2.29a7.73,7.73,0,0,0,.28-5.86,9.6,9.6,0,0,0-2-3.34A6.11,6.11,0,0,0,331,33c-2.87-.45-5,1.82-5.42,4.43s.65,4.9,3.43,4.79a2.86,2.86,0,0,0,2.73-3.47l0-.13c0-.14-.08-.58.18-.59s.34.63.38.76a2.3,2.3,0,0,0,.19.54,3.56,3.56,0,0,1-3.57,3.57,3.87,3.87,0,0,1-3.13-1.78c-.35-.43-.54-1.4-1-1.66s-1.13.08-1.53.28a3.54,3.54,0,0,0-1.85,2.48c-.16.72-.1,1.17-.73,1.72a3.37,3.37,0,0,1-1.74.62l-.09,0c-.12-.06-.09-.07-.34-.07C318.36,44.49,318.31,44.61,318.39,44.66Z"/><path class="cls-3" d="M585,60.53a.67.67,0,0,0-.84-.06.89.89,0,0,0-.77.06c-3.58,1.94-5.38-3-7.67-4.72a6.77,6.77,0,0,0-6.78-.82c-3.54,1.64-2,5.58.9,6.41.22.07-.68.82-1,.82-.77,0-1.83-1-2.31-1.59a4.67,4.67,0,0,1-.59-5.49c.47-.82,1.54-1.39,2.74-2.46s-4-4.49-4-4.35c-1,4.44-4.33,9.51-9.6,8.53-3.6-.66-6-4.5-5.92-5.92-.15-1.94.52-2.69,1.7-2.32-.92,4.36,3.08,8.57,7.68,6.75,5.52-2.19,6.35-9.32,3.44-13.94a10.82,10.82,0,0,0-14.46-3.86c-3.29,1.72-7.76,6.68-7.66,11.1-2.12-1.07-5.8.12-7.56,1.56s-2.18,3.28-3,5.31c-1.7,4.42-3.49,1.82-6.24.88a4.79,4.79,0,0,0-3.51.16,1.29,1.29,0,0,0-.72,1.21c.09.74,1.47-.45,2.06,2.63a12.41,12.41,0,0,0,4.83,7.5,6.88,6.88,0,0,0,7.38-.1c.25-.2.85-1.23,1.17-1.54,0,.37,1.88,1.61,1.8,1.57a8.31,8.31,0,0,0,3.06.76c3.68.22,6.35-3.61,5.26-6.33-.81-2-3.24-3-5.38-2.92a5.82,5.82,0,0,1,4,.15,4.71,4.71,0,0,1,2.9,2.52c.72,1.71-.12,3-1,4.34a.75.75,0,0,0-.14.67c-.34,4,7.26,5.58,10.23,5.36,4.39-.32,7.56-2.57,10-6.06-.12.18,2.29,2,2.46,2.12,3.75,2.43,9.52,2,11.46-2.56l.72.09a8,8,0,0,0,3.36-.3C584.73,65.1,586.63,62.1,585,60.53Z"/><path class="cls-3" d="M297.66,81.5a.71.71,0,0,0-.88-.06.93.93,0,0,0-.79.06c-3.71,2-5.58-3.13-7.95-4.9a7.08,7.08,0,0,0-7.05-.85c-3.67,1.7-2.11,5.79.94,6.66.23.06-.71.84-1,.84-.8,0-1.9-1.06-2.39-1.64a4.84,4.84,0,0,1-.61-5.7c.48-.85,1.6-1.44,2.84-2.55s-4.15-4.67-4.18-4.51c-1,4.6-4.5,9.86-10,8.85-3.74-.69-6.25-4.68-6.15-6.15-.15-2,.54-2.79,1.77-2.41-.95,4.53,3.2,8.9,8,7,5.73-2.28,6.59-9.68,3.58-14.47a11.25,11.25,0,0,0-15-4c-3.41,1.78-8,6.93-7.94,11.52-2.21-1.11-6,.13-7.85,1.62s-2.26,3.4-3.08,5.51c-1.76,4.58-3.62,1.88-6.47.91a5,5,0,0,0-3.65.16,1.35,1.35,0,0,0-.75,1.26c.1.77,1.53-.47,2.14,2.73a12.84,12.84,0,0,0,5,7.78,7.13,7.13,0,0,0,7.65-.1c.26-.21.89-1.28,1.22-1.6,0,.38,2,1.67,1.86,1.63a8.71,8.71,0,0,0,3.17.79c3.83.22,6.59-3.75,5.46-6.57-.84-2.1-3.36-3.12-5.58-3a6,6,0,0,1,4.15.16,4.8,4.8,0,0,1,3,2.61c.74,1.78-.12,3.1-1.09,4.5a.86.86,0,0,0-.15.7c-.35,4.13,7.54,5.79,10.63,5.56,4.55-.33,7.83-2.66,10.41-6.29-.13.19,2.37,2.09,2.55,2.2,3.9,2.52,9.88,2.07,11.89-2.65l.75.08a8.09,8.09,0,0,0,3.49-.3C297.42,86.25,299.38,83.13,297.66,81.5Z"/><path class="cls-4" d="M654.59,260c0-11.93-.2-24-1.34-35.9s-2.4-23.76-2.31-35.64c0-2,1.15-27.18,1.53-31.5a1.34,1.34,0,0,0,.2-1.25v-.36a.92.92,0,0,0-.58-.94c-2.19-4.71-4.48-9.92-8.53-13.3a17.32,17.32,0,0,0-7.73-3.35c-4.57-.95-7.14-3.42-10.42-6.63-4.59-4.5-8.64-7-15.11-7.11-8.82-.2-16.67-.32-24.06-5.81l-.33-.24a16.38,16.38,0,0,0-3.41-2.48A34.22,34.22,0,0,0,571,109.83a6.09,6.09,0,0,1-1.12-2.69c-1.64-5.65-6.13-13-11.65-15.66-2.49-1.18-5.71-1.2-8.39-1a8.24,8.24,0,0,0-5.12,2.07c-1.23-4.33-3.44-8.5-8.39-9.49-3.41-.68-8.12.2-10.9,2.67a23.45,23.45,0,0,0-7.05-10.33c-3.31-2.75-7.78-1.19-10.78,1.14a.56.56,0,0,0-.23.38c-2,.93-3.27,3.2-3.87,5.52a9.28,9.28,0,0,0-.23,1.26A22.89,22.89,0,0,0,501,82.64c-5.54-2.22-12.73-2.61-18.62-1.86-4.59.57-7.87,2.11-12.23-.4-3.14-1.81-6.09-3.85-9.34-5.54-5.73-3-9.78-4-16.1-1.89-7.37,2.45-13.28,6.58-21.18,3.89-6-2-10-4.91-16.51-5.1a68.36,68.36,0,0,0-16.51,1.54c0-.27,0-.53-.08-.81-1.23-8.22-2.89-16.63-4.8-24.85a1.35,1.35,0,0,0,.72-.68c.17-.32.33-.65.49-1a1.36,1.36,0,0,0-.24-1.34,10,10,0,0,0-2.28-2.4c-.21-.84-.41-1.7-.62-2.54a.66.66,0,0,0-1.3.23c0,.43.11.85.15,1.28a9.33,9.33,0,0,0-1.29-.44c-1.39-1.92-4-2.71-6.43-2.82a6.35,6.35,0,0,0-6.26,3.63c-2.7-2-6.52-2.9-9.32-.6-1.82,1.49-1.56,3.58-.76,5.52-.16.22-.3.44-.43.65a7.19,7.19,0,0,0-3.13,0A5.41,5.41,0,0,0,351.6,50a5.75,5.75,0,0,0-.35.8,7.88,7.88,0,0,0-4.62-1A7.69,7.69,0,0,0,342,52.22a4.83,4.83,0,0,0-.8,1.2c-5-1.05-11,1.93-9.16,7a9,9,0,0,0-8.58,4.69,8.13,8.13,0,0,0-6.29-2.35,9.27,9.27,0,0,0-4.87,2.42,3.05,3.05,0,0,0-.82,1.46,9.3,9.3,0,0,0-5.47.53c-2.9,1.07-6.09,3.54-5.87,6.68a16.11,16.11,0,0,0-4.68.68c-3.69,1.1-5.19,2.87-5.5,5.74A9.5,9.5,0,0,0,285,81.55,7.37,7.37,0,0,0,281.2,86a4.74,4.74,0,0,0-4.94.72,11.91,11.91,0,0,0-2.67,4.59,8.4,8.4,0,0,0-.44,2.13A6.9,6.9,0,0,0,267.68,95a7.11,7.11,0,0,0-2.09,4.25l-.3-.18a8.41,8.41,0,0,0-6.36-.46c-2.16.84-3.79,3.23-4.36,5.75a5.42,5.42,0,0,0-2.64-.77c-1.67,0-2.78,1.32-3.51,2.68a9.13,9.13,0,0,0-.82,2.18c-3.53-1.55-7.62-1.45-10.66,1.38-3.74,3.51-1.82,8.28,1.77,10.92l.06,0a7.81,7.81,0,0,0,6.17,3.34,13.91,13.91,0,0,0,3.13,2.23,18.18,18.18,0,0,0-8.71,3.09c-2.22,1.66-3.82,4.16-6.18,5.64a12.15,12.15,0,0,1-5,1.62,51.39,51.39,0,0,0,.7-7.47,13.11,13.11,0,0,0-.7-5.39,10.68,10.68,0,0,0-.43-1.84.76.76,0,0,0,.33-.86c-1.52-4.19-7.69-2.53-10.12-.22a13.07,13.07,0,0,0-3.64,7,7.84,7.84,0,0,0-5.58-2,20.25,20.25,0,0,0-10.23,3.79c-2.52,2-3.77,4.94-4.67,7.94-2.24-3.87-6.09-6.13-10.85-4.31a11.92,11.92,0,0,0-3.7,2.23,11.19,11.19,0,0,0-5.8.77c-2.62-2.81-8.19-2.8-11.47-1.4-3.67,1.55-5.5,4.51-7,7.88-.56,0-1.12,0-1.69,0a20.61,20.61,0,0,0-4.82.88c-3.67.32-7.94,4-9.55,7.14a20.13,20.13,0,0,0-2,7.2c-4.7-1-9.49,2.6-12.4,6.34a23.16,23.16,0,0,0-3.59,6.73,11.44,11.44,0,0,0-5.4-.42c-6,.87-10.75,5.11-14.37,9.68a38.83,38.83,0,0,0-8,18.95l-.12,0A23.45,23.45,0,0,0,85.12,198c-5.54,0-9.9,1.88-14.17,5.37-9.21,7.52-11.34,17.08-12.57,28.05-2.62-2.63-5.66-3.34-10-4.5C43,225.5,39,225,34.21,228.5c-4.52,3.33-7.62,8.87-9,14.25a31.12,31.12,0,0,0-.94,8.38c.06,1.86.65,4,.8,6C13.67,253.22,1.52,260.15.58,273c-.84,11.44,9,12,18.79,10.29a2.9,2.9,0,0,0,.57.42,1.3,1.3,0,0,0,1.9-.91c1.05-.22,2.08-.46,3.09-.71H653.06v-.35c1.7-.49,1.91-1.68,2.08-3.54C655.69,272.26,654.6,265.92,654.59,260Z"/><path class="cls-5" d="M496.38,88l19.5-1.19a.43.43,0,0,0,.41-.49l-5.72-43.17a.43.43,0,0,0-.44-.38l-13.55.3a.43.43,0,0,0-.42.5l.73,4.76a.43.43,0,0,1-.42.5l-5,.06a.44.44,0,0,1-.44-.46l.13-4a.44.44,0,0,0-.44-.45l-13,.06a.44.44,0,0,0-.44.43l-.17,4.85a.44.44,0,0,1-.45.42l-4.29-.15a.44.44,0,0,1-.42-.45l.13-4a.43.43,0,0,0-.44-.45L459,45a.44.44,0,0,0-.43.44l0,7.91a.43.43,0,0,1-.43.44l-3.69,0a.44.44,0,0,1-.44-.43l-.11-7.5a.44.44,0,0,0-.45-.43l-13,.45a.43.43,0,0,0-.42.42l-.88,31.2-.35,10.22a.43.43,0,0,0,.44.45L496.36,88Z"/><path class="cls-6" d="M477.2,69c-6.5-.23-4.58,15.07-4.58,15.07l8.34.29S483.7,69.17,477.2,69Z"/><path class="cls-6" d="M499.88,67.42c-4.25.22-2.15,10.08-2.15,10.08l5.45-.27S504.13,67.21,499.88,67.42Z"/><path class="cls-7" d="M513.8,58c-13.17.6-26.3,1.51-39.46,2.35-11.68.75-23.78-.37-35.38,1.19a.5.5,0,0,0,0,1c5.83,1.2,11.79.3,17.69.13,5.53-.15,11.09.06,16.62-.3,13.5-.88,26.94-2,40.48-1.88C515.31,60.49,515.37,58,513.8,58Z"/><path class="cls-8" d="M431.64,76.64c-4.15-1.17-38.14-16-41.42-18.68-2.42-2-7.19-10.56-7.05-14.64,3.88.14,30.82.45,30.82.45l51.59,1.78L445.44,22.6l-2.83.11-.16-8.17-23.29-5.4-8.56,2.39L410.42,17l-2.45,0-.1-4.93-8,2.71s.11,2.76,0,4.8c-2.56-.49-9-1.49-13.92-2-8.85-.91-16-.75-20.83,3.27s-4.89,9.9-5.09,14.42c-.24,5.34-1.5,40.44-.87,45.9s22.64,9.56,34.12,8.32C395.08,88.75,432,76.61,432,76.61"/><path class="cls-9" d="M386.57,25.68c-3-.24-21.5.79-22.76,13.91-1.37,14.12,25,21.21,25,21.21a26.76,26.76,0,0,1-8.59-19.42C380.08,29.54,383.21,28.42,386.57,25.68Z"/><path class="cls-7" d="M443.84,21.57c-8.08-1.66-16.19-3.23-24.27-4.88a.22.22,0,0,0-.16,0,0,0,0,0,0,0,0h-.09c-1.19.3-2.33.83-3.55,1.13-1.64.4-3.28.8-4.95,1.08a.23.23,0,0,0,0,.46,20.58,20.58,0,0,0,8.79-2.06.22.22,0,0,0,.08-.09c3.38,1.44,7.49,1.73,11.07,2.35,4.32.76,8.55,1.78,12.84,2.69C444.09,22.39,444.31,21.67,443.84,21.57Z"/><path class="cls-7" d="M414.19,12.5a.41.41,0,0,0-.37.17s0,0-.05,0l0,.06a.88.88,0,0,0-.05.15,1.08,1.08,0,0,0,0,.88.32.32,0,0,0,.33.15,1.24,1.24,0,0,1,.27,0,.3.3,0,0,0,.31-.29C414.65,13.22,414.79,12.51,414.19,12.5Z"/><path class="cls-7" d="M414,15.2a.4.4,0,0,0-.41.42.81.81,0,0,0,0,1c.34.29.91,0,1-.42S414.48,15.18,414,15.2Z"/><path class="cls-7" d="M405.07,15.68a.27.27,0,0,0-.27-.22c-.42-.07-.61.13-.66.42a.85.85,0,0,0-.08.69c.12.32.54.29.82.26a.28.28,0,0,0,.22-.27A6.47,6.47,0,0,0,405.07,15.68Z"/><path class="cls-7" d="M405.07,18.12a.62.62,0,0,0-.62-.23c-.32.11-.3.54-.24.8v0c0,.06,0,.11,0,.17a.23.23,0,0,0,.17.23A.54.54,0,0,0,405,19,1,1,0,0,0,405.07,18.12Z"/><path class="cls-7" d="M423,12.15a.53.53,0,0,0-.63-.58.28.28,0,0,0-.28.23.19.19,0,0,0-.2.21c0,.32-.19.86.09,1.1a.72.72,0,0,0,.87,0C423.08,12.88,423,12.42,423,12.15Z"/><path class="cls-7" d="M425,15.2a.29.29,0,0,0-.22.26v0a1.35,1.35,0,0,0-.07,1.07.28.28,0,0,0,.24.15c.49,0,1.07,0,1-.64S425.73,15.1,425,15.2Z"/><path class="cls-7" d="M428.76,13.3c-.12-.22-.29-.18-.5-.2-.66-.07-.71.33-.61.85-.06.23-.07.44.12.57a1.18,1.18,0,0,0,.83.05c.23-.09.24-.27.25-.49A1.86,1.86,0,0,0,428.76,13.3Z"/><path class="cls-7" d="M431.61,16.31a.77.77,0,0,0-.67.11.09.09,0,0,0-.14,0,3,3,0,0,0-.15.74.22.22,0,0,0,.1.19.84.84,0,0,0,.85,0c.23-.18.17-.57.2-.83A.27.27,0,0,0,431.61,16.31Z"/><path class="cls-7" d="M434.6,15a1.52,1.52,0,0,0-.08-.56.84.84,0,0,0-.77-.31s0,0-.07.06a.1.1,0,0,0-.17,0,1.41,1.41,0,0,0-.17,1.39.3.3,0,0,0,.39.12c.31-.13.68.25.88-.18C434.69,15.28,434.62,15.12,434.6,15Z"/><path class="cls-7" d="M436.81,17.71s-.06,0-.09.07,0,0,0,0,0,0,0,0a.05.05,0,0,0,0,0,1.67,1.67,0,0,0-.17,1,.28.28,0,0,0,.26.28c.7,0,.91-.14.92-.89C437.68,17.77,437.25,17.66,436.81,17.71Z"/><path class="cls-7" d="M440.46,15.79a.27.27,0,0,0-.24-.2,4.1,4.1,0,0,0-.7,0,.25.25,0,0,0-.23.37s0,0,0,.05a.73.73,0,0,0,0,.58c.17.31.56.2.84.27a.31.31,0,0,0,.4-.28A2.22,2.22,0,0,0,440.46,15.79Z"/><path class="cls-10" d="M454.26,41.4c-.7-1-1.3-2.14-2-3.19a67,67,0,0,0-4.32-5.69.2.2,0,0,0-.15-.26c-.94-.21-1.92-.2-2.87-.37-.26-1.52-.13-3.07-.35-4.6a.43.43,0,0,0,0-.07.3.3,0,0,0-.23-.36l-24.93-5.62h-.11l-3.9.55a.3.3,0,0,0-.26.34.29.29,0,0,0,.34.26l3.85-.53,24.87,5.61h0a17.52,17.52,0,0,0,0,2.05,12.53,12.53,0,0,0,.18,2.52.22.22,0,0,0,.29.18,9.59,9.59,0,0,0,1.43.33,6.38,6.38,0,0,0,1.56.17h0a12,12,0,0,0,1.38,1.86c.74,1.06,1.47,2.13,2.19,3.2,1.16,1.71,2.29,3.46,3.33,5.25a.18.18,0,0,0,.33,0C455.24,42.37,454.57,41.85,454.26,41.4Z"/><path class="cls-7" d="M383.75,58.89a.22.22,0,0,0-.14-.21,1.58,1.58,0,0,0-1.35.32.13.13,0,0,0,0,.23c-.63.67-.49,1.54-.53,2.71a21.46,21.46,0,0,0-.08,2.4c0,.28,0,.59.29.74.65.33.92-.55,1-1a6.44,6.44,0,0,0,0-1.37,1.09,1.09,0,0,0-.08-.94c-.08-1.11,0-2.18.82-2.56a.22.22,0,0,0,.11-.17Z"/><path class="cls-7" d="M384.8,68.21c-.27.2-.22.41-.27.74a1.61,1.61,0,0,0,0,.87.16.16,0,0,0,.31,0h0v0h0c.15-.42.14-.92.32-1.33S385,68.09,384.8,68.21Z"/><path class="cls-7" d="M390.74,71.36a.28.28,0,0,0-.39.08,1.56,1.56,0,0,0-.12,1.41c0,.13.15.08.18,0h0c.14-.35.29-.76.41-1.11C390.88,71.57,390.88,71.47,390.74,71.36Z"/><path class="cls-7" d="M397.3,73.72a.19.19,0,0,0-.33,0c-.33.41-.15,1-.08,1.45a.1.1,0,0,0,.18,0C397.16,74.72,397.51,74.15,397.3,73.72Z"/><path class="cls-7" d="M403.65,76.74c0-.13-.18-.18-.29-.13a1,1,0,0,0-.37,1.13.26.26,0,0,0,.51,0C403.51,77.34,403.69,77.09,403.65,76.74Z"/><path class="cls-7" d="M409.86,79.29a.27.27,0,0,0-.52,0,4,4,0,0,0,0,1.55.19.19,0,0,0,.37,0A4,4,0,0,0,409.86,79.29Z"/><path class="cls-7" d="M415.4,71.81l0-.15a.27.27,0,0,0-.24-.19,1.22,1.22,0,0,0-.33,0,.2.2,0,0,0-.17,0,1.33,1.33,0,0,0-.84.4c-.78.44-.92,2.08-.95,2.71-.06,1.25-.19,2.55-.14,3.8,0,.42,0,.73.41.88a.29.29,0,0,0,.32-.07c0-.07.08-.17.13-.25a.32.32,0,0,0,.33-.33c0-.81.1-1.6.15-2.4s.19-1.45.24-2.16c0-.36,0-.73,0-1.09v-.44c.25-.15.37-.27.39-.39l.47,0A.25.25,0,0,0,415.4,71.81Z"/><path class="cls-7" d="M421.68,74.47c-.41-.39-1.28,0-1.42.5a12.24,12.24,0,0,0-.18,1.6,13.74,13.74,0,0,0-.19,1.8.36.36,0,0,0,.71,0c0-.73.19-1.44.26-2.17,0-.28-.09-.84,0-1.09a1.31,1.31,0,0,1,.7-.4A.16.16,0,0,0,421.68,74.47Z"/><path class="cls-7" d="M408.58,69.22a.19.19,0,0,0-.18-.18c-1.23-.19-1.78.83-1.86,1.91,0,.23,0,.46,0,.69-.11.8-.13,1.63-.19,2.28s-.62,2.32.1,2.83a.31.31,0,0,0,.42-.1s0,0,0-.05a.31.31,0,0,0,.15-.15,7.76,7.76,0,0,0,.41-2.71c0-1.31.38-2.63.3-3.93a.33.33,0,0,0-.05-.15,1.71,1.71,0,0,1,.56-.32c.05.17.33.17.33,0Z"/><path class="cls-7" d="M401.31,66.8c-.53.26-.66,1.08-.74,1.67a24.78,24.78,0,0,0-.14,2.72,8.13,8.13,0,0,0,0,2.56.27.27,0,0,0,.37.16c.7-.37.68-2,.73-2.66s.14-1.46.17-2.22,0-1,.71-1.46c.13-.09.38-.08.47-.24C403.38,66.42,401.83,66.26,401.31,66.8Z"/><path class="cls-7" d="M395.86,64.1a.26.26,0,0,0-.25-.26,1.5,1.5,0,0,0-1.06.3.13.13,0,0,0,0,.23c-.35.4-.31,1.27-.37,1.71a22.82,22.82,0,0,0-.17,4.67.28.28,0,0,0,.4.25c.7-.36.6-1.9.62-2.56a13.1,13.1,0,0,1,.26-2.93C395.41,65.09,395.89,64.57,395.86,64.1Z"/><path class="cls-7" d="M389.77,60.88a1.29,1.29,0,0,0-1.23.24l-.06,0h-.18a.29.29,0,0,0-.28.2,19.83,19.83,0,0,0-.17,3.7c0,.83-.25,2,.31,2.67a.3.3,0,0,0,.41,0c.51-.61.34-1.66.37-2.38s.05-1.4.06-2.09a1.46,1.46,0,0,1,.39-1.17c.12-.12.36-.14.48-.28C390.16,61.43,390.16,61.1,389.77,60.88Z"/><path class="cls-7" d="M379.07,65.74c0-.31-.49-.32-.48,0a8.46,8.46,0,0,0,.14,1v0h0c.05.12.26.2.31,0A2.74,2.74,0,0,0,379.07,65.74Z"/><path class="cls-7" d="M373.86,63.42a2.22,2.22,0,0,0,.1.89c.07.16.3.08.31-.07s.06-.54.09-.81S373.87,63.09,373.86,63.42Z"/><path class="cls-7" d="M369.64,60.15a.23.23,0,0,0-.43,0,1.68,1.68,0,0,0,.2,1.43.08.08,0,0,0,.15,0A2.43,2.43,0,0,0,369.64,60.15Z"/><path class="cls-7" d="M365,57.3a5.88,5.88,0,0,0-.06,1.45c0,.11.21.12.23,0a14.61,14.61,0,0,0,.24-1.45C365.47,57.05,365.05,57,365,57.3Z"/><path class="cls-7" d="M363,54.57a5.61,5.61,0,0,0,0,1.16.13.13,0,0,0,.25,0,5.55,5.55,0,0,0,.13-1.15A.21.21,0,0,0,363,54.57Z"/><path class="cls-7" d="M378.24,56.15c-.67-.09-1.65.26-1.77,1a7,7,0,0,0,.09,1.21c0,.53-.06,1.07-.08,1.6a11.44,11.44,0,0,0,.06,2.68.16.16,0,0,0,.3,0,17.84,17.84,0,0,0,.29-3.73c0-.36-.14-1.66.06-1.88a3.62,3.62,0,0,1,1.1-.35C378.62,56.64,378.52,56.19,378.24,56.15Z"/><path class="cls-7" d="M373.5,53.37c-.44.28-1,0-1.37.3s-.41,1.11-.45,1.43a15.82,15.82,0,0,0,0,5,.09.09,0,0,0,.17,0,24.17,24.17,0,0,0,.32-4.42c.05-.54.09-1.41.61-1.63.34-.14.62,0,1-.2S373.8,53.17,373.5,53.37Z"/><path class="cls-7" d="M369.57,50.86c-1,.29-1.82-.09-2,1a13.47,13.47,0,0,0-.08,5.1s.06,0,.07,0a24.47,24.47,0,0,0,.42-4c0-.19.05-.39.07-.58.07-.45,0-.56.37-.75a7.79,7.79,0,0,1,1.31-.23C370,51.29,369.91,50.75,369.57,50.86Z"/><path class="cls-7" d="M366.65,47.82a3.85,3.85,0,0,0-1.75.19.8.8,0,0,0-.59.73,16.79,16.79,0,0,0-.3,2.66,9.85,9.85,0,0,0,0,2.92.08.08,0,0,0,.15,0,31.78,31.78,0,0,0,.63-4.48c.09-.56,0-1,.48-1.25s.92-.18,1.33-.3C366.85,48.24,366.9,47.88,366.65,47.82Z"/><path class="cls-7" d="M364.54,45.05c-.89-.09-1.92-.09-2,.92a20.34,20.34,0,0,0,0,5.23s.05,0,.06,0a17.82,17.82,0,0,0,.31-3.65,5.64,5.64,0,0,1,0-1.43c.22-.56,1-.54,1.55-.5S364.9,45.09,364.54,45.05Z"/><path class="cls-7" d="M363.22,41.27a1.61,1.61,0,0,0-1.08-.1,2.13,2.13,0,0,0-1.12.3c-.22.19,0,.48.28.39a2.87,2.87,0,0,1,.72,0,3.14,3.14,0,0,1,.81,0c.27,0,.5,0,.55-.28A.33.33,0,0,0,363.22,41.27Z"/><path class="cls-7" d="M362.85,36a.37.37,0,0,0-.39-.18c-.65.1-1.54-.07-2.08.36a.17.17,0,0,0,0,.25c.37.27,1,.15,1.45.16s.82,0,1-.31a.2.2,0,0,0,0-.21Z"/><path class="cls-7" d="M362.79,32c-.43-.2-1.7-.39-2.05,0a.17.17,0,0,0,.07.29c.55.23,1.22.12,1.77.37S363.2,32.21,362.79,32Z"/><path class="cls-7" d="M361.38,28.05a.21.21,0,0,0-.12.39,1.68,1.68,0,0,0,.86.17c.33,0,.62.15.94.17a.24.24,0,0,0,.24-.29C363.14,27.73,361.91,28.07,361.38,28.05Z"/><path class="cls-7" d="M364.78,24.35a.24.24,0,0,0-.19-.16,1.18,1.18,0,0,0-.76-.16,4.66,4.66,0,0,1-.91.11,0,0,0,0,0,0,0c-.1.21.14.26.31.3s.49,0,.74,0a1.07,1.07,0,0,1,.38.13,18.7,18.7,0,0,1,.37,2.66,6.15,6.15,0,0,0,.37,2.21c.06.13.31.09.3-.07A23.88,23.88,0,0,0,364.78,24.35Z"/><path class="cls-7" d="M367.91,23.84h0a7.85,7.85,0,0,0-.3-2.44V21.3c0-.11,0-.29-.11-.17a.27.27,0,0,0-.17-.47h-.09a.34.34,0,0,0-.28.16s-.05-.09-.1-.11c-.39-.13-.8-.05-1.15-.26,0,0,0,0,0,0a.33.33,0,0,0,.19.4,1.31,1.31,0,0,0,.32.1,3.82,3.82,0,0,1,.53.2.17.17,0,0,0,.2,0l0,0c.06.69.15,1.38.26,2.08,0,.1,0,.22.07.33a1,1,0,0,0,0,.25,13.83,13.83,0,0,0,.12,2.32.3.3,0,0,0,.57,0A3.94,3.94,0,0,0,367.91,23.84Z"/><path class="cls-7" d="M371.71,20.85a17.36,17.36,0,0,0-.18-2.39.17.17,0,0,0,0-.18s0-.05-.06-.08a.22.22,0,0,0,0-.08.29.29,0,0,0-.34-.21l-.16,0h0a2.15,2.15,0,0,1-.84-.14.17.17,0,0,0-.21.26,1.93,1.93,0,0,0,1.11.4h0a8.93,8.93,0,0,0-.2,2.53,3.33,3.33,0,0,0,.38,1.84.29.29,0,0,0,.48,0C372.05,22.38,371.74,21.4,371.71,20.85Z"/><path class="cls-7" d="M376.1,21.05a17,17,0,0,0-.11-3.34c-.06-.36-.56-.28-.61,0,0,0-.08-.07-.08-.1s0,0,0,0l-.1.07a.1.1,0,0,0,0,.13c.21.33,0,1.34,0,1.72,0,.55-.09,1.12-.08,1.67s-.07,1.32.33,1.75a.33.33,0,0,0,.46,0C376.26,22.47,376.08,21.65,376.1,21.05Z"/><path class="cls-7" d="M382.27,18a.27.27,0,0,0-.53,0,6,6,0,0,0,0,1.27c-.11.82-.19,1.64-.23,2.47,0,.53-.22,1.19.16,1.63a.31.31,0,0,0,.48,0C382.83,21.8,382.36,19.57,382.27,18Z"/><path class="cls-7" d="M389.58,21.31c-.05-.86-.24-1.71-.24-2.58,0,0,0-.05,0-.08a.83.83,0,0,0,0-.15s0,0,0,0a.32.32,0,0,0-.54.21c0,.2,0,.41,0,.61a8.78,8.78,0,0,0-.22,1.54c-.05.51-.25,1.4.21,1.78a.35.35,0,0,0,.33,0C389.57,22.42,389.61,21.81,389.58,21.31Z"/><path class="cls-10" d="M383.33,46.6c-.25-2.6-.73-10.44,6.67-15.77s18.09-5.57,25.2-4.44c.3-5,.12-5.64.12-5.64a33.72,33.72,0,0,0-12.62-1c-7.65.69-12.72,1.87-16.11,5.3S380.05,33.35,381,39.3,383.33,46.6,383.33,46.6Z"/><path class="cls-11" d="M421.79,72.7s-.05,0,0,0c-4.6-1.89-9.22-3.65-13.83-5.53a111.84,111.84,0,0,1-14.68-6.49c-8.37-4.43-13.7-20-9.36-30.59,3.2-5.12,7.31-8.08,13.78-9.64a56.36,56.36,0,0,1,5.76-.69,81.92,81.92,0,0,1,8.35.38c.34,0-.29-.57-.42-.57a19.24,19.24,0,0,1-2.4-.18,53.64,53.64,0,0,0-11.67.56,26,26,0,0,0-8.15,2.68,27.67,27.67,0,0,0-7.77,6.71c-3,3.72-3.09,12.77-.61,19.17,1.63,4.2,3.5,7.83,6.72,10.84-5.9-2.58-13.51-4.81-18.31-9.2a18.41,18.41,0,0,1-6.06-10.72A43.73,43.73,0,0,1,363.29,28a11.62,11.62,0,0,1,1.64-4.27,15.54,15.54,0,0,1,3.25-3.56,10.35,10.35,0,0,1,5-2.44c1.3-.14,3.75-.06,3.76-.11,1.3,0,2.94.11,4.24.24,2.18.22,14.95,1.74,18.21,1.79.15,0,.36-.12.21-.13-3.51-.26-11-1.2-13.69-1.46-4.21-.42-11.34-1.22-14.13-.76a16,16,0,0,0-7.63,4.18c-2.47,2.49-3.33,6.46-3.68,9.41s.07,12.56,3.84,17.49c4.21,5.51,15.16,9.69,17.7,10.66s13.48,6.07,20,8.47c5.28,1.94,12.52,5.1,15.46,6s11,3.73,11,3.73l3.53-.63S423.35,73.2,421.79,72.7Z"/><path class="cls-10" d="M407.27,82.93c-8.71-3.93-17.15-8.31-25.69-12.59-8.05-4-20-9.77-21.41-19.88,0-.11-.21-.09-.21,0a14.59,14.59,0,0,0,4.18,10.07,1.9,1.9,0,0,0,.36.39c3.68,3.91,8.93,6.81,13.19,9.07,5,2.69,10.15,5.38,15.41,7.59,4.62,1.93,9.06,4.91,13.85,6.35C407.63,84.16,407.88,83.21,407.27,82.93Z"/><path class="cls-4" d="M439.09,77.5,440,46.3a.43.43,0,0,1,.42-.42l13-.45a.44.44,0,0,1,.45.43l.11,7.5a.44.44,0,0,0,.44.43l3.69,0a.43.43,0,0,0,.43-.44l0-7.91A.44.44,0,0,1,459,45h.27a4.9,4.9,0,0,0-3.17-1.9c-.8-.11-3.35-.16-4.33.67a5.83,5.83,0,0,0-1.61-1.95c-1.61-1.17-3.5-.57-5,.43a5.13,5.13,0,0,0-8-2.22c-2.14-2.43-7.24-3.5-9-1-.15-2.67-2.77-4.63-5.25-5.26-2-.51-5.3.27-6.48,2.27a6.71,6.71,0,0,0-5-1.88c-2.51.27-5.34,2-5.31,4.62a6.18,6.18,0,0,0-3.21-2.49c-1.36-.32-3.84.62-4.29,2.16a4.91,4.91,0,0,0-4.91-2.3c-1.68.11-3.62,1.27-3.46,3-.21-.07-.42-.14-.61-.22a4.57,4.57,0,0,0-3.71-.15,5.4,5.4,0,0,0-2.59,2.93,2.28,2.28,0,0,0-.13,1.29,6.17,6.17,0,0,0,0,1c-.55,5.46,3.15,11.78,7,15.16,6.07,5.33,15.71,8.31,23.23,10.7,6,1.9,11.24,5.07,17,6.81,1.69.51,3.51,0,5.32.18,1.14.13,2.25.7,3.44.91Z"/><path class="cls-7" d="M492.45,75.46c-.89,0-1.68,7.16-1.86,8.45s-32.11-.29-32.11-.29.26-7.65.46-13.43c-2.83-4.65-6.56-2.13-8-1s-8.93,7.28-9.79,8.67c-.59-.56-6.61-1.58-9.48-1.27-9.83.88-36.05,11.14-38.19,12.22-8.11,4.28-39.34,9.15-58.3,12.32-16.23,2.71-41.79,9.89-57.65,8.22-16.11-1.69-35.59-13.06-42.49-11.26-3.67,1-6.72-1.36-8.54,5-.95,3.31-1.66,10.12-1.76,18.49-.2,16.34-3.41,75.28-3.41,75.28l7.9,78.94,54,2.47,137.37,4.73s-46.74-65.37-64.81-86.14c-17.32-19.91-26.08-41.18-27.86-52.67s-17.85-19.13-17.85-19.13c-.45-2.74,4.32-6.93,7.61-7.63s15.8,8.54,39.68,2.83c10.44-2.5,31.19-7.87,51.21-13.86,25.8-7.71,49.71-15.75,52.9-16.62,10.93-3,18.7-5.56,24.25-4.47a22.83,22.83,0,0,1,4.23,1.21,5.54,5.54,0,0,0,3,.54c.92-.08,1.22-1.8,1.44-4.31.21-2.32,1.27-7.24,1.27-7.24Z"/><path class="cls-7" d="M338.85,172.59c3.12.11,157.27,3.58,157.27,3.58l-.46-100.63a44.4,44.4,0,0,0-1.11,6c-.1,1.49,0,5.55-1.85,5.66-1.62.1-6.93-2.47-10.73-2.07-7.3.76-15.2,3.15-23.32,5.59-11.34,3.4-29.59,9.46-42.25,13.38-15.51,4.8-36,10.26-54.34,15a72.11,72.11,0,0,1-29.95,2c-6.49-.75-11.63-4.14-14.57-3.57-5.63,1.11-8,7.4-7.28,7.78,4.55,2.41,9.89,5.63,14.37,11.54,4,5.24,3.66,12.61,6.29,18.78C335.18,165.58,337.64,171.3,338.85,172.59Z"/><path class="cls-10" d="M495.87,75.41c-2.68-.2-3.21,9.62-3.95,11.31-2.47-.8-6.44-2-9.22-1.79a87.75,87.75,0,0,0-15.83,3.18,210,210,0,0,0-28.46,8.53c-4.25,1.6-16.87,5.54-18,5.89-5.87,1.81-12.16,3.38-18.11,4.9-5,1.28-10,2.88-14.9,4.36-2.32.7-24.91,7-34.09,8.24-6.75.92-14.58,2-21.39,0-1.82-.93-4.16-1.8-6.08-2.71a10.08,10.08,0,0,0-8-.74c-4.52,1.29-11.45,7.17-6.75,11.28a5.57,5.57,0,0,0,1.59,2.29,19.86,19.86,0,0,0,4.9,2.67,6.86,6.86,0,0,0,4.48.69,13.81,13.81,0,0,0,.82,1.93,53.17,53.17,0,0,0,11.4.91c4,0,7.89.16,11.68,0,7.62-.28,15-1.93,22.41-3.66,13.94-3.26,27.31-8.15,40.91-12.54,12.63-4.06,25.13-8.27,37.55-12.91,11.73-4.38,24.12-6.06,36-9.77.46-.1.93-.19,1.4-.26,2.93-.46,4.26,0,6.95.68,1.39.36,3.93,0,4.53-.78C495.76,96,495.85,76.15,495.87,75.41Z"/><path class="cls-12" d="M302.06,128.11c-9.43,1.31-56.25-2.75-56.95-.12-.29,1.1,5.18,25.49,12.46,55.28,2.12,8.68,5.24,17.6,8.31,27.37C277.07,246.28,283,279.81,283.53,279c.33-.56,106.92,3.68,106.92,3.68s-53.09-72.72-59.24-81.87c-8.16-12.12-10.27-27.91-13.26-41.9-1.77-8.27-11.26-12.91-15.45-19.72C300.35,135.64,302.06,128.11,302.06,128.11Z"/><path class="cls-13" d="M458.68,81.18l32.08-.2s.56,6.41-.87,5.56a17,17,0,0,0-6.68-1.66,94,94,0,0,0-14.8,2.82C458,90.41,447,94.44,447,94.44s7.69-9.3,8.9-9.73A4.22,4.22,0,0,0,458.68,81.18Z"/><path class="cls-10" d="M246.29,239.33c-2.12-12.45-4.34-25-7.61-37.19-3-11.07-5.74-22.44-6.84-33.87-.57-5.92-.75-11.78-2.5-17.53-1.84-6-5.72-10.93-5-17.49,0-.36-.51-.43-.62-.1-.61,2-1.55,3.65-1.38,5.72.23,2.72,3.35,6.67,4.23,9.51A69.92,69.92,0,0,1,229.41,166c.7,11.76,3.84,23.88,6.91,35.18A371.32,371.32,0,0,1,244,239l.18,1c0,2.62.65,5.3.86,7.89a94.79,94.79,0,0,0,1.41,11c1.54,7.66,2.34,15.42,4.66,22.92a1.08,1.08,0,0,0,1.78.53,2,2,0,0,0,.45-.68,1.32,1.32,0,0,0,1.61-1.42C253.17,266.52,248.64,253,246.29,239.33Z"/><path class="cls-14" d="M492.26,75.33a19.18,19.18,0,0,0-1.19,4.58c-.28,3.29-.23,6.73-1.63,5.86-2.07-1.28-6.1-1.52-8.54-1.18-4.1.58-7,1.06-10.88,1.94-11.35,2.58-22.75,6.51-34.37,10-7.16,2.14-28.87,8.56-32.42,9.74C397.93,108,376.38,113.7,371,115c-2.12.5-7.3,1.84-9.42,2.38a112.53,112.53,0,0,1-22,3.14,19.82,19.82,0,0,1-7.07-.69,25,25,0,0,1-4.08-1.52c-1.24-.57-3.69-2.47-6.22-3-3.24-.7-11-.63-16.26,5-1.58,1.7-4.35,3.43-3.28,4.89,1.3,1.77,5.06,3.55,6.52,4.87,11.14,10.08,10.25,15.46,11.3,21.57,1.65,9.53,5.55,18.65,12.76,29.63,5,7.62,28.1,38.89,37,50.43,13.23,17.1,22.32,34.69,34.26,52.69.43-.2,16,1.67,15.43.47-3.48-7.68-9.14-13.68-12.55-19.08-6.32-10-17-24.4-21.27-30.54-4.8-6.9-11.59-15.06-13.28-17.41-1.88-2.62-8.36-9.24-11.73-13.12a223.6,223.6,0,0,1-13.58-18.57c-2.2-3.29-5.69-8.76-7.82-12.09a99.64,99.64,0,0,1-9.82-23c-1.11-4.27-1.9-9.85-4.28-13.62-2.05-3.26-5.37-6.1-8.44-8.36-1.11-.81-7.36-4.08-7.17-5.15s3.55-4,5-5.18a8.83,8.83,0,0,1,6.21-2.39c3.11.11,4.43,1.22,6.62,2a27.2,27.2,0,0,0,3.57,1.5,26.05,26.05,0,0,0,10.36,1.43,94.62,94.62,0,0,0,18.33-2.16c7.39-1.56,14.07-2.89,21.33-4.91,3.8-1.06,28.43-8.17,36.55-10.64,14.86-4.51,29.66-9.14,44.52-13.65,7-2.12,16.6-5.22,23.84-4.49,3,.31,5.8,3.4,6.88,1.73.6-.93.59-3,.92-5a51.94,51.94,0,0,1,1.74-6.79S493.43,75.37,492.26,75.33Z"/><path class="cls-14" d="M459.17,70.63A3.66,3.66,0,0,0,457.31,68a5.51,5.51,0,0,0-4.44-.48c-2.18.66-4.07,2.58-5.62,4.14a70.9,70.9,0,0,1-5.41,5.12c-.91.76-2.39.66-3.95.14-1.82-.61-6.92-.58-10,.07-2.38.49-4.72,1-7.08,1.56a30.61,30.61,0,0,0-3.51,1c-4.5,1.41-8.92,3.12-13.33,4.9-5.63,2.29-11.54,4.6-17.37,6.31-3.29,1-14.79,4.16-18.18,4.71C360,96.83,352.51,97.93,347,98.83c-9.24,1.36-12.12,2.07-19,3.57s-28.29,5.35-34.16,5.76c-4.73.34-7.18,1.25-13.51,1.1a49.35,49.35,0,0,1-15.86-2.87c-5.64-1.91-14.64-5.67-17.65-6.76s-8.49-3.39-13.09-2.59c-2.13.38-7.48,2.5-7.15,6.09.27,2.91,3.59,6.45,6.05,13.88,3.62,17.62,6.31,33.81,9.34,51,1.84,10.48,4,20.92,6.55,31.19,3.53,14.15,7.08,26.75,11,40.8,3.54,12.78,5,26.06,6.95,39.17.14.9,18,.33,18,.33s-7.56-32.39-8.08-35c-2.27-11.19-10.86-36.58-14.15-47.72-2.81-9.49-8.16-27.82-9.91-36.23-2.43-11.64-5.44-23.68-7.36-35.41-.81-5-3.54-13.8-7.28-19.42-1.37-2.07-4.19-4.74-4-5.78s2-1.79,4.24-1.71A17,17,0,0,1,243,99.35c8.18,2.75,16.12,6.28,24.43,8.66a55.43,55.43,0,0,0,13.49,2.07,116.32,116.32,0,0,0,14.69-.7,124,124,0,0,0,16.42-2.56c8.31-2,30.49-6.31,33.52-6.77,5.34-.81,21.41-3.37,24-3.84A105,105,0,0,0,387.9,91.8c3.23-.93,5.71-2.11,9.38-3.49S411,83,417.35,80.5c4.67-1.44,11.51-3.39,14.27-3.46a20.58,20.58,0,0,1,8.44,1.35c1.32.51,1.92,1,3.53.9,1.92-.12,1.9-1.42,3.15-2.69a59.68,59.68,0,0,0,4.89-5.54c.93-1.19,2.75-2.82,4.58-2.63C458.25,68.64,458.61,69.94,459.17,70.63Z"/><path class="cls-15" d="M246.11,220.37l-.15,0a.43.43,0,0,0-.53.27,13.4,13.4,0,0,0-.41,3.47,15.12,15.12,0,0,0,.17,4.2.15.15,0,0,0,.28,0,11.14,11.14,0,0,0,.4-3.73,12.29,12.29,0,0,1,.21-2.18,7.12,7.12,0,0,0,.09-1.35A.36.36,0,0,0,246.11,220.37Z"/><path class="cls-15" d="M241.07,198a12.92,12.92,0,0,0-.53,3.44c0,.6-.12,1.17-.16,1.76s.07,1.31,0,2c0,.06.08.07.11,0a6.7,6.7,0,0,0,.81-2.87c.22-1.39.28-2.7.61-4.07h0C242.05,197.83,241.21,197.47,241.07,198Z"/><path class="cls-15" d="M237.88,178.63c0-.52-.86-.63-.88,0-.08,2.06-.64,4.5-.15,6.52a.18.18,0,0,0,.34,0,25.21,25.21,0,0,0,.7-6.5Z"/><path class="cls-15" d="M235.4,164.92a.36.36,0,0,0-.68,0,10.2,10.2,0,0,0-.3,4.39.08.08,0,0,0,.16,0,18.24,18.24,0,0,0,.57-2.29A7.06,7.06,0,0,0,235.4,164.92Z"/><path class="cls-15" d="M232.52,150.52a3.21,3.21,0,0,0-.38,2.16c0,1,.1,2,.14,3a0,0,0,0,0,.07,0c.19-1.69.31-3.4.55-5.08C232.93,150.41,232.63,150.38,232.52,150.52Z"/><path class="cls-15" d="M230.15,140.49c0-.16-.31-.17-.34,0-.16.94-.21,1.91-.33,2.85a10.59,10.59,0,0,0,0,3.13.08.08,0,0,0,.16,0c.26-1.12.13-2.28.33-3.41A8.86,8.86,0,0,0,230.15,140.49Z"/><path class="cls-15" d="M230.68,114a.2.2,0,0,0-.4,0,92.21,92.21,0,0,0-.82,16.51c0,.06.08.06.09,0A92.18,92.18,0,0,0,230.68,114Z"/><path class="cls-15" d="M228.2,111.28c0-.09-.14-.1-.14,0-.08,2.45-.23,4.9-.35,7.35a46.73,46.73,0,0,0-.3,5.9.06.06,0,1,0,.12,0C228.21,120.14,228,115.71,228.2,111.28Z"/><path class="cls-15" d="M233.58,120.85a.27.27,0,0,0-.54,0c-.15,3.62.15,7.21-.34,10.83a40.34,40.34,0,0,0-.7,7.5.07.07,0,0,0,.13,0c.38-2.74,1-5.43,1.25-8.17C233.74,127.63,233.44,124.23,233.58,120.85Z"/><path class="cls-15" d="M235.44,132.56a.09.09,0,1,0-.17,0c-.44,3-.27,6.13-.47,9.2-.16,2.5-.78,5-.72,7.5a.09.09,0,0,0,.18,0C235.11,143.71,235.86,138.2,235.44,132.56Z"/><path class="cls-15" d="M238.11,150.41a.31.31,0,0,0-.61,0c-.21,4.73-1,9.32-1.24,14a0,0,0,1,0,.08,0c.24-2.29.92-4.77,1.34-7A46.49,46.49,0,0,0,238.11,150.41Z"/><path class="cls-15" d="M244.53,182.07a.26.26,0,0,0-.52,0c-.35,3.76-.15,7.72-.28,11.52-.1,3.14-.78,6.13-.42,9.29,0,0,.07,0,.08,0C244.66,196,244.35,189,244.53,182.07Z"/><path class="cls-15" d="M258.39,274a.35.35,0,0,0-.33-.36c-1.06,0-.74,2.24-.6,2.89.06.28.53.33.59,0a9.88,9.88,0,0,0,.07-1.33,3.1,3.1,0,0,1,.1-.67C258.28,274.37,258.41,274.22,258.39,274Z"/><path class="cls-15" d="M251.59,246.78a.3.3,0,0,0,0-.23.29.29,0,0,0-.33-.23.28.28,0,0,0-.33.21.25.25,0,0,0,0,.22,46.2,46.2,0,0,0-.08,7.25c0,.19.36.2.39,0A44.78,44.78,0,0,0,251.59,246.78Z"/><path class="cls-15" d="M234.85,103.47a4.91,4.91,0,0,0-3-.71c-1.16.13-3.15.95-3.36,2.27,0,0,0,0,.07,0a12,12,0,0,1,3.22-1.33,4.52,4.52,0,0,1,2.21.32,8,8,0,0,1,1.93.73.22.22,0,0,0,.33-.23C236.06,104,235.38,103.76,234.85,103.47Z"/><path class="cls-15" d="M238.39,109.18a11.75,11.75,0,0,0-4.1-1.16c-1.21,0-3.92,1.58-3.48,1.78.83.38,1.81,0,2.7,0a19.08,19.08,0,0,1,4.66.17h.11A.42.42,0,0,0,238.39,109.18Z"/><path class="cls-15" d="M243.35,117.61c0-.16-.1-.48-.29-.54a9.64,9.64,0,0,0-9.05-.7c-.67.29-1.61.91-1.33,1.73.17.48.46.55,1,.5.2,0,.19-.26.06-.35a.55.55,0,0,0,.33,0c.67-.36,4.43-.39,5.34-.3,1.23.11,3.47.72,3.81.56S243.37,117.66,243.35,117.61Z"/><path class="cls-15" d="M244,127.24a7.22,7.22,0,0,0-3.94-.95.21.21,0,0,0-.14-.1,8.22,8.22,0,0,0-3.14,1,3.35,3.35,0,0,0-1.22.67,1.86,1.86,0,0,0-.6.29s-.05,0-.05,0a.62.62,0,0,0-.2.53c.1.92,1.34.86,2,.45a5.63,5.63,0,0,0,1.11-.39,18,18,0,0,1,3.2-.52c1.43,0,2.48,1.54,3.85,1.47C246.9,129.59,244.65,127.63,244,127.24Z"/><path class="cls-15" d="M248.81,142.17a.75.75,0,0,0-.31-.68l-.06-.1a.18.18,0,0,0-.15-.06,11.85,11.85,0,0,0-4.2-1.16,2,2,0,0,0-.85-.09l-.39,0a9.27,9.27,0,0,0-4.77,1.39c-.29.08-.64.05-.87.28A1.33,1.33,0,0,0,237,143a.56.56,0,0,0,.13.48v.05a.12.12,0,0,0,.14.09,1.06,1.06,0,0,0,.76.16c1.46-.26,2.71-1.23,4.15-1.62a7.22,7.22,0,0,1,5.48.86.46.46,0,0,0,.33,0c.22.18.42.32.67.08A1,1,0,0,0,248.81,142.17Z"/><path class="cls-15" d="M252.39,158.83c-.15-.87-.46-3-1.43-3.29a.18.18,0,0,0-.2.05,7.13,7.13,0,0,0-1-.42,29,29,0,0,0-3.6-1c0-.1-.09-.19-.2-.18h-.5l-.11,0a.4.4,0,0,0-.28.05c-2.06.14-5.51.76-5.26,2.91A8.29,8.29,0,0,0,240,158c0,.13,0,.27,0,.39a3.16,3.16,0,0,0,.19.82,21.76,21.76,0,0,0-.29,2.46c0,.9-.08,1.79,0,2.68-.14,5.9-.9,11.81-.64,17.75a.18.18,0,0,0,.36,0c.37-3.36.42-6.76.54-10.14.1-2.75.48-5.46.47-8.2,0,0,0,0,0,0a1.23,1.23,0,0,1,.36-.26c.27-.12.54-.19.8-.32a3.22,3.22,0,0,0,1.37-.9c.12-.18-.09-.35-.26-.28-.67.28-1.32.68-2,1a1.4,1.4,0,0,0-.26.16c.13-.64.21-1.3.29-1.94,0-.14,0-.29.05-.44,1.48-1.2,4.29-1.17,6-1.11l1.48,0c1,.4,2.11.8,2.77.49a.94.94,0,0,0,.23-.16A1.07,1.07,0,0,0,252,160C252.61,159.68,252.52,159.53,252.39,158.83Z"/><path class="cls-15" d="M256.87,177.54c-.21-1-.37-1.42-1.3-1.84a4.84,4.84,0,0,0-2-1.28,8.78,8.78,0,0,0-4.12-.8h0a9.67,9.67,0,0,0-2.54.59,8.62,8.62,0,0,0-2.86,1.34c-.68.81-.58,3.3-.07,4.19a.44.44,0,0,0,.37.21,25.12,25.12,0,0,0,3.13-.7,23.1,23.1,0,0,1,6.59,0,2.61,2.61,0,0,0,.88,0c.58.12,1.4.28,1.8-.09S257,178,256.87,177.54Z"/><path class="cls-15" d="M263.63,200.74a13.9,13.9,0,0,1-.82-2.51c-.1-.45,0-1.12-.37-1.47s-.71-.21-1.05-.24-.73-.17-1.09-.23l-.66-.25c-1.56-.57-4.14-1.75-5.78-.86a7.45,7.45,0,0,0-4.6,2.3,2.89,2.89,0,0,0-.27.44h0a1.37,1.37,0,0,0-.29,1.59c.35,1.1.6,2.24,1,3.33,0,.32,0,.64,0,1,0,0,0,0,0,.07-.23,3.4-.64,6.75-.74,10.15-.09,2.85-.74,5.81-.17,8.63,0,.08.16.09.18,0,1.35-5.7,1.2-12.18,1.21-18.06a11.62,11.62,0,0,0,.16-1.56c1.39,0,2.57-.87,4-1.06a31.75,31.75,0,0,1,5.85-.05h.55c.5.14,1,.29,1.51.4a3.67,3.67,0,0,0,1.31.25C264.4,202.41,263.85,201.27,263.63,200.74Z"/><path class="cls-15" d="M269.54,220.68a11,11,0,0,0-5.89-2.21c-1.39-.36-2.72.23-4,.74a22.38,22.38,0,0,0-4.22,1.72.18.18,0,0,0-.14,0,1.17,1.17,0,0,0-.74,1.75h0s0,.09,0,.14a14.64,14.64,0,0,0,1.07,2.94c-.17,3.51-.17,6.92-.55,10.46-.29,2.73-.57,5.52-.66,8.29-.19,1.49-.82,4.29-.1,5.5,1.91-2.58,2.17-5.35,2.52-8.37.4-3.55,1.31-7.29.64-10.81a2.9,2.9,0,0,0-.51-1.3.41.41,0,0,0-.61-.39c0-.83,0-1.66,0-2.48a.25.25,0,0,0,.14,0,4.8,4.8,0,0,0,1.2-.3c1-.32,2-1,2.72-1.14a14.21,14.21,0,0,1,6.36,0,6.52,6.52,0,0,0,2.27.55c.06,0,.1,0,.14-.05l1.14.23c.14,0,1.08.08,1-.09C271.12,224.36,270.72,221.71,269.54,220.68Z"/><path class="cls-15" d="M283.62,277.79a1.39,1.39,0,0,0-1-1.57,3.57,3.57,0,0,0-.28-.27,9.26,9.26,0,0,0-7.77-2.43l-.65.15a8.53,8.53,0,0,0-.94.13c-1.47.29-5.31,1.43-6.42,3.05a1.16,1.16,0,0,0-.25.41s0,.07,0,.1a1.35,1.35,0,0,0-.05.29.6.6,0,0,0,.52.76,59.39,59.39,0,0,0,8.94.47c1.94-.07,4.8.17,6.86-.32.24,0,.48-.09.71-.15a.35.35,0,0,0,.23-.21.28.28,0,0,1,0-.09A.5.5,0,0,0,283.62,277.79Z"/><path class="cls-15" d="M277.49,249.18a8.4,8.4,0,0,0-.08-1.87.25.25,0,0,0-.12-.26l-.06,0a3.47,3.47,0,0,0-2.06-1c-1.06-.44-2.18-.8-3.14-1.12a8.67,8.67,0,0,0-5.47-.06c-1.42.44-4.07,1-5.09,2.17-.82,1-.32,1.48,0,2.64,0,.39.08.78.13,1.17-.08.79-.32,1.72.15,2.39l0,0c0,.78,0,1.57,0,2.36,0,1.47.05,3,.15,4.49a.14.14,0,0,0,0,.07q.15,4.44,0,8.9c0,1.24-.82,8.09.17,8.06a7.14,7.14,0,0,1,.18-2.19v.24c0,.77-.44,2.13.67,2,.16-.73,1.13-8.75.73-8.78.16,0,.32-.07.31-.24-.2-2.29-.89-4.57-1.13-6.84,0-.37-.05-.74-.07-1.1a.42.42,0,0,0-.23-.37,49.48,49.48,0,0,0-.21-5.19c0-.43,0-.84,0-1.26,2.93-1.14,4.86-2.6,8.29-2.43,2.29.12,4.4.94,6.63,1.25a.51.51,0,0,0,.51-.48A10.57,10.57,0,0,0,277.49,249.18Z"/><path class="cls-15" d="M245.35,164.27c-1,.49-2.12.8-3.12,1.33-.36.19-1.51.43-1.53,1,0,0,0,0,0,0a6.57,6.57,0,0,1,1.13-.31c.47-.16.88-.39,1.35-.57a5.45,5.45,0,0,0,2.31-1.17A.16.16,0,0,0,245.35,164.27Z"/><path class="cls-15" d="M246.47,169.42a6.33,6.33,0,0,0-1.62.55c-.48.17-1,.35-1.42.55-.87.38-1.27.82-1.12,1.67a0,0,0,0,0,0,0c-.06.18-.08.16,0,.32a.12.12,0,0,0,.21,0c.18-.48.24-1,.7-1.29a6.68,6.68,0,0,1,1.22-.47,7.27,7.27,0,0,0,2.18-1A.2.2,0,0,0,246.47,169.42Z"/><path class="cls-15" d="M246.36,184.86c-.13.14-.42.15-.6.24a2.27,2.27,0,0,0-.57.45,1.43,1.43,0,0,0-.28,1.2c0,.15.26.15.3,0a1.57,1.57,0,0,1,1.06-1.31c.24-.1.35-.18.39-.45S246.46,184.75,246.36,184.86Z"/><path class="cls-15" d="M249.34,189.81c-.31.16-.69.17-1,.3a6,6,0,0,0-1.26.65c-.36.25-.89.76-.68,1.24a.14.14,0,0,0,.26,0c.17-.69,1.08-1,1.64-1.24s1-.18,1.32-.63A.21.21,0,0,0,249.34,189.81Z"/><path class="cls-15" d="M254.18,206.5a1.85,1.85,0,0,0-1.2.42c-.35.23-.75.4-1.09.64a1.83,1.83,0,0,0-.58,2,.19.19,0,0,0,.36,0c.05-.27.06-.53.11-.8a1.14,1.14,0,0,1,.78-.91,15.5,15.5,0,0,1,1.67-.86A.27.27,0,0,0,254.18,206.5Z"/><path class="cls-15" d="M255.9,213.18a1.65,1.65,0,0,0-1,.13c-.45.14-.94.24-1.38.42s-.83.58-.62,1.05a.07.07,0,0,0,.12,0c.32-.57.77-.58,1.35-.75s1-.36,1.54-.51A.18.18,0,0,0,255.9,213.18Z"/><path class="cls-15" d="M266.9,233.58a2.26,2.26,0,0,0-1.33.15c-.53.17-1,.32-1.58.45-.14,0-.16.26,0,.28a2.62,2.62,0,0,0,1.33-.13c.53-.16,1.05-.29,1.58-.42C267.05,233.87,267.08,233.61,266.9,233.58Z"/><path class="cls-15" d="M264.43,242.2a1.42,1.42,0,0,0-.95.07c-.54.17-1.05.32-1.6.44a4.86,4.86,0,0,0-2.33,1.11s0,0,0,0a14.23,14.23,0,0,1,2.59-.65,11.09,11.09,0,0,0,2.3-.7C264.6,242.46,264.56,242.24,264.43,242.2Z"/><path class="cls-15" d="M272.6,264.35a1.26,1.26,0,0,0-.67.21c-.39.19-.82.35-1.24.52a10.9,10.9,0,0,0-1.24.47c-.4.24-.62.64-1,.88,0,0,0,.08,0,.06a5.25,5.25,0,0,1,.89-.51c.42-.15.87-.18,1.29-.31l1.09-.38c.32-.12.6-.43.92-.52S272.86,264.34,272.6,264.35Z"/><path class="cls-15" d="M244.8,99.43a2.1,2.1,0,0,0-2.44-.91,1.2,1.2,0,0,0-.64.77.11.11,0,0,0,0,.06,3.08,3.08,0,0,0-.13.93,26.8,26.8,0,0,0,.21,6.08,3.13,3.13,0,0,0,.06,1.43c0,1.62-.11,3.24-.16,4.86,0,.19,0,.42-.06.67a32,32,0,0,0,1.19,3.2,1.54,1.54,0,0,0,1.1-.2c.76-.44.54-1,.62-1.87.28-2.66.49-5.36.58-8C245.17,104.59,245.65,101.09,244.8,99.43Z"/><path class="cls-15" d="M258.29,104.05c-.13-.26-3.33-1.75-4.12-1.57-.29.07-.88.53-.79.75a.94.94,0,0,0,.5.36c.1,1.82-.28,3.68-.34,5.5a14.15,14.15,0,0,0,.11,4.36c.61,2,2.42,2.2,2.86.12a42.2,42.2,0,0,0,.61-5.84,20.07,20.07,0,0,0,.22-3C257.83,104.48,258.53,104.54,258.29,104.05Z"/><path class="cls-15" d="M268.69,107.67c-.59,0-3.54-1.17-3.55-1-.22,2.62-.42,5.73-.47,8.36a15.65,15.65,0,0,0,.15,4.64c.28.9,1,1.9,2,1.28,1.84-1.1,1.27-5.82,1.28-7.3a19.32,19.32,0,0,1,.39-5.16A5.26,5.26,0,0,0,268.69,107.67Z"/><path class="cls-15" d="M280.51,109.25a51.73,51.73,0,0,0-5.31-.35c-.91.15-.18,1.19-.15,1.95a.19.19,0,0,0,.05.11c0,1-.05,2.11-.05,2.24,0,1.25,0,2.5,0,3.75s-.05,4.74,1.86,4.65,1.31-3.59,1.35-4.78-.4-4.93.42-5.89c.53-.62,1.4-.46,1.9-1.36C280.65,109.42,280.71,109.28,280.51,109.25Z"/><path class="cls-15" d="M291.32,116a11.72,11.72,0,0,0-.25-2.76c-.12-.92-.1-4-1.05-4.48s-2.71.19-3.63.37a.19.19,0,0,0-.09.31s0,0,0,0c0,.32.09.63.14,1a9.8,9.8,0,0,0,.38,2.09c.07,1.05.24,2.12.3,3.06.13,1.8-.12,4.82.94,6.37a1.24,1.24,0,0,0,1.64.57c.58-.3.69-1.11.67-1.9a5.24,5.24,0,0,0,.05-1.25,9.46,9.46,0,0,1,.5-2.31C291.09,116.55,291.25,116.59,291.32,116Z"/><path class="cls-15" d="M307.08,112.59a13.65,13.65,0,0,0-.76-5.56c-.16-.41-.18-.49-.62-.53a13.14,13.14,0,0,0-2,.3,8.22,8.22,0,0,0-1.62.35s0,0,0,0-.1,0-.1.08v0a.1.1,0,1,0-.16.11l0,0a0,0,0,0,0,0,0c-.47.32.68,4.17.77,4.76.15.85.22,1.81.37,2.74,0,.19.05.39.07.57.12,1.27-.08,3.93,1.51,4.22a.27.27,0,0,0,.29-.1,2.57,2.57,0,0,0,.3-1.8c-.08-1.15-.77-2.71.47-3.64a.81.81,0,0,1,.2-.06,1.08,1.08,0,0,0,.91-.14c.07,0,.15,0,.16-.12a.17.17,0,0,0,0-.07A2,2,0,0,0,307.08,112.59Z"/><path class="cls-15" d="M322.4,104.81c-.08-.41-.21-.86-.54-1s-.52.06-.77.09-.68,0-1,.07a15,15,0,0,0-1.77.36.14.14,0,0,0-.1.19.17.17,0,0,0,0,.19,8,8,0,0,1,.71,1.65c.06,1.73.71,3.61.86,5.26.06.72,0,3.26,1,3.55,1.29.39.78-3,.38-4.54.4-1.09,1.9-.41,1.95-1.79v0A12.19,12.19,0,0,0,322.4,104.81Z"/><path class="cls-15" d="M336.84,106.62a9.64,9.64,0,0,0-.28-1.48c0-.38-.06-.75-.1-1.1a5.67,5.67,0,0,0-.83-2.74c-.36-.42-.73-.34-1.25-.25-.83.14-1.62.41-2.44.58a.15.15,0,0,0-.13.16.14.14,0,0,0-.06.17l.57,1.36c.14.71.44,1.44.52,2.14.13,1.12.1,2.25.27,3.36.12.74.12,2.67,1.19,2.71a.26.26,0,0,0,.21-.11,4.61,4.61,0,0,0,.29-2.55,4.39,4.39,0,0,0,1.61-.76.59.59,0,0,0,.14-.06.2.2,0,0,0,.09-.22A2,2,0,0,0,336.84,106.62Z"/><path class="cls-15" d="M368.33,98.58c-.09-.51-.15-1-.28-1.53-.09-.35-.1-1-.36-1.26s-1-.15-1.42-.08a20,20,0,0,0-2,.44h-.07s0,0-.05,0a.08.08,0,0,0-.08,0c-.12.3.14.89.2,1.21s.1.51.15.77a15.2,15.2,0,0,0,.16,2.7c.08,1,.09,2,.19,2.94,0,.24.07,1,.38,1.14.6.34.88-.4,1-.84.14-.65.12-1.33.21-2s0-.74.75-1c.13-.05,1.08-.29,1.13-.3a.18.18,0,0,0,.12-.12l.06,0A3.72,3.72,0,0,0,368.33,98.58Z"/><path class="cls-15" d="M382.28,99.67a10.5,10.5,0,0,0-.44-1.8c-.09-.44-.13-.92-.18-1.41a7.61,7.61,0,0,0-.18-1.66,3.66,3.66,0,0,0-.81-1.93c-.36-.31-.83-.15-1.23,0l-1.11.3-.23.06-.85.24a.11.11,0,0,0-.08.07l-.08,0c-.06,0-.11,0-.13,0h0a0,0,0,0,0-.07,0c0,.19,0,.19.14.33l0,0h0c.48,1.25.79,2.55,1.14,3.83.09.3.16.62.22.93.15,1.21.32,2.43.57,3.6.11.49.32,1.43,1.06,1.19s.63-2,.73-2.6a.16.16,0,0,0,0-.12C381.31,100.29,382.25,100.7,382.28,99.67Z"/><path class="cls-15" d="M353.38,98.22a.22.22,0,0,0-.16-.17,7.85,7.85,0,0,0-3.26.39,2,2,0,0,0-.45.07h0l0,0h-.1a.07.07,0,0,0-.06.09.18.18,0,0,0-.05.17c.09.27.25.55.38.84a1.66,1.66,0,0,0,.12.52s0,0,0,0a42.56,42.56,0,0,0,.48,5.21c.16,1.41-.05,3.26.57,4.57a.28.28,0,0,0,.48,0c.77-1,.55-2.87.49-4.16.52-.47,1.6.09,2.05-.34a.25.25,0,0,0,.2-.23A18,18,0,0,0,353.38,98.22Z"/><path class="cls-15" d="M451.27,80.38l0-.12h0c.21-.08.05-3,0-3.34,0-1-.12-2-.21-3-.06-.6,0-1.61-.46-2.09s-2-.41-2.8-.44c0-.06-.09-.12-.15-.06a2.37,2.37,0,0,0-.35.42.06.06,0,0,0,0,.09.34.34,0,0,0,.28.1.28.28,0,0,0,.17.09,9.34,9.34,0,0,1,1.5,0c1.12.23.94.6,1,1.44s.12,1.6.18,2.4A15.9,15.9,0,0,0,451,80.5.16.16,0,1,0,451.27,80.38Z"/><path class="cls-15" d="M454,73.1c-.07-.76-.1-1.51-.22-2.25-.09-.58-.09-1.25-.66-1.62a4.72,4.72,0,0,0-2.41-.55c-.06,0-.11.08-.06.12a2.71,2.71,0,0,0,1.12.38,2.65,2.65,0,0,1,.88.32c.7.44.49,1.3.56,2s.06,1.24.13,1.86c.15,1.43.35,2.84.49,4.26,0,.2.38.21.41,0A17.35,17.35,0,0,0,454,73.1Z"/><path class="cls-15" d="M456.61,72.43c-.07-1.21,0-2.41-.07-3.61,0-.44-.7-.46-.68,0,.1,2.27.25,4.47.45,6.73a.17.17,0,0,0,.34,0A16.9,16.9,0,0,0,456.61,72.43Z"/><path class="cls-15" d="M459,72.52c-.05-.8-.05-1.63-.14-2.44,0-.13-.24-.14-.27,0a7.11,7.11,0,0,0,0,2.16c.13,1,0,1.93.16,2.89,0,0,.05,0,.05,0A8.79,8.79,0,0,0,459,72.52Z"/><path class="cls-15" d="M448.56,81.77c-.08-1.48-.07-3-.15-4.44a4,4,0,0,0-.63-2.39,3.15,3.15,0,0,0-1.22-.59c-.08,0-.68,0-1-.08,0,0,0,0,0,0a1,1,0,0,0-.77,0,.17.17,0,0,0-.09.19c0,.17.12.18.26.24.34.15.71.22,1,.4a1.43,1.43,0,0,1,.49.45.2.2,0,0,0,.09.13c.21,1.56.24,3.14.5,4.69.15.93,0,2.57,1,3.09a.29.29,0,0,0,.35,0C448.73,82.93,448.59,82.29,448.56,81.77Z"/><path class="cls-15" d="M441.87,81.6a11.35,11.35,0,0,0-.1-1.87,8,8,0,0,0-.44-1.58c-.09-.26-.17-.85-.45-1s-.54.2-.85.13c0,0-.08,0-.09,0v.05h0l.12.06a.13.13,0,0,0,0,.1,1.32,1.32,0,0,0-.12-.2s-.08,0-.07,0c.07.47.33.92.41,1.4a2.8,2.8,0,0,0,.09.58v.32c.05.55.14,1.1.18,1.65s.05,1.06.06,1.59,0,1.32,0,2c0,1-.22,3,.66,3.72a.28.28,0,0,0,.46-.11A33.22,33.22,0,0,0,441.87,81.6Z"/><path class="cls-15" d="M437.06,84.47c0-1.54-.24-3.11-.39-4.63-.07-.73.24-2.41-.31-3.06a2,2,0,0,0-1.25-.42c-.57-.07-1.65-.49-1.46.45.26,1.29.51,2.58.72,3.87a20.82,20.82,0,0,1,.49,4c.06.76.12,3.71,1.63,3C437.16,87.38,437.06,85,437.06,84.47Z"/><path class="cls-15" d="M428,78.89c0-.16-.08-.29-.12-.41s-.09-.36-.16-.55-.22-.7-.46-.82-.8,0-1.1.09c-.6.12-1.17.32-1.77.44a.16.16,0,0,0-.1.22,1.58,1.58,0,0,0,.18.27,3,3,0,0,0,.21.4c0,.08.42,2.35.48,2.61.25,1.08.44,2.16.61,3.26.2,1.33.15,3.09,1.08,4.16a.27.27,0,0,0,.32,0c.58-.27.45-.82.56-1.37a6.06,6.06,0,0,1,.29-1C429.32,84.37,428.51,80.85,428,78.89Z"/><path class="cls-15" d="M418.18,83.07a3.19,3.19,0,0,0-1.6-2.55,0,0,0,0,0-.05,0,1.44,1.44,0,0,0-.45-.17,3.25,3.25,0,0,0-2.38.52s0,.09.05.07h0a.1.1,0,0,0,0,.16c1,.77,1.29,2.86,1.52,4s.14,2.41.35,3.61c.26,1.39.43,2.69,2.22,2.1a1.24,1.24,0,0,0,.86-.89,2,2,0,0,0,.24-.68,1.27,1.27,0,0,0,0-.2h0C419.21,87.15,418.56,85,418.18,83.07Z"/><path class="cls-15" d="M407.32,89.53c-.07-.37-.1-.73-.15-1.1a.13.13,0,0,0,0-.09,2.09,2.09,0,0,0-.05-.21c0-.16-.07-.33-.11-.49s-.15-.4-.23-.59a5.22,5.22,0,0,0-1.74-2.66c-.48-.28-.91,0-1.38.2a4.48,4.48,0,0,0-1.7.74.12.12,0,0,0,0,.19l.1.1h0A46.06,46.06,0,0,1,404.62,93c.18.9.12,3,1.14,3.39.16.07.33-.09.34-.24,0-.68-.26-2.41,0-3a1.19,1.19,0,0,1,.63-.61.89.89,0,0,0,.68-.48l.05-.07a.92.92,0,0,0,.12-.54s0,0,0-.05A6,6,0,0,0,407.32,89.53Z"/><path class="cls-15" d="M394.83,94.39c-.27-1.14-.51-2.3-.77-3.45a3.28,3.28,0,0,0-.35-1,2.49,2.49,0,0,0-2.49-.75,12.11,12.11,0,0,0-1.81.51c-.06,0-.06.08,0,.13a.18.18,0,0,0,0,.31c1.27.83,1.43,3,1.74,4.4s.58,2.68,1,4c.17.59.67,2.67,1.74,1.89.37-.27.24-.79.33-1.16.23-.9,1-1.43,1.19-2.28a6,6,0,0,0-.45-2.5Z"/><path class="cls-15" d="M446,82.14a20.06,20.06,0,0,0-.65-3.65,2.68,2.68,0,0,0-1.3-1.25,3.23,3.23,0,0,0-2-.59,2.35,2.35,0,0,0,.66.36,12.28,12.28,0,0,0,1,.87c.87.73.91,1.58,1,2.68a44.94,44.94,0,0,0,1,5,.17.17,0,0,0,.19.13l.14,0a.16.16,0,0,0,.13-.12A8.91,8.91,0,0,0,446,82.14Z"/><path class="cls-4" d="M501.4,105.08a7.44,7.44,0,0,0-6.35,6.47c-.06.36-.1.76-.13,1.18-4.58-3-11.35-2.26-15.77,1.17-3.55,2.74-6.59,8-6.56,12.76a9.3,9.3,0,0,0-9.06,1c-2.83,2-5.79,4.54-6.57,8.07-.67,3.06-.27,6.47.25,9.71a13.31,13.31,0,0,0-4.24-3.69,17.18,17.18,0,0,0-10.83-1.43c-5,1-7.64,5.22-8.87,9.81-2.91-5.73-7.52-10.56-13.74-11.67-7.31-1.3-16,2.66-18.91,9.47-2.12-5-6.36-10.14-11.46-8.86-6.28,1.58-12,6.21-14.06,12.18-2.74-5.11-8.38-8.92-14.22-7.38a11.28,11.28,0,0,0-7.18,6.66,15,15,0,0,0-1,9.25,7.12,7.12,0,0,0-1.93-1.28,12.87,12.87,0,0,0-5.82-.94,11.05,11.05,0,0,0-8.77,5.11,8.08,8.08,0,0,0-1,2.76,80.5,80.5,0,0,0,4.5,8.65c1.56,2.45,3.86,6.05,5.85,9.1A22.45,22.45,0,0,0,352,184.4c8.68.82,17.39-.51,26.09-.16,8.91.37,17.79.87,26.71.91,9.26,0,18.34.62,27.57,1,16.45.59,33.61,1.63,50-.25,6.61-.76,13.35-1.13,19.92-2a6.84,6.84,0,0,0,3.89-1.64,1.1,1.1,0,0,0,1.86.7c2.7-2.49,2.46-8.1,3-11.52,1-5.88,2-11.7,3.14-17.55.44-2.35,2.05-24.36,2-29a.93.93,0,0,0,.43-.78C517,115.82,511.47,103.75,501.4,105.08Z"/></g></g></svg>