<svg id="Layer_1" data-name="Layer 1" xmlns="http://www.w3.org/2000/svg" viewBox="0 0 1047 544"><defs><style>.cls-1,.cls-16,.cls-18,.cls-4,.cls-8{fill:#24305e;}.cls-2{fill:#f63;}.cls-3{fill:#0067b1;}.cls-16,.cls-18,.cls-4{font-size:30px;font-family:MyriadPro-Regular, Myriad Pro;}.cls-5{letter-spacing:-0.05em;}.cls-16,.cls-6{letter-spacing:0em;}.cls-7{fill:#7bc143;}.cls-10,.cls-11,.cls-12,.cls-13,.cls-8,.cls-9{stroke:#24305e;stroke-miterlimit:10;}.cls-8{stroke-width:15.09px;}.cls-10,.cls-11,.cls-12,.cls-13,.cls-9{fill:none;}.cls-9{stroke-width:6.92px;}.cls-10{stroke-width:6.94px;}.cls-11{stroke-width:6.86px;}.cls-12{stroke-width:6.94px;}.cls-13{stroke-width:6.94px;}.cls-14{letter-spacing:0em;}.cls-15{letter-spacing:0em;}.cls-17{letter-spacing:0em;}.cls-18{letter-spacing:0em;}.cls-19{letter-spacing:0em;}.cls-20{letter-spacing:-0.01em;}.cls-21{letter-spacing:0em;}</style></defs><title>harmonie</title><path class="cls-1" d="M525.6,87H285.39a34.07,34.07,0,0,1-34.07-34.07V41.07A34.07,34.07,0,0,1,285.39,7H525.6Z"/><path class="cls-2" d="M518.36,78.94H286.3a27.2,27.2,0,0,1-27.2-27.2V43.05a27.2,27.2,0,0,1,27.2-27.2H518.36Z"/><path class="cls-1" d="M524.12,87H765a34.12,34.12,0,0,0,34.12-34.11V41.12A34.13,34.13,0,0,0,765,7H524.12Z"/><path class="cls-3" d="M531.59,78.94H763.65a27.2,27.2,0,0,0,27.2-27.2V43.05a27.2,27.2,0,0,0-27.2-27.2H531.59Z"/><text class="cls-4" transform="translate(358 59.46) scale(0.95 1)"><tspan class="cls-5">F</tspan><tspan x="13.26" y="0">a</tspan><tspan class="cls-6" x="27.72" y="0">r</tspan><tspan x="37.65" y="0">be</tspan></text><rect class="cls-1" x="388.15" y="196" width="274.05" height="80"/><rect class="cls-7" x="395.13" y="204.85" width="259.26" height="63.1"/><path class="cls-2" d="M388.28,390.94H129.74a.71.71,0,0,1-.72-.71V327.85H388.28Z"/><path class="cls-3" d="M661.68,390.94H919.89a1,1,0,0,0,1-1v-62H661.68Z"/><line class="cls-8" x1="524.86" y1="83" x2="524.86" y2="147"/><line class="cls-9" x1="327.51" y1="147.5" x2="525.98" y2="147.5"/><line class="cls-10" x1="389.2" y1="239" x2="327.51" y2="239"/><line class="cls-11" x1="324.91" y1="143.97" x2="324.91" y2="242.43"/><line class="cls-9" x1="723.33" y1="147.5" x2="524.86" y2="147.5"/><line class="cls-10" x1="661.63" y1="239" x2="723.33" y2="239"/><line class="cls-11" x1="725.93" y1="143.95" x2="725.93" y2="242.45"/><line class="cls-8" x1="524.86" y1="272.4" x2="524.86" y2="364.4"/><line class="cls-12" x1="388.09" y1="360" x2="519.29" y2="361"/><line class="cls-13" x1="662.5" y1="361" x2="531.18" y2="361"/><line class="cls-8" x1="258.01" y1="390.5" x2="258.01" y2="462.5"/><line class="cls-8" x1="790.97" y1="389.5" x2="790.97" y2="462.5"/><line class="cls-10" x1="252.06" y1="459" x2="128.67" y2="459"/><line class="cls-10" x1="388.09" y1="459" x2="263.95" y2="459"/><line class="cls-10" x1="785.02" y1="459" x2="657.92" y2="459"/><line class="cls-10" x1="917.34" y1="459" x2="796.92" y2="459"/><line class="cls-10" x1="132.15" y1="460" x2="132.15" y2="498"/><line class="cls-10" x1="384.6" y1="460" x2="384.6" y2="498"/><text class="cls-4" transform="translate(624 59.46) scale(0.95 1)"><tspan class="cls-5">F</tspan><tspan x="13.26" y="0">a</tspan><tspan class="cls-6" x="27.72" y="0">r</tspan><tspan x="37.65" y="0">be</tspan></text><text class="cls-4" transform="translate(463 246.46) scale(0.95 1)">Ha<tspan class="cls-14" x="34.02" y="0">r</tspan><tspan x="43.95" y="0">monie</tspan></text><text class="cls-4" transform="translate(210 371.46) scale(0.95 1)"><tspan class="cls-15">G</tspan><tspan x="19.53" y="0">efühle</tspan></text><text class="cls-16" transform="translate(712 371.46) scale(0.95 1)">B<tspan class="cls-17" x="16.38" y="0">edeutungen</tspan></text><text class="cls-18" transform="translate(69 527.46) scale(0.95 1)">A<tspan class="cls-17" x="18.27" y="0">ngenehm</tspan></text><text class="cls-4" transform="translate(304 527.46) scale(0.95 1)">Unangenehm</text><text class="cls-4" transform="translate(606 527.46) scale(0.95 1)">Subjektiv</text><line class="cls-10" x1="661.37" y1="460" x2="661.37" y2="498"/><line class="cls-10" x1="913.82" y1="460" x2="913.82" y2="498"/><text class="cls-4" transform="translate(760.65 527)">U<tspan class="cls-19" x="19.41" y="0">n</tspan><tspan class="cls-20" x="35.94" y="0">t</tspan><tspan x="45.69" y="0">e</tspan><tspan class="cls-21" x="60.72" y="0">r</tspan><tspan x="70.65" y="0">nehmenide</tspan><tspan class="cls-19" x="214.65" y="0">n</tspan><tspan x="231.18" y="0">tit</tspan><tspan class="cls-19" x="258.06" y="0">ä</tspan><tspan x="272.4" y="0">t</tspan></text></svg>